<svg width="221" height="222" viewBox="0 0 221 222" fill="none" xmlns="http://www.w3.org/2000/svg">
<path d="M115.81 155.897C115.523 154.173 115.056 152.491 114.417 150.88C114.094 150.094 113.719 149.332 113.295 148.6L112.974 148.054L112.626 147.551C112.394 147.212 112.143 146.887 111.875 146.577C110.802 145.31 109.506 144.253 108.047 143.454C106.617 142.639 105.024 142.132 103.365 141.965L102.716 141.92C102.499 141.899 102.284 141.924 102.067 141.921C101.636 141.927 101.204 141.964 100.775 142.032C100.668 142.041 100.561 142.06 100.456 142.09L100.14 142.165C99.9269 142.207 99.7164 142.261 99.509 142.328C99.0969 142.462 98.6912 142.619 98.2938 142.796C97.9059 142.981 97.5334 143.199 97.1806 143.447C96.8296 143.684 96.5002 143.952 96.1968 144.249C95.6129 144.803 95.1665 145.486 94.8965 146.24C94.5685 147.283 94.5669 148.388 94.8918 149.402C95.052 149.956 95.2766 150.486 95.5611 150.982C95.628 151.111 95.7083 151.232 95.7815 151.357C95.8624 151.478 95.9503 151.593 96.0337 151.711C96.1927 151.955 96.3693 152.186 96.562 152.402C96.7621 152.614 96.9407 152.845 97.155 153.043L97.8088 153.629L98.5236 154.148C98.7596 154.325 99.0316 154.451 99.2828 154.608C100.33 155.183 101.467 155.588 102.653 155.809C105.019 156.263 107.503 155.932 109.738 154.865L110.524 154.414C110.657 154.339 110.786 154.256 110.909 154.165C111.034 154.076 111.166 153.996 111.286 153.899C111.779 153.531 112.242 153.122 112.67 152.678C113.524 151.772 114.242 150.747 114.798 149.638C115.914 147.343 116.514 144.849 116.553 142.34C116.635 139.799 116.271 137.284 115.477 134.911C114.608 132.508 113.476 130.22 112.101 128.087C110.72 125.915 109.164 123.832 107.562 121.742C105.607 119.149 103.588 116.578 101.744 113.747C100.764 112.274 100.001 110.661 99.4765 108.955C99.215 108.054 99.0654 107.119 99.0309 106.172C99.0038 105.229 99.0792 104.282 99.2559 103.346C99.4394 102.436 99.6995 101.539 100.033 100.667C100.367 99.8194 100.752 98.9912 101.186 98.187C102.038 96.6273 103.012 95.1336 104.096 93.7206C106.198 90.941 108.457 88.3752 110.546 85.7431C112.638 83.1212 114.552 80.4057 115.923 77.4833C116.607 76.018 117.179 74.5062 117.633 72.9618C118.529 69.8615 118.928 66.6591 118.816 63.4779C118.754 61.8939 118.571 60.3225 118.27 58.7776C117.959 57.2395 117.521 55.7358 116.96 54.282L116.52 53.2022L116.021 52.1502C115.864 51.7948 115.665 51.4613 115.482 51.1198C115.295 50.7798 115.116 50.4359 114.903 50.112C113.932 48.5046 112.825 46.9875 111.596 45.5762C110.36 44.1738 108.994 42.8939 107.515 41.7524C107.173 41.4685 106.822 41.2288 106.495 40.9862C106.169 40.7436 105.861 40.5051 105.551 40.3014C105.246 40.0902 104.958 39.884 104.686 39.683C104.406 39.4966 104.139 39.3185 103.89 39.1423C103.396 38.7782 102.935 38.4876 102.54 38.1919C102.147 37.8893 101.794 37.6402 101.495 37.3946C100.623 36.6788 100.736 36.3155 101.754 36.363C102.067 36.3815 102.377 36.4192 102.683 36.476C103.041 36.5547 103.449 36.6686 103.907 36.8092C105.022 37.1786 106.094 37.6551 107.11 38.2323C108.675 39.127 110.145 40.1728 111.501 41.3556C112.874 42.5653 114.124 43.9076 115.236 45.3648C117.77 48.6578 119.588 52.4651 120.581 56.5563C121.549 60.6269 121.719 64.8832 121.082 69.0929C120.463 73.3014 119.02 77.382 116.838 81.0959C114.661 84.7872 111.958 88.0447 109.374 91.2643C107.954 93.0411 106.505 94.861 105.258 96.6967C104.642 97.5999 104.075 98.535 103.56 99.4976C103.076 100.415 102.67 101.368 102.345 102.348C101.839 103.825 101.683 105.385 101.889 106.902C102.17 108.45 102.736 109.919 103.561 111.234C104.431 112.652 105.375 114.021 106.387 115.337C107.398 116.688 108.446 118.023 109.497 119.371C111.665 122.077 113.648 124.932 115.432 127.916C116.324 129.451 117.093 131.058 117.733 132.724C119.381 136.965 119.725 141.659 118.721 146.219C118.122 149.003 116.824 151.618 114.953 153.809C113.989 154.904 112.864 155.846 111.621 156.598C110.373 157.361 109.01 157.898 107.595 158.185C106.199 158.485 104.776 158.57 103.375 158.435C101.982 158.295 100.623 157.961 99.3383 157.442C98.1892 156.968 97.1143 156.341 96.1413 155.577C95.1724 154.785 94.3279 153.851 93.6336 152.805C92.9385 151.727 92.4429 150.526 92.1695 149.256C92.0321 148.591 91.9805 147.907 92.0162 147.22C92.0565 146.511 92.2027 145.807 92.4498 145.132C92.9539 143.816 93.7798 142.635 94.8486 141.704C95.3559 141.25 95.9062 140.848 96.4907 140.504C96.7791 140.331 97.0753 140.173 97.3783 140.029C97.6787 139.877 97.9902 139.776 98.2967 139.649L98.7587 139.47C98.9123 139.409 99.0739 139.378 99.2314 139.33C99.5485 139.246 99.8651 139.155 100.184 139.079C101.46 138.832 102.756 138.762 104.035 138.872C104.662 138.942 105.284 139.049 105.895 139.193C106.503 139.334 107.101 139.511 107.685 139.724C107.977 139.826 108.255 139.959 108.54 140.076L108.965 140.257C109.104 140.324 109.238 140.397 109.374 140.467C110.468 141.019 111.495 141.688 112.439 142.462C113.38 143.24 114.238 144.112 115.002 145.065C115.736 146.031 116.382 147.062 116.935 148.147C117.994 150.293 118.742 152.59 119.158 154.973C119.374 156.142 119.531 157.324 119.627 158.514C119.732 159.698 119.779 160.884 119.79 162.066C119.826 165.851 119.418 169.465 119.02 172.888C118.622 176.314 118.177 179.565 118.007 182.689C117.934 184.123 117.84 184.821 117.586 184.757C117.476 184.723 117.31 184.501 117.139 184.075C117.032 183.818 116.94 183.554 116.865 183.285C116.756 182.926 116.669 182.559 116.602 182.187C116.501 181.594 116.404 180.995 116.323 180.391C116.272 180.089 116.267 179.785 116.245 179.481C116.228 179.177 116.205 178.87 116.193 178.565C116.138 177.342 116.116 176.114 116.126 174.881C116.158 172.422 116.277 169.967 116.353 167.559C116.412 165.578 116.477 163.609 116.424 161.656C116.392 159.724 116.209 157.805 115.878 155.916C115.855 155.91 115.834 155.905 115.81 155.897Z" fill="#E7EAEE"/>
<path d="M113.716 175.895C114.465 176.825 115.16 177.797 115.801 178.807C115.974 179.066 116.137 179.33 116.299 179.593C116.465 179.853 116.639 180.106 116.819 180.352C117.454 181.186 118.054 182.035 118.643 182.888C118.935 183.316 119.224 183.745 119.506 184.177L119.926 184.825C120.068 185.039 120.201 185.26 120.326 185.485L116.933 185.872L117.266 185.073L117.436 184.669L117.521 184.467L117.564 184.366L117.585 184.315L117.59 184.302L117.591 184.299C117.597 184.301 117.578 184.293 117.605 184.302L117.606 184.301L117.611 184.296L117.631 184.274C117.844 184.055 118.008 183.793 118.112 183.508C118.233 183.239 118.349 182.965 118.459 182.687C118.848 181.735 119.247 180.766 119.693 179.81C120.145 178.843 120.647 177.898 121.196 176.979C122.317 175.099 123.701 173.383 125.304 171.889C125.423 171.773 125.549 171.664 125.68 171.562C125.816 171.464 125.954 171.371 126.095 171.281C126.379 171.104 126.664 170.933 126.954 170.78C127.216 170.656 127.503 170.602 127.786 170.623C128.068 170.645 128.337 170.741 128.565 170.902C128.728 170.991 128.869 171.114 128.979 171.263C129.089 171.413 129.165 171.585 129.204 171.77C129.242 171.954 129.241 172.146 129.2 172.334C129.16 172.521 129.081 172.7 128.97 172.858C128.647 173.245 128.275 173.586 127.862 173.873C126.942 174.558 126.12 175.369 125.421 176.281C124.72 177.202 124.128 178.2 123.66 179.254C123.443 179.86 123.16 180.442 122.815 180.989C122.217 181.824 121.727 182.73 121.359 183.683C121.262 183.922 121.157 184.157 121.078 184.405L120.95 184.774C120.912 184.898 120.883 185.026 120.853 185.153C120.858 185.289 120.849 185.426 120.825 185.561L120.69 185.93C120.599 186.174 120.499 186.423 120.395 186.666L120.225 187.074L120.196 187.142C120.075 187.432 119.876 187.686 119.622 187.874C119.369 188.062 119.071 188.176 118.763 188.205C118.455 188.233 118.149 188.174 117.881 188.034C117.613 187.894 117.392 187.679 117.246 187.414C116.592 186.231 115.86 185.1 115.162 183.964C114.482 182.841 113.772 181.749 113.027 180.696C112.299 179.646 111.484 178.662 110.593 177.751C109.839 177.021 109.303 176.092 109.04 175.06C109.002 174.936 108.992 174.804 109.011 174.674C109.031 174.543 109.079 174.417 109.152 174.305C109.235 174.186 109.341 174.084 109.462 174.004C109.532 173.958 109.606 173.917 109.683 173.884C109.759 173.854 109.861 173.801 109.928 173.818C110.343 173.849 110.748 173.946 111.127 174.104C111.504 174.252 111.867 174.43 112.213 174.636C112.488 174.814 112.745 175.017 112.982 175.243C113.213 175.472 113.434 175.712 113.667 175.937L113.716 175.895Z" fill="#E7EAEE"/>
</svg>
