<svg width="83" height="26" viewBox="0 0 83 26" fill="none" xmlns="http://www.w3.org/2000/svg">
<g clip-path="url(#clip0_6222_19031)">
<path d="M38.9812 14.3394C38.353 13.2266 37.458 12.4075 36.2962 11.8821C36.2906 11.8795 36.2858 11.8756 36.2822 11.8707C36.2786 11.8657 36.2763 11.8599 36.2755 11.8538C36.2748 11.8477 36.2756 11.8415 36.2779 11.8358C36.2803 11.8301 36.284 11.8251 36.2888 11.8213C37.9592 10.5151 38.6236 8.63866 38.359 6.54633C37.8969 2.88526 34.4758 1.40829 31.2308 1.40087C27.7834 1.39367 24.3344 1.39142 20.8838 1.39412C20.8615 1.39412 20.8503 1.40536 20.8503 1.42786V14.3145C20.8502 14.3185 20.8488 14.3224 20.8463 14.3256C20.8438 14.3288 20.8403 14.331 20.8364 14.3319C20.8324 14.3329 20.8283 14.3325 20.8246 14.3308C20.821 14.3291 20.818 14.3262 20.8161 14.3226C20.2335 13.22 19.2737 12.4151 18.176 11.8753C18.1691 11.8721 18.1632 11.8671 18.1589 11.8608C18.1545 11.8546 18.1518 11.8473 18.1511 11.8396C18.1503 11.8319 18.1516 11.8242 18.1546 11.8171C18.1577 11.81 18.1625 11.8038 18.1686 11.7991C19.9267 10.4523 20.561 8.33031 20.1638 6.18333C19.5316 2.76246 16.158 1.39412 13.0644 1.39277C9.6424 1.39187 6.20388 1.39232 2.74884 1.39412C2.73516 1.39412 2.72204 1.39959 2.71237 1.40934C2.7027 1.41908 2.69727 1.43229 2.69727 1.44607L2.70999 23.3895C2.70999 23.4318 2.72897 23.453 2.76692 23.453C6.19294 23.4597 9.63235 23.4628 13.0852 23.4624C15.9691 23.4617 19.411 22.7182 20.8255 19.8998C20.8271 19.8971 20.8296 19.8949 20.8325 19.8936C20.8354 19.8924 20.8387 19.8921 20.8418 19.8929C20.8448 19.8936 20.8476 19.8954 20.8496 19.8979C20.8517 19.9003 20.8528 19.9034 20.853 19.9066L20.849 23.4314C20.849 23.438 20.8516 23.4443 20.8562 23.449C20.8609 23.4537 20.8672 23.4563 20.8737 23.4563C24.3141 23.4595 27.7541 23.457 31.194 23.4489C34.1583 23.4415 37.418 22.7823 38.9806 19.9086C38.9818 19.9064 38.9837 19.9046 38.986 19.9035C38.9883 19.9025 38.9909 19.9023 38.9934 19.9029C38.9958 19.9035 38.998 19.9049 38.9996 19.907C39.0011 19.909 39.002 19.9115 39.002 19.914L39 23.4327C39 23.4356 39.0006 23.4385 39.0017 23.4412C39.0028 23.4439 39.0044 23.4464 39.0065 23.4485C39.0085 23.4505 39.011 23.4522 39.0136 23.4533C39.0163 23.4544 39.0192 23.455 39.0221 23.455C41.8936 23.4604 44.7677 23.4588 47.6445 23.4503C52.6965 23.4347 56.9354 20.8067 58.6727 15.9432C58.6736 15.9407 58.6753 15.9386 58.6775 15.9371C58.6797 15.9356 58.6823 15.9348 58.685 15.9349C58.6877 15.9349 58.6902 15.9358 58.6924 15.9375C58.6945 15.9391 58.696 15.9414 58.6968 15.9439C60.4234 21.4038 65.6757 24.3861 71.2366 23.7161C74.0139 23.381 76.3553 22.2171 78.261 20.2244C82.2454 16.0579 82.3546 9.07723 78.4948 4.79879C76.9778 3.11737 75.0281 1.94537 72.83 1.40222C66.8886 -0.0666639 60.6237 2.87177 58.7149 8.91867C58.7024 8.9596 58.6897 8.9596 58.6767 8.91867C57.2535 4.47424 53.306 1.79221 48.7731 1.4346C48.469 1.41031 48.0229 1.39794 47.4349 1.39749C44.6286 1.39344 41.8199 1.39142 39.0087 1.39142C39.0064 1.39142 39.0042 1.39227 39.0025 1.39379C39.0009 1.39531 39 1.39737 39 1.39952L39.002 14.334C39.0022 14.3365 39.0015 14.3389 39.0001 14.3408C38.9987 14.3428 38.9966 14.3442 38.9942 14.3448C38.9918 14.3454 38.9892 14.3452 38.9869 14.3443C38.9845 14.3433 38.9825 14.3416 38.9812 14.3394Z" stroke="#F7A091" stroke-width="1.79549"/>
<path d="M66.2875 17.3286C67.8333 18.5235 69.8251 18.8136 71.6609 18.201C75.3566 16.9676 76.4463 12.3761 74.6634 9.20554C72.2121 4.84546 65.7141 5.58429 64.2789 10.3991C63.5395 12.8794 64.1992 15.7153 66.2875 17.3286Z" stroke="#F7A091" stroke-width="1.79549"/>
<path d="M14.6331 7.69982C14.4167 6.68031 13.1248 6.49138 12.2943 6.48936C10.9409 6.48621 9.60342 6.48599 8.28177 6.48868C8.27016 6.48868 8.25866 6.49097 8.24793 6.49541C8.23721 6.49986 8.22746 6.50637 8.21925 6.51457C8.21104 6.52278 8.20453 6.53253 8.20009 6.54325C8.19565 6.55397 8.19336 6.56547 8.19336 6.57707L8.19537 9.8549C8.19582 9.88143 8.20921 9.8947 8.23555 9.8947C9.54247 9.8983 10.8492 9.89268 12.1556 9.87784C13.4851 9.86232 15.0054 9.45613 14.6331 7.69982Z" stroke="#F7A091" stroke-width="1.79549"/>
<path d="M26.3578 6.48469L26.3457 9.85832C26.3457 9.8619 26.3471 9.86533 26.3496 9.86786C26.3521 9.87039 26.3555 9.87181 26.3591 9.87181L30.6676 9.88733C30.9518 9.88834 31.2334 9.84967 31.4962 9.77355C31.7591 9.69742 31.998 9.58533 32.1995 9.44366C32.4009 9.302 32.5609 9.13354 32.6703 8.94791C32.7797 8.76228 32.8363 8.56311 32.837 8.36178L32.8383 8.02711C32.8396 7.62058 32.613 7.22991 32.2082 6.94103C31.8034 6.65216 31.2536 6.48873 30.6797 6.48671L26.3712 6.47119C26.3676 6.47119 26.3642 6.47261 26.3617 6.47514C26.3592 6.47767 26.3578 6.48111 26.3578 6.48469Z" stroke="#F7A091" stroke-width="1.79549"/>
<path d="M44.6197 6.6045L44.5996 18.2381C44.5996 18.2419 44.6011 18.2455 44.6037 18.2482C44.6064 18.2508 44.6099 18.2523 44.6137 18.2523L47.8533 18.2577C48.5789 18.2589 49.2976 18.1163 49.9685 17.8378C50.6394 17.5593 51.2492 17.1506 51.7631 16.6348C52.2771 16.119 52.6851 15.5064 52.9639 14.8318C53.2428 14.1573 53.3869 13.434 53.3881 12.7034L53.3895 12.169C53.3907 11.4383 53.249 10.7146 52.9725 10.0391C52.6959 9.36357 52.2899 8.74953 51.7777 8.23201C51.2655 7.71448 50.6571 7.30362 49.9872 7.02286C49.3173 6.74211 48.599 6.59697 47.8734 6.59573L44.6338 6.59033C44.63 6.59033 44.6265 6.59182 44.6238 6.59448C44.6212 6.59714 44.6197 6.60074 44.6197 6.6045Z" stroke="#F7A091" stroke-width="1.79549"/>
<path d="M8.20151 14.8118L8.18945 18.2975C8.18945 18.3109 8.19475 18.3238 8.20417 18.3333C8.21359 18.3427 8.22636 18.3481 8.23968 18.3481L13.5455 18.367C14.1574 18.3691 14.7448 18.2009 15.1785 17.8993C15.6122 17.5978 15.8567 17.1877 15.8581 16.7591L15.8595 16.4042C15.8602 16.192 15.8013 15.9816 15.686 15.7851C15.5707 15.5887 15.4013 15.4099 15.1876 15.2591C14.9738 15.1083 14.7198 14.9884 14.4402 14.9062C14.1605 14.824 13.8606 14.7812 13.5575 14.7801L8.25174 14.7612C8.23842 14.7612 8.22564 14.7666 8.21622 14.7761C8.2068 14.7855 8.20151 14.7984 8.20151 14.8118Z" stroke="#F7A091" stroke-width="1.79549"/>
<path d="M26.3485 14.8028L26.3418 18.3222C26.3418 18.3311 26.3453 18.3397 26.3516 18.346C26.3579 18.3523 26.3664 18.3559 26.3753 18.3559L31.6965 18.3653C31.9992 18.3659 32.299 18.3244 32.5788 18.2432C32.8586 18.1619 33.113 18.0426 33.3273 17.8919C33.5416 17.7412 33.7117 17.5621 33.8279 17.3649C33.9441 17.1677 34.0041 16.9563 34.0045 16.7426V16.4093C34.0052 15.9779 33.7632 15.5638 33.3316 15.258C32.9001 14.9521 32.3143 14.7797 31.7032 14.7785L26.382 14.769C26.3731 14.769 26.3646 14.7726 26.3583 14.7789C26.352 14.7853 26.3485 14.7938 26.3485 14.8028Z" stroke="#F7A091" stroke-width="1.79549"/>
<path d="M0.220703 0.416504H82.3996V25.5838H0.220703V0.416504ZM38.9801 14.3408C38.3519 13.228 37.4568 12.4089 36.295 11.8835C36.2895 11.881 36.2847 11.877 36.281 11.8721C36.2774 11.8671 36.2751 11.8613 36.2744 11.8552C36.2736 11.8491 36.2745 11.8429 36.2768 11.8372C36.2791 11.8315 36.2829 11.8266 36.2877 11.8228C37.958 10.5165 38.6224 8.64007 38.3579 6.54774C37.8958 2.88668 34.4747 1.4097 31.2297 1.40228C27.7822 1.39508 24.3332 1.39283 20.8826 1.39553C20.8603 1.39553 20.8492 1.40678 20.8492 1.42927V14.3159C20.8491 14.3199 20.8477 14.3239 20.8452 14.327C20.8426 14.3302 20.8391 14.3324 20.8352 14.3334C20.8313 14.3343 20.8272 14.3339 20.8235 14.3322C20.8198 14.3305 20.8168 14.3276 20.815 14.324C20.2323 13.2215 19.2726 12.4165 18.1748 11.8767C18.168 11.8735 18.1621 11.8685 18.1577 11.8622C18.1533 11.856 18.1507 11.8487 18.1499 11.841C18.1492 11.8334 18.1504 11.8256 18.1535 11.8185C18.1566 11.8114 18.1614 11.8052 18.1675 11.8005C19.9256 10.4537 20.5598 8.33172 20.1627 6.18474C19.5304 2.76388 16.1569 1.39553 13.0633 1.39418C9.64125 1.39328 6.20273 1.39373 2.74769 1.39553C2.73401 1.39553 2.72089 1.40101 2.71122 1.41075C2.70155 1.42049 2.69612 1.43371 2.69612 1.44749L2.70884 23.3909C2.70884 23.4332 2.72782 23.4544 2.76577 23.4544C6.19179 23.4611 9.63121 23.4643 13.084 23.4638C15.968 23.4631 19.4099 22.7196 20.8244 19.9013C20.826 19.8985 20.8284 19.8963 20.8313 19.8951C20.8343 19.8938 20.8375 19.8935 20.8406 19.8943C20.8437 19.895 20.8465 19.8968 20.8485 19.8993C20.8505 19.9017 20.8517 19.9048 20.8518 19.908L20.8478 23.4328C20.8478 23.4394 20.8504 23.4457 20.8551 23.4504C20.8597 23.4551 20.866 23.4577 20.8726 23.4577C24.3129 23.4609 27.753 23.4584 31.1929 23.4503C34.1572 23.4429 37.4169 22.7837 38.9794 19.91C38.9806 19.9078 38.9825 19.906 38.9848 19.9049C38.9872 19.9039 38.9898 19.9037 38.9922 19.9043C38.9947 19.9049 38.9969 19.9063 38.9984 19.9084C39 19.9104 39.0009 19.9129 39.0009 19.9154L38.9988 23.4341C38.9988 23.437 38.9994 23.4399 39.0005 23.4426C39.0016 23.4453 39.0033 23.4478 39.0053 23.4499C39.0074 23.4519 39.0098 23.4536 39.0125 23.4547C39.0152 23.4558 39.018 23.4564 39.0209 23.4564C41.8924 23.4618 44.7666 23.4602 47.6434 23.4517C52.6953 23.4361 56.9342 20.8081 58.6716 15.9447C58.6725 15.9421 58.6742 15.94 58.6764 15.9385C58.6786 15.937 58.6812 15.9362 58.6839 15.9363C58.6865 15.9363 58.6891 15.9373 58.6912 15.9389C58.6933 15.9405 58.6949 15.9428 58.6957 15.9453C60.4223 21.4052 65.6745 24.3875 71.2355 23.7175C74.0127 23.3824 76.3542 22.2185 78.2599 20.2258C82.2442 16.0594 82.3534 9.07864 78.4936 4.8002C76.9766 3.11878 75.027 1.94678 72.8288 1.40363C66.8874 -0.0652508 60.6226 2.87318 58.7138 8.92008C58.7012 8.96101 58.6885 8.96101 58.6756 8.92008C57.2523 4.47566 53.3048 1.79362 48.7719 1.43602C48.4678 1.41173 48.0218 1.39936 47.4337 1.39891C44.6275 1.39486 41.8187 1.39283 39.0076 1.39283C39.0052 1.39283 39.003 1.39369 39.0014 1.3952C38.9998 1.39672 38.9988 1.39878 38.9988 1.40093L39.0009 14.3354C39.001 14.3379 39.0004 14.3403 38.9989 14.3422C38.9975 14.3442 38.9955 14.3456 38.9931 14.3462C38.9907 14.3468 38.9881 14.3467 38.9857 14.3457C38.9834 14.3447 38.9814 14.343 38.9801 14.3408Z" fill="white"/>
<path d="M38.9851 14.3424C38.9865 14.3445 38.9884 14.3462 38.9908 14.3472C38.9931 14.3482 38.9957 14.3484 38.9981 14.3477C39.0005 14.3471 39.0026 14.3457 39.004 14.3438C39.0054 14.3418 39.0061 14.3394 39.0059 14.337L39.0039 1.40245C39.0039 1.4003 39.0048 1.39824 39.0064 1.39672C39.0081 1.3952 39.0103 1.39435 39.0126 1.39435C41.8238 1.39435 44.6325 1.39637 47.4388 1.40042C48.0268 1.40087 48.4729 1.41324 48.777 1.43753C53.3099 1.79514 57.2574 4.47717 58.6806 8.9216C58.6936 8.96253 58.7063 8.96253 58.7188 8.9216C60.6276 2.8747 66.8925 -0.0637342 72.8339 1.40515C75.032 1.9483 76.9817 3.1203 78.4987 4.80172C82.3585 9.08016 82.2493 16.0609 78.2649 20.2273C76.3593 22.22 74.0178 23.3839 71.2405 23.719C65.6796 24.389 60.4273 21.4067 58.7007 15.9468C58.6999 15.9443 58.6984 15.942 58.6963 15.9404C58.6941 15.9388 58.6916 15.9379 58.6889 15.9378C58.6862 15.9377 58.6836 15.9385 58.6814 15.94C58.6792 15.9415 58.6775 15.9437 58.6766 15.9462C56.9393 20.8096 52.7004 23.4377 47.6484 23.4532C44.7716 23.4617 41.8975 23.4633 39.026 23.4579C39.0231 23.4579 39.0202 23.4573 39.0175 23.4562C39.0149 23.4551 39.0124 23.4535 39.0104 23.4514C39.0083 23.4493 39.0067 23.4469 39.0056 23.4442C39.0045 23.4415 39.0039 23.4386 39.0039 23.4356L39.0059 19.9169C39.0059 19.9144 39.0051 19.9119 39.0035 19.9099C39.0019 19.9079 38.9997 19.9064 38.9973 19.9058C38.9948 19.9052 38.9922 19.9054 38.9899 19.9065C38.9876 19.9075 38.9857 19.9093 38.9845 19.9115C37.4219 22.7852 34.1622 23.4444 31.1979 23.4518C27.758 23.4599 24.318 23.4624 20.8777 23.4593C20.8711 23.4593 20.8648 23.4566 20.8601 23.4519C20.8555 23.4473 20.8529 23.4409 20.8529 23.4343L20.8569 19.9095C20.8567 19.9063 20.8556 19.9033 20.8535 19.9008C20.8515 19.8983 20.8488 19.8966 20.8457 19.8958C20.8426 19.895 20.8393 19.8953 20.8364 19.8966C20.8335 19.8978 20.831 19.9 20.8294 19.9028C19.4149 22.7211 15.973 23.4647 13.0891 23.4653C9.63626 23.4658 6.19685 23.4626 2.77083 23.4559C2.73287 23.4559 2.7139 23.4347 2.7139 23.3925L2.70117 1.449C2.70117 1.43522 2.70661 1.42201 2.71628 1.41227C2.72595 1.40252 2.73907 1.39705 2.75274 1.39705C6.20779 1.39525 9.64631 1.3948 13.0683 1.3957C16.1619 1.39705 19.5355 2.76539 20.1677 6.18626C20.5649 8.33324 19.9306 10.4553 18.1725 11.802C18.1664 11.8067 18.1616 11.8129 18.1585 11.82C18.1555 11.8271 18.1542 11.8349 18.155 11.8425C18.1557 11.8502 18.1584 11.8575 18.1628 11.8637C18.1671 11.87 18.173 11.875 18.1799 11.8783C19.2776 12.418 20.2374 13.223 20.8201 14.3255C20.8219 14.3291 20.8249 14.332 20.8286 14.3337C20.8322 14.3354 20.8363 14.3358 20.8403 14.3349C20.8442 14.3339 20.8477 14.3317 20.8502 14.3285C20.8528 14.3254 20.8542 14.3214 20.8542 14.3174V1.43078C20.8542 1.40829 20.8654 1.39705 20.8877 1.39705C24.3383 1.39435 27.7873 1.3966 31.2347 1.4038C34.4797 1.41122 37.9008 2.88819 38.3629 6.54926C38.6275 8.64159 37.9631 10.518 36.2927 11.8243C36.2879 11.8281 36.2842 11.8331 36.2819 11.8387C36.2795 11.8444 36.2787 11.8506 36.2794 11.8567C36.2802 11.8628 36.2825 11.8686 36.2861 11.8736C36.2897 11.8785 36.2945 11.8825 36.3001 11.885C37.4619 12.4104 38.3569 13.2295 38.9851 14.3424ZM66.2944 17.33C67.8402 18.525 69.832 18.8151 71.6678 18.2025C75.3635 16.9691 76.4532 12.3775 74.6704 9.20701C72.2191 4.84692 65.7211 5.58575 64.2858 10.4006C63.5464 12.8809 64.2061 15.7168 66.2944 17.33ZM14.6369 7.70304C14.4205 6.68353 13.1286 6.49461 12.2981 6.49258C10.9447 6.48943 9.60724 6.48921 8.28559 6.49191C8.27398 6.49191 8.26248 6.49419 8.25176 6.49864C8.24103 6.50308 8.23128 6.50959 8.22307 6.5178C8.21487 6.526 8.20835 6.53575 8.20391 6.54647C8.19947 6.5572 8.19718 6.56869 8.19718 6.5803L8.19919 9.85812C8.19964 9.88466 8.21303 9.89793 8.23938 9.89793C9.54629 9.90153 10.853 9.8959 12.1595 9.88106C13.4889 9.86554 15.0093 9.45936 14.6369 7.70304ZM26.3629 6.48853L26.3509 9.86217C26.3509 9.86575 26.3523 9.86918 26.3548 9.87171C26.3573 9.87424 26.3607 9.87566 26.3643 9.87566L30.6728 9.89118C30.957 9.89218 31.2386 9.85352 31.5014 9.7774C31.7643 9.70127 32.0032 9.58917 32.2047 9.44751C32.4061 9.30585 32.5661 9.13739 32.6755 8.95176C32.7849 8.76612 32.8415 8.56696 32.8422 8.36562L32.8435 8.03096C32.8448 7.62442 32.6182 7.23376 32.2134 6.94488C31.8085 6.65601 31.2587 6.49258 30.6849 6.49056L26.3763 6.47504C26.3728 6.47504 26.3694 6.47646 26.3669 6.47899C26.3644 6.48152 26.3629 6.48496 26.3629 6.48853ZM44.6231 6.60729L44.603 18.2409C44.603 18.2447 44.6045 18.2483 44.6072 18.2509C44.6098 18.2536 44.6134 18.2551 44.6171 18.2551L47.8567 18.2605C48.5823 18.2617 49.3011 18.119 49.9719 17.8406C50.6428 17.5621 51.2526 17.1533 51.7666 16.6376C52.2805 16.1218 52.6886 15.5092 52.9674 14.8346C53.2462 14.16 53.3903 13.4368 53.3916 12.7061L53.3929 12.1718C53.3941 11.4411 53.2524 10.7174 52.9759 10.0419C52.6994 9.36636 52.2934 8.75231 51.7812 8.23479C51.2689 7.71727 50.6605 7.3064 49.9906 7.02565C49.3207 6.74489 48.6024 6.59975 47.8768 6.59851L44.6372 6.59312C44.6335 6.59312 44.6299 6.59461 44.6273 6.59727C44.6246 6.59992 44.6231 6.60353 44.6231 6.60729ZM8.20656 14.816L8.1945 18.3016C8.1945 18.3151 8.19979 18.3279 8.20921 18.3374C8.21863 18.3469 8.23141 18.3522 8.24473 18.3522L13.5505 18.3711C14.1624 18.3733 14.7498 18.205 15.1835 17.9035C15.6172 17.602 15.8617 17.1918 15.8632 16.7633L15.8645 16.4084C15.8653 16.1961 15.8063 15.9858 15.691 15.7893C15.5757 15.5928 15.4064 15.4141 15.1926 15.2633C14.9789 15.1125 14.7249 14.9925 14.4452 14.9104C14.1655 14.8282 13.8656 14.7853 13.5626 14.7843L8.25679 14.7654C8.24347 14.7654 8.23069 14.7707 8.22127 14.7802C8.21185 14.7897 8.20656 14.8026 8.20656 14.816ZM26.3542 14.8059L26.3475 18.3253C26.3475 18.3342 26.3511 18.3428 26.3573 18.3491C26.3636 18.3554 26.3721 18.359 26.381 18.359L31.7022 18.3684C32.0049 18.369 32.3047 18.3275 32.5846 18.2463C32.8644 18.165 33.1187 18.0457 33.333 17.895C33.5473 17.7443 33.7175 17.5652 33.8336 17.368C33.9498 17.1709 34.0098 16.9594 34.0102 16.7457V16.4124C34.011 15.981 33.7689 15.5669 33.3374 15.2611C32.9058 14.9552 32.3201 14.7828 31.7089 14.7816L26.3877 14.7722C26.3788 14.7722 26.3703 14.7757 26.364 14.782C26.3578 14.7884 26.3542 14.7969 26.3542 14.8059Z" fill="#A0ABBB"/>
<path d="M66.2836 17.3286C64.1953 15.7153 63.5355 12.8794 64.275 10.3991C65.7102 5.58429 72.2082 4.84546 74.6595 9.20554C76.4424 12.3761 75.3527 16.9676 71.657 18.201C69.8212 18.8136 67.8293 18.5235 66.2836 17.3286Z" fill="white"/>
<path d="M12.2982 6.49229C13.1287 6.49431 14.4206 6.68324 14.637 7.70275C15.0093 9.45906 13.489 9.86525 12.1595 9.88077C10.8531 9.89561 9.54638 9.90123 8.23946 9.89763C8.21312 9.89763 8.19972 9.88436 8.19928 9.85783L8.19727 6.58C8.19727 6.5684 8.19955 6.5569 8.204 6.54618C8.20844 6.53545 8.21495 6.52571 8.22316 6.5175C8.23137 6.5093 8.24112 6.50279 8.25184 6.49834C8.26257 6.4939 8.27406 6.49161 8.28567 6.49161C9.60732 6.48892 10.9448 6.48914 12.2982 6.49229Z" fill="white"/>
<path d="M26.3617 6.48762C26.3617 6.48404 26.3631 6.4806 26.3656 6.47807C26.3681 6.47554 26.3715 6.47412 26.3751 6.47412L30.6836 6.48964C31.2575 6.49166 31.8073 6.65509 32.2121 6.94396C32.6169 7.23284 32.8436 7.62351 32.8422 8.03004L32.8409 8.3647C32.8402 8.56604 32.7836 8.76521 32.6742 8.95084C32.5648 9.13647 32.4048 9.30493 32.2034 9.44659C32.0019 9.58826 31.763 9.70035 31.5001 9.77648C31.2373 9.8526 30.9557 9.89127 30.6715 9.89026L26.363 9.87474C26.3595 9.87474 26.356 9.87332 26.3535 9.87079C26.351 9.86826 26.3496 9.86483 26.3496 9.86125L26.3617 6.48762Z" fill="white"/>
<path d="M44.6197 6.60645C44.6197 6.6027 44.6212 6.59909 44.6238 6.59644C44.6265 6.59378 44.63 6.59229 44.6338 6.59229L47.8734 6.59768C48.599 6.59892 49.3173 6.74406 49.9872 7.02482C50.6571 7.30557 51.2655 7.71644 51.7777 8.23396C52.2899 8.75148 52.6959 9.36553 52.9725 10.041C53.249 10.7165 53.3907 11.4403 53.3895 12.1709L53.3881 12.7053C53.3869 13.436 53.2428 14.1592 52.9639 14.8338C52.6851 15.5083 52.2771 16.121 51.7631 16.6367C51.2492 17.1525 50.6394 17.5613 49.9685 17.8398C49.2976 18.1182 48.5789 18.2609 47.8533 18.2597L44.6137 18.2543C44.6099 18.2543 44.6064 18.2528 44.6037 18.2501C44.6011 18.2475 44.5996 18.2438 44.5996 18.2401L44.6197 6.60645Z" fill="white"/>
<path d="M8.20541 14.8148C8.20541 14.8013 8.21071 14.7885 8.22013 14.779C8.22955 14.7695 8.24232 14.7642 8.25565 14.7642L13.5614 14.7831C13.8645 14.7841 14.1644 14.8269 14.4441 14.9091C14.7237 14.9913 14.9777 15.1112 15.1915 15.262C15.4052 15.4128 15.5746 15.5916 15.6899 15.7881C15.8052 15.9845 15.8641 16.1949 15.8634 16.4071L15.8621 16.762C15.8606 17.1906 15.6161 17.6007 15.1824 17.9023C14.7487 18.2038 14.1613 18.372 13.5494 18.3699L8.24359 18.351C8.23027 18.351 8.21749 18.3457 8.20807 18.3362C8.19865 18.3267 8.19336 18.3138 8.19336 18.3004L8.20541 14.8148Z" fill="white"/>
<path d="M26.3524 14.8057C26.3524 14.7968 26.3559 14.7882 26.3622 14.7819C26.3685 14.7755 26.377 14.772 26.3859 14.772L31.7071 14.7814C32.3182 14.7826 32.904 14.9551 33.3355 15.2609C33.7671 15.5667 34.0091 15.9809 34.0084 16.4122V16.7455C34.008 16.9592 33.948 17.1707 33.8318 17.3679C33.7156 17.5651 33.5455 17.7441 33.3312 17.8948C33.1169 18.0455 32.8625 18.1649 32.5827 18.2461C32.3029 18.3273 32.0031 18.3688 31.7004 18.3683L26.3792 18.3588C26.3703 18.3588 26.3618 18.3553 26.3555 18.3489C26.3492 18.3426 26.3457 18.334 26.3457 18.3251L26.3524 14.8057Z" fill="white"/>
</g>
<defs>
<clipPath id="clip0_6222_19031">
<rect width="82.1789" height="25.1673" fill="white" transform="translate(0.220703 0.416504)"/>
</clipPath>
</defs>
</svg>
