<svg width="96" height="36" viewBox="0 0 96 36" fill="none" xmlns="http://www.w3.org/2000/svg">
<path d="M20.3944 4.96472C19.0019 3.69729 17.5228 3.12611 15.9573 3.25119C11.761 3.58889 10.6229 9.0109 13.8123 11.3342C15.6915 12.7038 19.1999 12.3473 20.0535 9.77074C20.089 9.66442 20.0504 9.61127 19.9378 9.61127H16.6577C16.5535 9.61127 16.5014 9.55915 16.5014 9.45492V7.03784C16.5014 6.93778 16.5514 6.88671 16.6515 6.88462L23.1648 6.85023C23.2794 6.85023 23.343 6.90651 23.3555 7.01908C24.0591 13.179 18.3556 16.8719 12.9305 14.5111C7.67108 12.2191 7.08635 4.8115 11.7266 1.46886C14.9286 -0.835651 20.2787 -0.407268 22.6082 3.23242C22.6624 3.31372 22.6509 3.3846 22.5738 3.44505C21.8609 3.9933 21.1479 4.5009 20.435 4.96784C20.4284 4.97148 20.4209 4.97313 20.4137 4.97257C20.4064 4.97201 20.3997 4.96927 20.3944 4.96472Z" fill="#A0ABBB"/>
<path d="M56.958 13.9185C56.3618 14.5501 55.6697 14.9379 54.8818 15.0817C47.6274 16.4169 46.608 3.80929 54.813 3.97501C55.5593 3.9896 56.3785 4.38359 57.2707 5.15697C57.2875 5.17128 57.308 5.18049 57.3299 5.18352C57.3517 5.18655 57.374 5.18327 57.394 5.17407C57.4141 5.16486 57.4311 5.15013 57.443 5.13158C57.455 5.11304 57.4614 5.09148 57.4614 5.06942V0.425998C57.4614 0.373752 57.4822 0.323645 57.5191 0.286702C57.5561 0.249759 57.6062 0.229004 57.6584 0.229004H60.5289C60.6477 0.229004 60.7061 0.288415 60.704 0.407236L60.3569 14.8097C60.3549 14.9389 60.2881 15.0035 60.1568 15.0035H57.352C57.2248 15.0035 57.1592 14.941 57.155 14.8159L57.13 13.981C57.1299 13.9615 57.1239 13.9426 57.1127 13.9268C57.1015 13.911 57.0856 13.8989 57.0671 13.8921C57.0485 13.8854 57.0282 13.8843 57.0088 13.889C56.9894 13.8937 56.9717 13.904 56.958 13.9185ZM57.5771 9.57838C57.5771 8.87265 57.2968 8.19582 56.7978 7.69679C56.2987 7.19776 55.6219 6.91741 54.9162 6.91741C54.2104 6.91741 53.5336 7.19776 53.0346 7.69679C52.5355 8.19582 52.2552 8.87265 52.2552 9.57838C52.2552 10.2841 52.5355 10.961 53.0346 11.46C53.5336 11.959 54.2104 12.2394 54.9162 12.2394C55.6219 12.2394 56.2987 11.959 56.7978 11.46C57.2968 10.961 57.5771 10.2841 57.5771 9.57838Z" fill="#A0ABBB"/>
<path d="M0.867188 2.39773V2.23826L1.65204 2.19136C1.75418 2.18719 1.80525 2.23514 1.80525 2.3352V3.71415C1.80525 3.84548 1.87092 3.91844 2.00225 3.93303L2.68703 3.9987C2.71421 4.00087 2.74154 3.99746 2.7673 3.98869C2.79305 3.97992 2.81667 3.96599 2.83666 3.94777C2.85664 3.92954 2.87256 3.90743 2.88341 3.88283C2.89425 3.85822 2.89979 3.83166 2.89966 3.80483V2.86051C2.90111 2.75366 2.94078 2.65087 3.01148 2.57074C3.08219 2.49062 3.17924 2.43846 3.28508 2.42372C3.39092 2.40898 3.49853 2.43263 3.58844 2.49038C3.67834 2.54814 3.74459 2.63618 3.77519 2.73856C3.85649 3.02415 3.85753 3.37749 3.77832 3.79858C3.75539 3.92157 3.80646 3.98306 3.93153 3.98306H4.73514C4.86647 3.98306 4.93214 3.91844 4.93214 3.7892V2.30393C4.93214 2.1726 4.9978 2.10693 5.12913 2.10693H5.62943C5.72949 2.10693 5.78056 2.15696 5.78265 2.25702L5.81392 4.76166C5.81392 4.86797 5.7618 4.92113 5.65757 4.92113H1.10483C0.998517 4.92113 0.943275 4.86693 0.939106 4.75853L0.867188 2.39773Z" fill="#A0ABBB"/>
<path d="M35.7773 7.91728C35.9878 8.62325 36.0522 9.36521 35.967 10.1008C35.8818 10.8364 35.6486 11.5512 35.2807 12.2044C34.9128 12.8577 34.4174 13.4365 33.8228 13.908C33.2282 14.3794 32.546 14.7341 31.8153 14.952C31.0845 15.1698 30.3195 15.2465 29.5638 15.1776C28.8081 15.1087 28.0766 14.8956 27.4111 14.5504C26.7456 14.2053 26.159 13.7349 25.6849 13.166C25.2108 12.5971 24.8585 11.941 24.648 11.235C24.4376 10.5291 24.3731 9.78711 24.4583 9.05151C24.5436 8.31592 24.7768 7.6011 25.1447 6.94787C25.5126 6.29463 26.008 5.71578 26.6026 5.24436C27.1972 4.77293 27.8793 4.41817 28.6101 4.20033C29.3408 3.98248 30.1059 3.90581 30.8616 3.97471C31.6172 4.04361 32.3487 4.25671 33.0143 4.60187C33.6798 4.94702 34.2664 5.41745 34.7404 5.98631C35.2145 6.55517 35.5669 7.21132 35.7773 7.91728ZM30.2411 12.2308C30.5717 12.2331 30.8994 12.167 31.2058 12.0362C31.5121 11.9054 31.7909 11.7125 32.0264 11.4685C32.2618 11.2245 32.4493 10.9341 32.578 10.6141C32.7067 10.294 32.7742 9.9505 32.7767 9.60311C32.7816 8.90154 32.5211 8.22686 32.0525 7.72747C31.5839 7.22809 30.9456 6.94492 30.2781 6.94026C29.9475 6.93795 29.6197 7.00409 29.3134 7.13489C29.0071 7.2657 28.7283 7.45861 28.4928 7.70261C28.2574 7.94662 28.0699 8.23694 27.9412 8.557C27.8124 8.87705 27.7449 9.22058 27.7425 9.56797C27.7376 10.2695 27.9981 10.9442 28.4667 11.4436C28.9353 11.943 29.5735 12.2262 30.2411 12.2308Z" fill="#A0ABBB"/>
<path d="M47.4409 28.721L51.8717 34.4807C51.9467 34.5766 51.9238 34.6246 51.8029 34.6246H48.5228C48.4081 34.6246 48.3154 34.5797 48.2445 34.4901L45.4709 30.9755C45.4501 30.9496 45.424 30.9284 45.3942 30.9135C45.3645 30.8986 45.3319 30.8902 45.2987 30.889C45.2655 30.8878 45.2324 30.8938 45.2016 30.9066C45.1709 30.9194 45.1433 30.9386 45.1207 30.963L44.2108 31.9511C44.1385 32.0294 44.0983 32.1332 44.0982 32.2419V34.5245C44.0982 34.6121 44.0545 34.6548 43.9669 34.6527L41.0433 34.6121C40.9432 34.61 40.8932 34.5589 40.8932 34.4588L40.8838 15.2223C40.8838 15.1159 40.8327 15.0482 40.7306 15.019C38.5418 14.377 37.266 12.9928 36.9033 10.8665C35.3867 1.9674 48.9887 1.79542 48.2163 10.066C47.9954 12.432 46.6268 14.0465 44.1107 14.9096C44.0003 14.9471 43.9461 15.0242 43.9481 15.141L44.1201 27.6485C44.1198 27.6697 44.1261 27.6904 44.138 27.708C44.1499 27.7255 44.1669 27.7389 44.1867 27.7464C44.2065 27.7539 44.2281 27.7552 44.2487 27.75C44.2692 27.7447 44.2877 27.7333 44.3015 27.7173L47.5659 23.9275C47.5904 23.9 47.6201 23.878 47.653 23.8629C47.6858 23.8478 47.7212 23.84 47.7567 23.8399L51.2807 23.8525C51.4662 23.8525 51.4964 23.9212 51.3714 24.0588L47.4565 28.3927C47.4161 28.4375 47.3925 28.4948 47.3896 28.5548C47.3867 28.6147 47.4049 28.6735 47.4409 28.721ZM42.5594 12.2234C42.8903 12.22 43.2173 12.148 43.5217 12.0117C43.8261 11.8754 44.1018 11.6775 44.3333 11.4291C44.5647 11.1807 44.7473 10.8868 44.8706 10.5642C44.9939 10.2416 45.0554 9.8965 45.0518 9.54872C45.0482 9.20093 44.9794 8.85724 44.8494 8.53725C44.7193 8.21727 44.5307 7.92727 44.2941 7.6838C44.0575 7.44033 43.7776 7.24817 43.4705 7.11828C43.1633 6.98839 42.8349 6.92333 42.5039 6.92679C42.173 6.93026 41.846 7.00219 41.5416 7.13848C41.2373 7.27477 40.9615 7.47275 40.73 7.72112C40.4986 7.96949 40.316 8.26338 40.1927 8.58602C40.0695 8.90865 40.0079 9.25371 40.0115 9.6015C40.0152 9.94928 40.084 10.293 40.214 10.613C40.344 10.9329 40.5327 11.2229 40.7693 11.4664C41.0059 11.7099 41.2857 11.902 41.5929 12.0319C41.9 12.1618 42.2285 12.2269 42.5594 12.2234Z" fill="#A0ABBB"/>
<path d="M2.93714 9.21942L2.99655 7.54028C2.99698 7.52292 2.99387 7.50565 2.98742 7.48952C2.98098 7.4734 2.97132 7.45875 2.95904 7.44647C2.94676 7.43419 2.93211 7.42453 2.91598 7.41808C2.89985 7.41163 2.88258 7.40853 2.86522 7.40896L1.07664 7.44648C1.05954 7.4469 1.04254 7.44389 1.02662 7.43763C1.0107 7.43138 0.996199 7.422 0.983961 7.41005C0.971723 7.39811 0.961999 7.38383 0.955362 7.36807C0.948724 7.35231 0.945307 7.33538 0.945313 7.31828V6.6116C0.945313 6.5776 0.958819 6.54499 0.982862 6.52095C1.0069 6.49691 1.03951 6.4834 1.07351 6.4834H5.66378C5.69778 6.4834 5.73039 6.49691 5.75443 6.52095C5.77847 6.54499 5.79198 6.5776 5.79198 6.6116V7.33391C5.79199 7.35101 5.78857 7.36794 5.78193 7.38371C5.77529 7.39947 5.76557 7.41374 5.75333 7.42569C5.7411 7.43763 5.72659 7.44701 5.71067 7.45327C5.69476 7.45952 5.67775 7.46253 5.66065 7.46211L3.96901 7.43084C3.95191 7.43043 3.9349 7.43344 3.91899 7.43969C3.90307 7.44595 3.88857 7.45532 3.87633 7.46727C3.86409 7.47922 3.85437 7.49349 3.84773 7.50925C3.84109 7.52501 3.83767 7.54194 3.83768 7.55905V9.24756C3.83768 9.28156 3.85119 9.31417 3.87523 9.33822C3.89927 9.36226 3.93188 9.37577 3.96588 9.37577H5.66065C5.69309 9.37568 5.72435 9.38789 5.74814 9.40994C5.77193 9.43199 5.78648 9.46224 5.78885 9.49459L5.84201 10.2544C5.8433 10.272 5.84094 10.2897 5.83508 10.3064C5.82922 10.323 5.81998 10.3383 5.80795 10.3512C5.79591 10.3641 5.78134 10.3744 5.76514 10.3814C5.74894 10.3884 5.73146 10.3921 5.71381 10.392H1.07351C1.03951 10.392 1.0069 10.3785 0.982862 10.3545C0.958819 10.3304 0.945313 10.2978 0.945313 10.2638V9.50397C0.945303 9.4705 0.958379 9.43836 0.98175 9.4144C1.00512 9.39045 1.03693 9.37658 1.07039 9.37577L2.81206 9.3445C2.84498 9.3437 2.87634 9.33027 2.89962 9.30698C2.92291 9.2837 2.93634 9.25234 2.93714 9.21942Z" fill="#A0ABBB"/>
<path d="M5.85139 13.0828C5.87849 13.1515 5.88579 13.212 5.87328 13.2641C5.85035 13.3767 5.7826 13.433 5.67003 13.433L2.03034 13.4611C1.88025 13.4611 1.80521 13.5362 1.80521 13.6862V14.5368C1.80521 14.641 1.75309 14.6931 1.64886 14.6931H1.10166C0.997427 14.6931 0.945312 14.641 0.945312 14.5368V11.5068C0.945312 11.3588 1.01827 11.2973 1.16419 11.3223L1.58945 11.3911C1.69993 11.4078 1.76247 11.4724 1.77706 11.585L1.88338 12.3855C1.89797 12.498 1.96259 12.5554 2.07724 12.5574L5.63564 12.595C5.75863 12.595 5.83263 12.6554 5.85765 12.7763C5.86598 12.8201 5.86286 12.866 5.84827 12.9139C5.83009 12.9687 5.83119 13.0282 5.85139 13.0828Z" fill="#A0ABBB"/>
<path d="M9.47444 30.1604L13.7176 20.0824C13.7614 19.9803 13.8385 19.9292 13.949 19.9292H17.2416C17.3729 19.9292 17.4386 19.9949 17.4386 20.1262V34.4598C17.4386 34.5245 17.4129 34.5865 17.3672 34.6323C17.3214 34.678 17.2594 34.7037 17.1947 34.7037H14.3899C14.307 34.7037 14.2274 34.6708 14.1688 34.6121C14.1102 34.5535 14.0772 34.474 14.0772 34.391V26.5113C14.0772 26.2528 14.0282 26.2434 13.9302 26.4831L10.6126 34.5912C10.5793 34.6725 10.5188 34.7121 10.4313 34.71L8.30498 34.6568C8.1945 34.6527 8.11841 34.5995 8.07672 34.4973L4.75597 26.4269C4.749 26.4105 4.73665 26.3969 4.72094 26.3885C4.70523 26.3801 4.68712 26.3773 4.66961 26.3806C4.65209 26.3839 4.63623 26.393 4.62463 26.4066C4.61304 26.4201 4.60643 26.4372 4.60588 26.455L4.62464 34.3629C4.62464 34.435 4.59598 34.5042 4.54496 34.5553C4.49394 34.6063 4.42475 34.6349 4.3526 34.6349L1.4915 34.6443C1.38936 34.6443 1.33829 34.5922 1.33829 34.488L1.33203 20.1262C1.33203 19.9949 1.3977 19.9292 1.52902 19.9292H4.76222C4.87062 19.9292 4.94567 19.9792 4.98736 20.0793L9.25555 30.1604C9.3306 30.3334 9.40356 30.3334 9.47444 30.1604Z" fill="#A0ABBB"/>
<path d="M67.7882 23.8568L69.7362 23.8318C69.8446 23.8297 69.8988 23.8819 69.8988 23.9882V26.2614C69.8988 26.3656 69.8467 26.4178 69.7425 26.4178H67.8007C67.7597 26.4177 67.7204 26.4338 67.6912 26.4624C67.662 26.4911 67.6451 26.53 67.6443 26.571C67.6193 27.9155 67.6172 29.2465 67.6381 30.564C67.66 31.9711 68.6105 31.9304 69.7268 31.8085C69.8415 31.796 69.8988 31.8481 69.8988 31.9648V33.941C69.8988 34.2287 69.7612 34.4142 69.4861 34.4976C67.8226 35.001 65.665 34.8854 64.7739 33.1843C64.0641 31.8304 64.4205 28.2063 64.4299 26.5991C64.432 26.4782 64.3726 26.4178 64.2517 26.4178H62.9822C62.8508 26.4178 62.7852 26.3531 62.7852 26.2239V24.0726C62.7852 23.9162 62.8633 23.8381 63.0197 23.8381H64.2736C64.2948 23.8381 64.3158 23.8339 64.3353 23.8259C64.3549 23.8178 64.3726 23.806 64.3874 23.7912C64.4023 23.7763 64.414 23.7587 64.4218 23.7394C64.4296 23.7201 64.4334 23.6994 64.433 23.6786L64.4111 21.2553C64.4111 21.1531 64.4622 21.1021 64.5644 21.1021H67.4755C67.5797 21.1021 67.6318 21.1542 67.6318 21.2584V23.7005C67.6318 23.8047 67.6839 23.8568 67.7882 23.8568Z" fill="#A0ABBB"/>
<path d="M73.9415 30.7145C74.7983 32.6751 77.6563 32.4062 79.1916 31.4744C79.2875 31.416 79.374 31.4285 79.4511 31.5119L80.5518 32.6845C80.5927 32.728 80.6242 32.7795 80.6443 32.8357C80.6644 32.8919 80.6726 32.9515 80.6685 33.0109C80.6644 33.0703 80.648 33.1281 80.6204 33.1806C80.5927 33.2331 80.5545 33.2793 80.508 33.3161C78.932 34.5689 77.2592 35.0557 75.4893 34.7764C69.6671 33.8602 68.9823 25.9898 74.1291 24.0105C78.4974 22.3282 82.1902 25.8866 81.4679 30.3393C81.459 30.3942 81.4312 30.4441 81.3894 30.4802C81.3476 30.5163 81.2945 30.5362 81.2397 30.5363L74.0322 30.5738C73.9301 30.5738 73.8998 30.6207 73.9415 30.7145ZM73.8946 28.1474L78.4786 28.1286C78.4878 28.1286 78.4965 28.125 78.503 28.1185C78.5094 28.1121 78.513 28.1033 78.513 28.0942V28.0786C78.511 27.6425 78.2678 27.2253 77.8368 26.9187C77.4058 26.612 76.8224 26.441 76.2148 26.4432H76.146C75.8449 26.4443 75.5469 26.488 75.269 26.5717C74.9912 26.6554 74.7389 26.7776 74.5266 26.9312C74.3143 27.0848 74.1462 27.2669 74.0319 27.467C73.9176 27.6671 73.8592 27.8813 73.8602 28.0973V28.113C73.8602 28.1221 73.8639 28.1308 73.8703 28.1373C73.8768 28.1437 73.8855 28.1474 73.8946 28.1474Z" fill="#A0ABBB"/>
<path d="M86.3036 26.0498C86.8519 24.4425 87.9859 23.6431 89.7057 23.6514C89.8384 23.6522 89.9655 23.7051 90.0597 23.7987C90.1538 23.8922 90.2075 24.019 90.2091 24.1517L90.231 26.5907C90.2331 26.672 90.1935 26.7158 90.1122 26.722C87.3887 26.9347 86.1879 27.682 86.1567 30.5962C86.1421 31.9137 86.1421 33.2291 86.1567 34.5424C86.1567 34.5652 86.1522 34.5878 86.1435 34.6089C86.1348 34.63 86.1221 34.6491 86.1061 34.6651C86.0901 34.6811 86.0711 34.6937 86.0503 34.7022C86.0294 34.7106 86.0071 34.7148 85.9847 34.7143L83.0485 34.6768C82.9276 34.6747 82.8672 34.6143 82.8672 34.4955V23.9954C82.8672 23.8912 82.9193 23.839 83.0235 23.839H85.9534C86.0847 23.839 86.1504 23.9047 86.1504 24.036V26.0247C86.1496 26.0438 86.1558 26.0626 86.1679 26.0774C86.1799 26.0923 86.197 26.1022 86.2159 26.1053C86.2348 26.1083 86.2542 26.1044 86.2703 26.0942C86.2865 26.0839 86.2983 26.0681 86.3036 26.0498Z" fill="#A0ABBB"/>
<path d="M27.1698 24.842L27.126 24.0416C27.1198 23.9061 27.1844 23.8383 27.3199 23.8383H30.2185C30.3498 23.8383 30.4155 23.904 30.4155 24.0353V34.4822C30.4155 34.5927 30.3603 34.6479 30.2498 34.6479L27.2824 34.6167C27.1823 34.6146 27.1323 34.5635 27.1323 34.4635V33.6942C27.1323 33.5567 27.0822 33.5348 26.9822 33.6286C25.9586 34.5979 24.7517 34.995 23.3613 34.8199C19.5527 34.3384 17.8048 30.2797 19.14 26.9558C20.4157 23.7883 24.4181 22.4625 27.0353 24.9046C27.1312 24.9942 27.176 24.9734 27.1698 24.842ZM27.2511 29.2509C27.2511 28.5435 26.9701 27.8651 26.4699 27.3649C25.9697 26.8647 25.2913 26.5837 24.5839 26.5837C23.8765 26.5837 23.198 26.8647 22.6978 27.3649C22.1976 27.8651 21.9166 28.5435 21.9166 29.2509C21.9166 29.9583 22.1976 30.6368 22.6978 31.137C23.198 31.6372 23.8765 31.9182 24.5839 31.9182C25.2913 31.9182 25.9697 31.6372 26.4699 31.137C26.9701 30.6368 27.2511 29.9583 27.2511 29.2509Z" fill="#A0ABBB"/>
<path d="M35.674 25.9763C36.2972 24.2732 37.5438 23.5123 39.4137 23.6937C39.456 23.6983 39.4951 23.7184 39.5234 23.7502C39.5517 23.782 39.5672 23.8231 39.5669 23.8656V26.6329C39.5669 26.7497 39.5086 26.8028 39.3918 26.7924C34.4639 26.3109 35.5395 31.5797 35.4926 34.4626C35.4905 34.5606 35.4405 34.6107 35.3425 34.6127L32.3813 34.6565C32.2729 34.6565 32.2188 34.6023 32.2188 34.4939V24.0345C32.2188 23.9032 32.2834 23.8375 32.4126 23.8375H35.305C35.4363 23.8375 35.502 23.9021 35.502 24.0314V25.945C35.4993 25.9672 35.5052 25.9895 35.5184 26.0075C35.5317 26.0255 35.5513 26.0377 35.5732 26.0417C35.5952 26.0457 35.6179 26.0411 35.6366 26.029C35.6553 26.0168 35.6687 25.998 35.674 25.9763Z" fill="#A0ABBB"/>
<path d="M54.6379 30.7571C55.8042 32.5988 58.262 32.4894 59.963 31.4888C60.0568 31.4325 60.1412 31.445 60.2163 31.5263L61.417 32.8302C61.4515 32.8677 61.4698 32.9172 61.4681 32.9681C61.4663 33.019 61.4446 33.0672 61.4076 33.1022C59.125 35.2629 55.7761 35.4599 53.3434 33.5588C50.9326 31.6732 50.7324 27.355 53.0182 25.1881C56.8048 21.5953 63.3713 24.6784 62.1893 30.0723C62.1185 30.3975 61.9173 30.5601 61.5858 30.5601H54.7474C54.7243 30.5599 54.7016 30.5659 54.6816 30.5775C54.6617 30.5891 54.6452 30.6058 54.634 30.626C54.6228 30.6462 54.6173 30.669 54.6179 30.6921C54.6186 30.7151 54.6255 30.7376 54.6379 30.7571ZM54.6692 28.1367H59.1969C59.2069 28.1367 59.2164 28.1328 59.2234 28.1258C59.2305 28.1187 59.2344 28.1092 59.2344 28.0992V28.0867C59.2344 27.6505 58.9956 27.2322 58.5704 26.9237C58.1453 26.6153 57.5687 26.442 56.9674 26.442H56.8986C56.2974 26.442 55.7208 26.6153 55.2956 26.9237C54.8705 27.2322 54.6317 27.6505 54.6317 28.0867V28.0992C54.6317 28.1092 54.6356 28.1187 54.6426 28.1258C54.6497 28.1328 54.6592 28.1367 54.6692 28.1367Z" fill="#A0ABBB"/>
<ellipse cx="93.4234" cy="33.4532" rx="2.50151" ry="2.50151" fill="#A0ABBB"/>
</svg>
