<svg width="69" height="46" viewBox="0 0 69 46" fill="none" xmlns="http://www.w3.org/2000/svg">
<g clip-path="url(#clip0_6222_19025)">
<path d="M48.2101 1.91976C50.6557 0.705912 51.8677 0.865204 51.8949 2.09557C51.9276 3.69387 51.6938 5.8193 51.5253 7.35721C50.6176 15.716 49.1013 22.5462 48.9872 31.1285C52.9818 20.6777 56.3296 13.4142 60.6448 4.46824C62.0145 1.61769 62.8895 2.15049 64.0144 1.64515C68.3949 -0.326558 68.558 0.881722 67.9872 3.2929C65.8623 12.2234 60.4219 40.3418 59.5906 44.6715C59.3513 45.9243 58.0036 45.3932 57.6557 44.9033C56.096 42.7229 54.3351 42.6888 54.5307 41.2388C55.509 34.0202 59.0307 15.9088 59.9492 11.6412C55.2697 21.3362 50.4166 33.4562 47.922 40.3282C47.3947 41.7875 46.4328 41.6804 45.835 40.6127C44.9926 39.1128 43.3567 38.3471 43.0849 36.5747C42.2317 30.9397 44.0633 20.1988 44.3186 13.4037C41.7698 20.8266 37.4926 35.2379 35.6175 41.749C34.8458 44.443 32.2697 44.0036 32.9544 41.3778C35.8022 30.4507 41.9382 11.1249 44.5904 4.17712C45.2157 2.54032 46.8514 2.59524 48.2101 1.91976Z" fill="#A0ABBB"/>
<path d="M32.6757 0.578481C31.8496 0.375309 29.4529 1.68249 27.98 1.94058C27.5126 2.02297 27.0669 2.52273 26.9093 2.87982C24.5505 8.35567 22.4364 13.5755 20.6049 18.3308C18.2625 18.735 15.5235 19.2672 12.4582 19.9631C14.6538 14.2714 16.8713 8.65765 19.0343 3.2587C20.0995 0.600373 17.2952 0.347756 16.2082 3.03902C14.7951 6.53769 12.1483 13.0928 9.21895 20.7331C7.06675 21.2664 4.78419 21.876 2.39826 22.5725C0.664493 23.0784 0.593929 23.5452 1.34395 24.5959C1.75696 25.1809 2.61024 25.122 3.0015 25.5389C4.01242 26.6193 4.62656 27.9116 6.43624 28.1071C4.8221 32.4707 3.20797 36.9707 1.74603 41.3035C0.827556 44.0233 3.44167 44.5796 4.44718 41.7016C6.06674 37.0623 7.77328 32.3669 9.52871 27.6853C10.9906 27.3419 14.5287 26.5718 17.795 25.8556C15.2026 33.0363 13.496 38.4897 12.8493 41.1442C12.7298 41.6549 12.9308 41.9383 13.0395 42.1465C13.9145 43.4333 14.7461 43.486 15.8711 45.0771C16.1755 45.511 17.1973 45.745 17.545 44.6767C19.9472 37.3439 22.42 30.4637 24.7244 24.2958C25.6808 24.0843 27.4037 23.6642 28.458 22.0741C30.333 19.2521 30.871 19.8244 31.3222 18.9665C31.8874 17.8895 31.5124 16.8783 29.5125 17.1282C29.5125 17.1282 28.757 17.1825 27.3602 17.3434C29.5776 11.5738 31.5178 6.68008 32.9146 2.95087C33.3931 1.68796 33.4529 0.765234 32.6757 0.578481Z" fill="#A0ABBB"/>
<path d="M29.4059 37.9999C29.9222 39.3186 31.5363 38.9193 30.9221 37.3277C30.2971 35.7063 28.7428 30.8253 28.3351 29.2528C27.7808 27.1339 30.1829 27.7133 28.9656 29.0986C27.9221 30.2898 27.2264 30.7671 25.2971 33.0321C23.433 35.2186 23.9384 38.056 25.933 38.6827C28.1829 39.3901 30.1667 36.8845 31.3949 35.0463C32.5851 33.2662 31.4329 32.2221 30.2319 33.2745C29.4601 33.9511 28.5688 34.9902 27.6666 35.5505C26.9329 36.0013 26.3568 35.5169 27.3351 34.156C28.471 32.5803 29.7427 31.2599 30.6883 29.7709C32.6177 26.7364 28.8024 24.9871 27.1611 26.9583C26.2807 28.009 26.5035 29.0405 26.7427 29.9258C27.1286 31.3438 28.5634 35.8707 29.4059 37.9999Z" fill="#A0ABBB"/>
</g>
<defs>
<clipPath id="clip0_6222_19025">
<rect width="67.331" height="44.8873" fill="white" transform="translate(0.890625 0.556152)"/>
</clipPath>
</defs>
</svg>
