<svg width="120" height="26" viewBox="0 0 120 26" fill="none" xmlns="http://www.w3.org/2000/svg">
<path d="M119.057 4.64897V7.84826L116.247 7.83491C116.225 7.83497 116.205 7.8276 116.188 7.81407C116.172 7.80054 116.16 7.78169 116.156 7.76075C115.98 6.84215 115.475 6.12674 114.642 5.61454C111.779 3.85397 108.012 3.75459 104.937 4.90853C103.694 5.37574 102.407 6.24787 102.094 7.61391C102.087 7.64616 102.091 7.67989 102.105 7.70955C102.12 7.73921 102.144 7.76302 102.174 7.77707L119.057 15.6455V21.829C116.073 25.0876 111.327 25.9123 107.043 25.3769C103.171 24.8948 98.4066 22.808 98.2241 18.2219C98.2222 18.1734 98.2454 18.1492 98.2938 18.1492H102.029C102.072 18.1492 102.098 18.1704 102.107 18.213C102.494 20.0818 104.42 20.9895 106.041 21.4211C108.9 22.1806 112.294 21.9833 114.888 20.4407C115.638 19.9948 116.155 19.3704 116.441 18.5674C116.45 18.5431 116.449 18.5165 116.439 18.4926C116.429 18.4687 116.411 18.4494 116.388 18.4384L98.2167 9.99299C98.2061 9.98813 98.1971 9.98023 98.1908 9.97024C98.1845 9.96024 98.1811 9.94858 98.1811 9.93663C98.1856 8.83163 98.0862 7.54717 98.322 6.55935C99.2728 2.57692 103.758 0.960218 107.352 0.571616C111.422 0.131102 116.502 1.09519 119.057 4.64897Z" fill="#A0ABBB"/>
<path d="M0.402344 25.0485V24.2965V7.5362V4.16337V1.15689V0.935896L4.06885 0.922548C4.12818 0.922548 4.15833 0.952707 4.15932 1.01302L4.18899 14.9137C4.18899 14.9612 4.21074 14.975 4.25425 14.9552L19.0805 8.05977C19.1057 8.04835 19.1271 8.02995 19.1421 8.00679C19.1571 7.98363 19.1651 7.95671 19.165 7.92925V0.981876C19.165 0.932435 19.1897 0.907715 19.2392 0.907715H22.8181C22.8795 0.907715 22.9101 0.938863 22.9101 1.00116V24.9907C22.9101 25.0529 22.8795 25.0841 22.8181 25.0841H19.2392C19.1897 25.0841 19.165 25.0594 19.165 25.0099V12.1727C19.165 12.0274 19.0987 11.9848 18.9662 12.0452L4.27946 18.8576C4.24797 18.8722 4.22132 18.8955 4.20266 18.9247C4.18401 18.9539 4.17412 18.9877 4.17416 19.0222L4.17861 24.9699C4.17861 25.0361 4.14548 25.0693 4.07923 25.0693L0.402344 25.0485Z" fill="#A0ABBB"/>
<path d="M30.1321 23.136L29.3104 25.0553C29.3067 25.0636 29.3007 25.0707 29.2931 25.0757C29.2854 25.0807 29.2765 25.0834 29.2674 25.0835H25.2776C25.2697 25.0834 25.262 25.0814 25.2551 25.0776C25.2482 25.0738 25.2423 25.0683 25.238 25.0617C25.2338 25.0551 25.2312 25.0475 25.2306 25.0397C25.23 25.0318 25.2314 25.0239 25.2346 25.0167L35.4761 0.978273C35.4799 0.96994 35.4859 0.962852 35.4935 0.957854C35.5011 0.952857 35.51 0.95016 35.5192 0.950092L41.6686 0.918945C41.6779 0.919139 41.6869 0.922053 41.6945 0.927326C41.7022 0.932599 41.7081 0.939998 41.7116 0.948609L51.965 25.0167C51.9682 25.0239 51.9696 25.0318 51.969 25.0397C51.9684 25.0475 51.9658 25.0551 51.9616 25.0617C51.9573 25.0683 51.9514 25.0738 51.9445 25.0776C51.9376 25.0814 51.9299 25.0834 51.922 25.0835H47.9233C47.9142 25.0834 47.9053 25.0807 47.8976 25.0757C47.89 25.0707 47.884 25.0636 47.8803 25.0553L44.2761 16.601C44.2735 16.5952 44.2698 16.5899 44.2652 16.5856C44.2606 16.5812 44.2551 16.5778 44.2492 16.5756C44.2432 16.5734 44.2369 16.5724 44.2306 16.5727C44.2242 16.573 44.218 16.5745 44.2123 16.5772L30.1559 23.1123C30.1453 23.117 30.1369 23.1255 30.1321 23.136ZM38.5509 3.38849L32.2724 18.1213C32.2447 18.1855 32.2625 18.2028 32.3258 18.1732L42.8359 13.3023C42.8446 13.2977 42.8514 13.2901 42.8547 13.281C42.858 13.2719 42.8576 13.262 42.8537 13.2534L38.6532 3.38849C38.6186 3.3084 38.5845 3.3084 38.5509 3.38849Z" fill="#A0ABBB"/>
<path d="M48.2913 1.63301C48.2098 1.44019 48.0733 1.19546 48.0229 0.984843C48.011 0.934413 48.0308 0.909197 48.0822 0.909197L51.9964 0.907715C52.019 0.90774 52.041 0.914215 52.0597 0.926339C52.0784 0.938463 52.093 0.955708 52.1017 0.975944L61.3451 22.659C61.3482 22.6656 61.353 22.6711 61.3591 22.675C61.3652 22.6789 61.3723 22.681 61.3794 22.681C61.3865 22.681 61.3933 22.6789 61.3991 22.675C61.4049 22.6711 61.4093 22.6656 61.4118 22.659L70.6345 0.999673C70.6523 0.959132 70.6829 0.938863 70.7264 0.938863L74.7237 0.929962C74.7289 0.929724 74.734 0.930847 74.7387 0.933228C74.7433 0.935608 74.7473 0.939172 74.7502 0.943593C74.7532 0.948015 74.755 0.953156 74.7555 0.958546C74.7561 0.963937 74.7553 0.969406 74.7533 0.974459L64.5073 25.004C64.4846 25.0574 64.444 25.0841 64.3857 25.0841H58.3638C58.3369 25.084 58.3105 25.0761 58.2881 25.0613C58.2657 25.0466 58.2482 25.0256 58.2378 25.001C54.9203 17.2082 51.6048 9.41889 48.2913 1.63301Z" fill="#A0ABBB"/>
<path d="M89.7781 16.571L75.7172 23.1105C75.704 23.1163 75.6934 23.1269 75.6876 23.1401L74.8852 25.0476C74.8808 25.0581 74.8733 25.0671 74.8638 25.0734C74.8543 25.0798 74.8432 25.0832 74.8318 25.0832H70.8508C70.8413 25.0832 70.8319 25.0808 70.8235 25.0763C70.8151 25.0718 70.808 25.0653 70.8027 25.0574C70.7974 25.0495 70.7942 25.0404 70.7932 25.0309C70.7923 25.0214 70.7938 25.0119 70.7974 25.0031L81.0464 0.951273C81.0508 0.940731 81.0582 0.931725 81.0677 0.925391C81.0772 0.919056 81.0884 0.915675 81.0998 0.915675L87.2151 0.903809C87.2265 0.903809 87.2377 0.90719 87.2472 0.913525C87.2567 0.919859 87.2641 0.928865 87.2685 0.939407L97.5116 25.0031C97.5152 25.0119 97.5167 25.0214 97.5158 25.0309C97.5148 25.0404 97.5116 25.0495 97.5063 25.0574C97.501 25.0653 97.4939 25.0718 97.4855 25.0763C97.4771 25.0808 97.4677 25.0832 97.4582 25.0832H93.4891C93.4777 25.0832 93.4665 25.0798 93.457 25.0734C93.4475 25.0671 93.4401 25.0581 93.4357 25.0476L89.8567 16.6007C89.8537 16.5934 89.8492 16.5869 89.8435 16.5814C89.8379 16.5759 89.8312 16.5717 89.8238 16.5689C89.8164 16.5661 89.8086 16.5649 89.8007 16.5652C89.7929 16.5656 89.7852 16.5676 89.7781 16.571ZM84.1953 3.35853C84.1921 3.35013 84.1864 3.34292 84.1789 3.33782C84.1715 3.33273 84.1628 3.33001 84.1538 3.33001C84.1448 3.33001 84.136 3.33273 84.1286 3.33782C84.1212 3.34292 84.1155 3.35013 84.1122 3.35853L77.8338 18.1106C77.8303 18.1188 77.8294 18.1279 77.8312 18.1367C77.8329 18.1455 77.8373 18.1535 77.8437 18.1597C77.8501 18.166 77.8583 18.1701 77.8671 18.1717C77.8759 18.1732 77.885 18.1721 77.8931 18.1684L88.3824 13.3035C88.3929 13.2986 88.4011 13.2899 88.4053 13.2791C88.4094 13.2683 88.4092 13.2563 88.4046 13.2456L84.1953 3.35853Z" fill="#A0ABBB"/>
<path d="M32.2744 18.1229L38.5528 3.39015C38.5864 3.31005 38.6205 3.31005 38.6551 3.39015L42.8556 13.255C42.8596 13.2636 42.8599 13.2735 42.8566 13.2826C42.8533 13.2918 42.8466 13.2994 42.8378 13.3039L32.3278 18.1748C32.2645 18.2045 32.2467 18.1872 32.2744 18.1229Z" fill="white"/>
<path d="M84.1931 3.3586L88.4025 13.2457C88.407 13.2563 88.4072 13.2683 88.4031 13.2791C88.3989 13.2899 88.3907 13.2987 88.3802 13.3035L77.891 18.1685C77.8828 18.1722 77.8737 18.1733 77.8649 18.1718C77.8561 18.1702 77.848 18.166 77.8416 18.1598C77.8351 18.1536 77.8308 18.1455 77.829 18.1368C77.8272 18.128 77.8281 18.1189 77.8316 18.1106L84.1101 3.3586C84.1133 3.3502 84.119 3.34299 84.1264 3.3379C84.1338 3.3328 84.1426 3.33008 84.1516 3.33008C84.1606 3.33008 84.1694 3.3328 84.1768 3.3379C84.1842 3.34299 84.1899 3.3502 84.1931 3.3586Z" fill="white"/>
<path d="M119.053 7.84715V15.6444L102.17 7.77596C102.14 7.76192 102.115 7.7381 102.101 7.70844C102.086 7.67879 102.082 7.64505 102.089 7.6128C102.402 6.24677 103.69 5.37464 104.933 4.90742C108.007 3.75348 111.775 3.85286 114.637 5.61343C115.471 6.12564 115.976 6.84104 116.152 7.75964C116.156 7.78058 116.167 7.79943 116.184 7.81296C116.2 7.8265 116.221 7.83386 116.242 7.8338L119.053 7.84715Z" fill="white"/>
</svg>
