<svg width="76" height="32" viewBox="0 0 76 32" fill="none" xmlns="http://www.w3.org/2000/svg">
<g clip-path="url(#clip0_6222_19059)">
<path d="M9.44156 21.3196C9.44282 25.1859 7.95073 28.9808 4.05792 30.435C2.97606 30.8391 1.85484 31.0431 0.694254 31.0469C0.671522 31.0469 0.660156 31.0353 0.660156 31.0121V28.8166C0.660156 28.7889 0.674048 28.7745 0.701831 28.7737C5.62515 28.6089 6.79899 24.6106 6.79962 20.4949C6.80131 13.9861 6.80152 7.47869 6.80025 0.972776C6.80025 0.964068 6.80378 0.955716 6.81006 0.949558C6.81633 0.943401 6.82484 0.939941 6.83372 0.939941H9.4043C9.41268 0.939941 9.42071 0.943268 9.42663 0.949189C9.43255 0.955109 9.43587 0.96314 9.43587 0.971513C9.43756 7.74894 9.43945 14.5316 9.44156 21.3196Z" fill="#A0ABBB"/>
<path d="M35.7585 12.8021L31.6459 23.5953C31.6444 23.5992 31.6417 23.6026 31.6382 23.605C31.6347 23.6073 31.6306 23.6086 31.6264 23.6085H30.2662C30.2621 23.6085 30.2581 23.6071 30.2548 23.6048C30.2514 23.6024 30.2488 23.5991 30.2473 23.5953L21.1811 0.968357C21.1799 0.965185 21.1794 0.961759 21.1798 0.958377C21.1802 0.954995 21.1814 0.951761 21.1834 0.948958C21.1853 0.946154 21.1879 0.943866 21.1909 0.942295C21.1939 0.940723 21.1973 0.939915 21.2007 0.939942H23.9373C23.9415 0.940035 23.9454 0.941344 23.9488 0.943703C23.9522 0.946063 23.9548 0.949368 23.9563 0.953202L31.0038 18.7667C31.0053 18.7707 31.008 18.7741 31.0115 18.7765C31.0151 18.7789 31.0193 18.7801 31.0236 18.7801C31.0278 18.78 31.032 18.7786 31.0354 18.7761C31.0389 18.7736 31.0415 18.7701 31.0429 18.7661L34.4615 9.55843C34.4632 9.55348 34.463 9.54807 34.4609 9.54328L31.0353 0.968357C31.0341 0.965185 31.0336 0.961759 31.034 0.958377C31.0344 0.954995 31.0356 0.951761 31.0376 0.948958C31.0395 0.946154 31.0421 0.943866 31.0451 0.942295C31.0481 0.940723 31.0515 0.939915 31.0549 0.939942H33.7909C33.795 0.940035 33.799 0.941344 33.8024 0.943703C33.8058 0.946063 33.8084 0.949368 33.8099 0.953202L35.7964 5.90935C35.7978 5.91337 35.8005 5.91684 35.804 5.91929C35.8075 5.92173 35.8117 5.92305 35.8159 5.92305C35.8202 5.92305 35.8244 5.92173 35.8279 5.91929C35.8314 5.91684 35.834 5.91337 35.8355 5.90935L37.6654 0.953834C37.6669 0.949782 37.6695 0.946273 37.673 0.943786C37.6765 0.941299 37.6807 0.939957 37.685 0.939942H40.2297C40.2331 0.939915 40.2365 0.940723 40.2395 0.942295C40.2425 0.943866 40.2451 0.946154 40.247 0.948958C40.2489 0.951761 40.2502 0.954995 40.2505 0.958377C40.2509 0.961759 40.2505 0.965185 40.2493 0.968357L37.0946 9.23072C37.0927 9.23559 37.0927 9.241 37.0946 9.24587L40.858 18.7667C40.8595 18.7707 40.8622 18.7741 40.8658 18.7765C40.8693 18.7789 40.8735 18.7801 40.8778 18.7801C40.882 18.78 40.8862 18.7786 40.8896 18.7761C40.8931 18.7736 40.8957 18.7701 40.8971 18.7661L47.519 0.953834C47.5204 0.949782 47.5231 0.946273 47.5266 0.943786C47.5301 0.941299 47.5343 0.939957 47.5386 0.939942H50.0833C50.0867 0.939915 50.09 0.940723 50.0931 0.942295C50.0961 0.943866 50.0987 0.946154 50.1006 0.948958C50.1025 0.951761 50.1037 0.954995 50.1041 0.958377C50.1045 0.961759 50.1041 0.965185 50.1028 0.968357L41.4995 23.5953C41.498 23.5992 41.4953 23.6026 41.4918 23.605C41.4883 23.6073 41.4842 23.6086 41.4799 23.6085H40.1192C40.1151 23.6085 40.1111 23.6071 40.1077 23.6048C40.1043 23.6024 40.1017 23.5991 40.1002 23.5953L35.797 12.8021C35.7954 12.7983 35.7928 12.7951 35.7893 12.7928C35.7859 12.7905 35.7819 12.7892 35.7777 12.7892C35.7736 12.7892 35.7696 12.7905 35.7662 12.7928C35.7627 12.7951 35.7601 12.7983 35.7585 12.8021Z" fill="#A0ABBB"/>
<path d="M68.0145 3.26616V23.5561C68.0145 23.5659 68.0106 23.5752 68.0038 23.582C67.9969 23.5889 67.9876 23.5928 67.9779 23.5928H65.4306C65.4209 23.5928 65.4116 23.5889 65.4047 23.582C65.3979 23.5752 65.394 23.5659 65.394 23.5561V3.26489C65.394 3.25518 65.3902 3.24587 65.3833 3.239C65.3764 3.23213 65.3671 3.22827 65.3574 3.22827L58.2007 3.22953C58.1959 3.22953 58.1911 3.22859 58.1867 3.22675C58.1822 3.22491 58.1782 3.22221 58.1748 3.21881C58.1714 3.21541 58.1687 3.21137 58.1668 3.20693C58.165 3.20248 58.1641 3.19772 58.1641 3.19291V0.976565C58.1641 0.971755 58.165 0.966993 58.1668 0.96255C58.1687 0.958106 58.1714 0.954069 58.1748 0.950668C58.1782 0.947267 58.1822 0.94457 58.1867 0.942729C58.1911 0.940889 58.1959 0.939941 58.2007 0.939941H75.2078C75.2175 0.939941 75.2268 0.9438 75.2337 0.950668C75.2406 0.957536 75.2444 0.966852 75.2444 0.976565V3.19165C75.2444 3.20136 75.2406 3.21068 75.2337 3.21754C75.2268 3.22441 75.2175 3.22827 75.2078 3.22827L68.0511 3.22953C68.0414 3.22953 68.0321 3.23339 68.0252 3.24026C68.0183 3.24713 68.0145 3.25644 68.0145 3.26616Z" fill="#A0ABBB"/>
</g>
<defs>
<clipPath id="clip0_6222_19059">
<rect width="75.7725" height="31.3193" fill="white" transform="translate(0.0546875 0.340332)"/>
</clipPath>
</defs>
</svg>
