<svg width="175" height="36" viewBox="0 0 175 36" fill="none" xmlns="http://www.w3.org/2000/svg">
<path d="M52.9845 19.4441C52.8913 18.3805 52.896 17.3034 52.9986 16.2127C53.1377 16.2351 53.2097 16.2245 53.2144 16.1809C54.6541 2.61503 69.7728 -4.34829 81.0712 3.05543C82.801 4.18857 84.256 5.58171 85.4363 7.23484C85.4493 7.25274 85.4564 7.27419 85.4568 7.29628C85.4572 7.31838 85.4507 7.34006 85.4384 7.35838C85.426 7.37671 85.4084 7.39081 85.3877 7.39876C85.3671 7.40672 85.3446 7.40815 85.3231 7.40286C84.4824 7.19298 83.6311 7.0733 82.7691 7.04382C78.5349 6.89702 74.283 9.56243 72.5585 13.4217C72.3392 13.9134 72.1399 14.4128 71.9607 14.9198C71.0357 17.5498 71.5486 20.8626 72.8574 23.2025C74.6066 26.3331 78.0538 28.804 81.7734 28.9225C83.0946 28.9649 84.1558 29.0038 85.4186 28.528C85.4402 28.5195 85.4639 28.5182 85.4863 28.5244C85.5086 28.5306 85.5283 28.5439 85.5423 28.5624C85.5564 28.5808 85.564 28.6034 85.564 28.6266C85.564 28.6497 85.5564 28.6723 85.5424 28.6908C83.1936 31.8768 80.145 34.0446 76.3966 35.1942C75.6855 35.4118 74.7004 35.5656 73.8514 35.769C73.4882 35.8575 73.1451 35.9076 72.822 35.9194C71.1618 35.9795 69.8813 35.963 68.9805 35.8699C68.3131 35.8015 67.2483 35.5715 65.7862 35.1801C60.8109 33.8465 56.2954 29.5008 54.4312 24.7855C53.8311 23.2703 53.4007 21.5199 53.1401 19.5343C53.1366 19.5036 53.1124 19.4488 53.0676 19.3698C53.0346 19.312 53.0116 19.3156 52.9986 19.3804L52.9845 19.4441ZM62.9121 11.4195C62.8225 11.4066 62.7217 11.4178 62.6096 11.4532C62.5495 11.472 62.5194 11.5133 62.5194 11.577L62.5071 13.9063C62.5072 13.9249 62.5126 13.9429 62.5226 13.9583C62.5327 13.9737 62.5469 13.9858 62.5637 13.993C62.5979 14.0071 62.6256 14.013 62.6468 14.0107C62.6161 14.0413 62.5648 14.0555 62.4929 14.0531C62.4139 14.0508 62.3986 14.0814 62.4469 14.1451C62.576 14.3113 64.702 14.2017 65.0752 14.1752C65.133 14.1704 65.1925 14.1156 65.2538 14.0107H65.6093C65.6659 14.0095 65.6942 14.0372 65.6942 14.0938V27.9532C65.6942 28.1195 65.7774 28.202 65.9436 28.2008L69.4615 28.1849C69.5441 28.1837 69.5853 28.1419 69.5853 28.0593V7.86272C69.5852 7.852 69.5815 7.84163 69.5747 7.83329C69.568 7.82495 69.5587 7.81912 69.5482 7.81673C69.5246 7.81202 69.5063 7.81261 69.4934 7.8185L69.5394 7.76898C69.5547 7.75247 69.5517 7.74009 69.5305 7.73184C68.8195 7.44885 67.5284 7.59388 66.7342 7.59742C66.6128 7.59809 66.4957 7.6426 66.4049 7.72265C66.3141 7.8027 66.2558 7.91284 66.2408 8.03251C66.0097 9.84836 64.9355 10.9043 63.0182 11.2002C62.8803 11.2215 62.8926 11.3081 62.9121 11.4195Z" fill="#A0ABBB"/>
<path d="M158.292 5.19061L154.528 5.19718C154.502 5.19723 154.481 5.21865 154.481 5.24502L154.487 8.78946C154.487 8.81583 154.508 8.83718 154.535 8.83713L158.298 8.83056C158.325 8.83052 158.346 8.8091 158.346 8.78273L158.34 5.23828C158.34 5.21191 158.318 5.19057 158.292 5.19061Z" fill="#A0ABBB"/>
<path d="M147.853 11.757V5.29595C147.853 5.237 147.883 5.20752 147.942 5.20752H151.583C151.661 5.20752 151.7 5.24643 151.7 5.32425V25.505C151.7 25.5651 151.67 25.5952 151.61 25.5952L148.083 25.5828C148.07 25.5828 148.056 25.5801 148.044 25.5748C148.032 25.5695 148.021 25.5618 148.011 25.5521C148.002 25.5424 147.994 25.5309 147.989 25.5182C147.984 25.5056 147.982 25.492 147.982 25.4784L148.005 24.1625C148.006 24.1451 148.001 24.1279 147.992 24.1132C147.983 24.0984 147.969 24.0867 147.953 24.0795C147.937 24.0724 147.92 24.07 147.903 24.0728C147.885 24.0756 147.869 24.0835 147.857 24.0953C145.274 26.5078 141.362 26.4406 138.727 24.0175C134.049 19.7143 136.109 10.8089 142.812 10.1864C144.628 10.0178 146.268 10.5596 147.733 11.8118C147.813 11.8802 147.853 11.8619 147.853 11.757ZM143.912 22.3336C144.943 22.3408 145.935 21.893 146.669 21.0888C147.403 20.2846 147.82 19.1898 147.828 18.0452C147.832 17.4785 147.736 16.9166 147.544 16.3917C147.352 15.8668 147.07 15.389 146.711 14.9858C146.353 14.5825 145.927 14.2617 145.457 14.0415C144.987 13.8213 144.483 13.7062 143.973 13.7026C142.942 13.6954 141.951 14.1432 141.216 14.9474C140.482 15.7516 140.065 16.8464 140.057 17.991C140.053 18.5577 140.149 19.1196 140.341 19.6445C140.533 20.1695 140.816 20.6472 141.174 21.0504C141.532 21.4537 141.958 21.7746 142.428 21.9947C142.898 22.2149 143.402 22.33 143.912 22.3336Z" fill="#A0ABBB"/>
<path d="M98.3588 11.7797C100.697 9.47507 104.496 9.49098 106.654 12.121C106.66 12.1286 106.668 12.1348 106.677 12.1391C106.685 12.1434 106.695 12.1459 106.705 12.1462C106.715 12.1465 106.724 12.1448 106.734 12.141C106.743 12.1373 106.751 12.1317 106.758 12.1246C108.139 10.7226 109.744 10.0446 111.574 10.0906C115.49 10.1896 117.721 12.9205 117.731 16.7921C117.74 19.6951 117.742 22.5981 117.74 25.5011C117.74 25.5613 117.709 25.5913 117.648 25.5913H113.953C113.931 25.5913 113.909 25.5824 113.893 25.5665C113.877 25.5505 113.868 25.5289 113.868 25.5064C113.899 22.535 113.904 19.6167 113.883 16.7514C113.874 15.5641 113.479 14.7121 112.698 14.1957C111.185 13.1964 108.982 13.796 108.329 15.5753C108.165 16.021 108.089 16.7538 108.101 17.7737C108.122 19.5495 108.137 21.8901 108.147 24.7954C108.148 25.0749 108.134 25.3131 108.104 25.51C108.096 25.5642 108.064 25.5913 108.009 25.5913H104.333C104.3 25.5913 104.269 25.5785 104.245 25.5557C104.222 25.5329 104.208 25.5018 104.208 25.4693C104.123 21.8842 104.224 18.8367 104.208 16.9248C104.197 15.4479 103.773 14.2258 102.197 13.8137C100.835 13.4564 99.275 14.1214 98.7267 15.4196C98.5522 15.8335 98.4644 16.5321 98.4632 17.5155C98.4597 20.185 98.4597 22.8552 98.4632 25.5259C98.4632 25.5432 98.4563 25.5599 98.444 25.5722C98.4317 25.5844 98.4151 25.5913 98.3978 25.5913H94.6817C94.6075 25.5913 94.5703 25.5548 94.5703 25.4817V10.5204C94.5703 10.5098 94.5724 10.4993 94.5765 10.4895C94.5806 10.4797 94.5867 10.4709 94.5942 10.4634C94.6018 10.456 94.6108 10.4502 94.6207 10.4463C94.6305 10.4424 94.6411 10.4405 94.6517 10.4408L98.2138 10.4814C98.268 10.4814 98.2946 10.5086 98.2934 10.5628L98.281 11.7461C98.2798 11.8203 98.3058 11.8315 98.3588 11.7797Z" fill="#A0ABBB"/>
<path d="M123.302 19.5973C123.993 21.7598 125.453 22.7279 127.683 22.5015C128.743 22.393 129.585 21.8412 130.21 20.846C130.24 20.7977 130.283 20.7735 130.341 20.7735H134.31C134.376 20.7735 134.398 20.8048 134.377 20.8672C133.152 24.3516 130.426 25.9593 126.744 25.8832C122.004 25.786 118.602 21.0706 119.488 16.5517C120.302 12.397 124.011 9.60956 128.254 10.1915C132.9 10.8282 135.099 15.0147 134.685 19.3975C134.68 19.4529 134.65 19.4806 134.595 19.4806L123.349 19.5301C123.304 19.5301 123.288 19.5525 123.302 19.5973ZM130.808 16.2616C129.752 12.588 124.466 12.4996 123.365 16.2527C123.345 16.3188 123.37 16.3518 123.44 16.3518H130.739C130.802 16.3518 130.825 16.3217 130.808 16.2616Z" fill="#A0ABBB"/>
<path d="M170.88 24.2833C169.741 25.2219 168.39 25.7342 166.826 25.8203C163.54 26.0007 159.772 24.3682 160.22 20.4346C160.883 14.6015 169.893 17.6861 170.657 14.8809C170.774 14.4529 170.621 14.0821 170.199 13.7684C168.605 12.587 165.485 13.1193 164.587 14.9871C164.56 15.0425 164.515 15.0702 164.454 15.0702L160.807 15.0667C160.742 15.0667 160.716 15.0348 160.729 14.9711C161.334 11.952 164.008 10.3867 166.9 10.1462C169.84 9.90032 173.243 10.6131 174.194 13.7331C174.375 14.325 174.467 15.4947 174.47 17.2421C174.474 19.3044 174.474 21.3655 174.472 23.4255C174.471 23.8841 174.601 24.5716 174.863 25.4877C174.883 25.5585 174.856 25.5939 174.782 25.5939L171.387 25.5903C171.358 25.5904 171.329 25.5805 171.306 25.5623C171.283 25.544 171.266 25.5184 171.258 25.4895L170.952 24.3063C170.941 24.2615 170.916 24.2538 170.88 24.2833ZM165.759 19.4618C164.01 19.766 163.234 21.7877 165.362 22.274C166.676 22.5735 167.933 22.4816 169.131 21.9981C170.841 21.3066 170.966 20.0773 170.821 18.4254C170.816 18.3535 170.78 18.3328 170.715 18.3635C169.078 19.1276 167.491 19.1612 165.759 19.4618Z" fill="#A0ABBB"/>
<path d="M16.5517 17.998C16.5517 19.0305 16.3484 20.0528 15.9533 21.0066C15.5582 21.9605 14.9791 22.8271 14.2491 23.5572C13.519 24.2872 12.6524 24.8663 11.6985 25.2614C10.7447 25.6565 9.72236 25.8598 8.68993 25.8598C6.60485 25.8598 4.60517 25.0315 3.1308 23.5572C1.65642 22.0828 0.828125 20.0831 0.828125 17.998C0.828125 15.913 1.65642 13.9133 3.1308 12.4389C4.60517 10.9645 6.60485 10.1362 8.68993 10.1362C9.72236 10.1362 10.7447 10.3396 11.6985 10.7347C12.6524 11.1298 13.519 11.7089 14.2491 12.4389C14.9791 13.1689 15.5582 14.0356 15.9533 14.9895C16.3484 15.9433 16.5517 16.9656 16.5517 17.998ZM16.359 18.0104C16.359 15.9765 15.551 14.0258 14.1127 12.5876C12.6745 11.1494 10.7239 10.3414 8.68993 10.3414C6.65598 10.3414 4.70534 11.1494 3.26712 12.5876C1.8289 14.0258 1.02091 15.9765 1.02091 18.0104C1.02091 20.0444 1.8289 21.995 3.26712 23.4332C4.70534 24.8715 6.65598 25.6794 8.68993 25.6794C10.7239 25.6794 12.6745 24.8715 14.1127 23.4332C15.551 21.995 16.359 20.0444 16.359 18.0104Z" fill="#A0ABBB"/>
<path d="M16.3615 18.0103C16.3615 20.0443 15.5535 21.9949 14.1153 23.4331C12.6771 24.8714 10.7264 25.6794 8.69246 25.6794C6.65851 25.6794 4.70786 24.8714 3.26964 23.4331C1.83142 21.9949 1.02344 20.0443 1.02344 18.0103C1.02344 15.9764 1.83142 14.0257 3.26964 12.5875C4.70786 11.1493 6.65851 10.3413 8.69246 10.3413C10.7264 10.3413 12.6771 11.1493 14.1153 12.5875C15.5535 14.0257 16.3615 15.9764 16.3615 18.0103ZM8.16185 13.456C4.99591 14.0909 3.08749 17.2056 4.7253 20.2088C5.431 21.5017 6.72214 22.3418 8.176 22.5435C10.9281 22.9255 13.765 20.1469 13.1902 17.3435C12.7563 15.2258 11.4386 13.9394 9.23721 13.4843C8.91178 13.4171 8.45015 13.3994 8.16185 13.456Z" fill="#A0ABBB"/>
<path d="M31.8252 16.1545L31.9136 25.4984C31.9148 25.5609 31.8841 25.5922 31.8217 25.5922H28.1216C28.0603 25.5922 28.0296 25.5615 28.0296 25.5002L28.0349 16.2128C28.1021 15.233 27.759 14.5072 27.0055 14.0356C26.4006 13.6559 25.6979 13.4955 24.8973 13.5545C22.9287 13.6978 22.0337 15.3533 21.9931 17.1803C21.9412 19.5492 21.9913 22.0507 22.1434 24.6848C22.2943 24.8735 22.3321 25.1453 22.2566 25.5002C22.2436 25.5615 22.2059 25.5922 22.1434 25.5922H18.4752C18.4162 25.5922 18.3867 25.5627 18.3867 25.5037V10.5601C18.3867 10.5012 18.4156 10.4717 18.4734 10.4717L21.9736 10.4664C22.0479 10.4664 22.0862 10.5029 22.0886 10.576L22.1293 11.8459C22.3486 11.8336 22.4459 11.8831 22.5997 11.7151C23.2341 11.0241 23.8926 10.6132 24.5753 10.4823C27.713 9.88094 30.5004 11.211 31.3105 14.3256C31.4638 14.9164 31.6354 15.526 31.8252 16.1545Z" fill="#A0ABBB"/>
<path d="M46.5143 12.3476C48.214 14.0349 48.8861 16.6172 48.6385 18.9058C48.6307 18.9765 48.5972 19.0419 48.5444 19.0895C48.4916 19.1371 48.4231 19.1636 48.352 19.1641L37.6231 19.1835C37.5678 19.1835 37.5132 19.1964 37.4636 19.2212C37.4141 19.2459 37.371 19.2818 37.3377 19.3261C37.3045 19.3703 37.2819 19.4217 37.2719 19.4762C37.2619 19.5306 37.2647 19.5867 37.28 19.6398C38.2333 22.9579 42.4906 23.7184 44.5493 20.9257C44.587 20.875 44.6366 20.8502 44.6979 20.8514L48.0336 20.8638C48.0615 20.8636 48.0891 20.8702 48.1139 20.8829C48.1388 20.8957 48.1602 20.9142 48.1765 20.9371C48.1927 20.9599 48.2033 20.9864 48.2074 21.0142C48.2115 21.0421 48.2089 21.0706 48.1999 21.0972C47.0272 24.502 43.55 25.9894 40.1347 25.5243C36.6044 25.045 34.0274 21.9834 33.7816 18.5362C33.6012 15.9893 34.6588 13.3964 36.6415 11.8028C39.5121 9.49821 43.8418 9.69276 46.5143 12.3476ZM37.5542 16.0936C37.54 16.1125 37.5318 16.1349 37.5294 16.1608C37.5247 16.2127 37.5489 16.2387 37.6019 16.2387L45.133 16.2404C44.8158 14.783 44.0022 13.8344 42.6922 13.3946C40.3805 12.6182 38.3342 13.6918 37.3614 15.892C37.3541 15.9092 37.3506 15.9279 37.3512 15.9465C37.3517 15.9652 37.3563 15.9835 37.3645 16.0001C37.3727 16.0168 37.3845 16.0314 37.3989 16.043C37.4133 16.0545 37.4301 16.0628 37.448 16.0671L37.5542 16.0936Z" fill="#A0ABBB"/>
<path d="M158.28 10.4541H154.565C154.518 10.4541 154.48 10.4921 154.48 10.539V25.5056C154.48 25.5525 154.518 25.5905 154.565 25.5905H158.28C158.326 25.5905 158.365 25.5525 158.365 25.5056V10.539C158.365 10.4921 158.326 10.4541 158.28 10.4541Z" fill="#A0ABBB"/>
<path d="M82.4703 24.8044C86.2272 24.8044 89.2727 21.7589 89.2727 18.0021C89.2727 14.2452 86.2272 11.1997 82.4703 11.1997C78.7135 11.1997 75.668 14.2452 75.668 18.0021C75.668 21.7589 78.7135 24.8044 82.4703 24.8044Z" fill="#A0ABBB"/>
<path d="M28.0265 16.2137C27.6845 14.5936 26.8019 13.7705 25.3787 13.7446C22.9822 13.7021 22.2234 15.3435 22.2411 17.4394C22.2611 19.8424 22.2258 22.2579 22.135 24.6857C21.9829 22.0515 21.9328 19.55 21.9846 17.1811C22.0253 15.3541 22.9203 13.6986 24.8888 13.5553C25.6894 13.4964 26.3922 13.6567 26.9971 14.0364C27.7506 14.5081 28.0937 15.2338 28.0265 16.2137Z" fill="#A0ABBB"/>
</svg>
