<svg width="92" height="78" viewBox="0 0 92 78" fill="none" xmlns="http://www.w3.org/2000/svg">
<g clip-path="url(#clip0_6222_19146)">
<path fill-rule="evenodd" clip-rule="evenodd" d="M0.402344 0H91.4023V78H0.402344V0Z" fill="white"/>
<path fill-rule="evenodd" clip-rule="evenodd" d="M31.6019 21.4102H13.0479C13.0479 21.4102 13.867 22.024 13.9685 22.5011C14.1219 23.2259 13.7376 23.9465 13.7376 23.9465L4.04732 50.528C4.04732 50.528 3.61393 51.4907 3.07055 51.9205C2.63149 52.2681 1.73828 52.5699 1.73828 52.5699H15.347C15.347 52.5699 14.45 52.1746 14.1984 51.7133C13.9756 51.3046 14.1045 50.5616 14.1045 50.5616L17.4686 40.65C17.4686 40.65 33.4992 42.6724 38.359 32.3873C42.4403 23.7527 34.4326 21.4102 31.6019 21.4102ZM29.8985 31.8608C26.6236 40.0964 18.2023 38.6518 18.2023 38.6518L23.5125 23.8183H26.6033C26.6038 23.8183 33.2797 23.3574 29.8985 31.8608Z" fill="#A0ABBB"/>
<path fill-rule="evenodd" clip-rule="evenodd" d="M75.9847 33.6462C71.1476 34.3163 63.9046 36.6099 63.9046 36.6099L63.0591 39.7779C63.0591 39.7779 65.5848 38.7614 67.2905 38.3374C68.789 37.9655 71.2132 37.664 71.2132 37.664L67.1329 50.2642C67.1329 50.2642 55.675 52.4376 61.9841 35.6881C63.3801 31.9806 68.1601 25.9719 72.9807 24.609C78.3953 23.0782 83.9859 26.5853 83.9859 26.5853L85.5995 22.4356C85.5995 22.4356 79.551 21.0751 75.6254 21.2163C67.8637 21.4955 62.7664 23.2558 57.3646 28.0409C50.5182 34.1075 51.1381 43.1111 51.1381 43.1111L48.5241 44.8608L45.9611 46.5766C45.9611 46.5766 44.3205 44.4246 43.7446 42.8808C43.2795 41.6361 43.0567 39.5813 43.0567 39.5813C43.0567 39.5813 47.4359 37.7069 49.6737 36.1494C54.1298 33.0469 52.5209 29.424 49.5528 29.0557C46.123 28.6301 44.4423 28.8247 41.9171 30.5445C38.0496 33.1788 37.9 38.7181 37.9 38.7181C37.9 38.7181 25.2047 41.3589 26.8033 49.2323C27.2758 51.5615 31.3841 52.9532 34.7416 52.9001C39.9749 52.7019 43.5435 50.6911 43.5435 50.6911C43.5435 50.6911 46.7693 54.5123 54.829 56.1997C65.2114 58.3731 75.6061 53.8871 75.6061 53.8871L76.2156 52.504C76.2156 52.504 68.5237 56.0022 59.7908 54.5762C51.6801 53.2526 47.4369 48.6771 47.4369 48.6771C47.4369 48.6771 48.8678 47.7343 49.753 47.0998C50.5442 46.5325 51.7429 45.6062 51.7429 45.6062C51.7429 45.6062 53.3022 49.7721 57.5242 51.4681C66.825 55.2047 76.9072 50.8578 76.9072 50.8578L81.834 36.8737C81.834 36.8737 83.8938 36.7054 85.2143 36.7114C86.6598 36.7175 88.9117 36.9397 88.9117 36.9397L90.0641 33.2439C90.0637 33.2439 81.3775 32.8988 75.9847 33.6462ZM37.0544 50.0008C35.0565 50.1084 32.8631 49.4071 32.3589 47.8209C30.9752 43.4668 38.2068 41.2934 38.2068 41.2934C38.2068 41.2934 38.738 43.7464 39.4234 45.2165C40.1014 46.6709 41.665 48.7423 41.665 48.7423C41.665 48.7423 39.4513 49.8729 37.0544 50.0008ZM47.7432 31.0046C49.1071 31.1762 48.7502 33.7781 46.8774 34.9415C45.4167 36.2728 42.9023 36.8733 42.9023 36.8733C42.9023 36.8733 42.5936 30.3571 47.7432 31.0046Z" fill="#A0ABBB"/>
</g>
<defs>
<clipPath id="clip0_6222_19146">
<rect width="91" height="78" fill="white" transform="translate(0.402344)"/>
</clipPath>
</defs>
</svg>
