<svg width="488" height="251" viewBox="0 0 488 251" fill="none" xmlns="http://www.w3.org/2000/svg">
<line x1="1.66016" y1="9.16699" x2="481.66" y2="9.16699" stroke="#E7EAEE"/>
<line x1="1.66016" y1="69.167" x2="481.66" y2="69.167" stroke="#E7EAEE"/>
<line x1="1.66016" y1="129.167" x2="481.66" y2="129.167" stroke="#E7EAEE"/>
<line x1="1.66016" y1="189.167" x2="481.66" y2="189.167" stroke="#E7EAEE"/>
<line x1="1.66016" y1="249.167" x2="481.66" y2="249.167" stroke="#E7EAEE"/>
<line x1="1.16016" y1="250.167" x2="1.16016" y2="0.166992" stroke="#E7EAEE"/>
<line x1="49.1602" y1="250.167" x2="49.1602" y2="0.166992" stroke="#E7EAEE"/>
<line x1="97.1602" y1="250.167" x2="97.1602" y2="0.166992" stroke="#E7EAEE"/>
<line x1="145.16" y1="250.167" x2="145.16" y2="0.166992" stroke="#E7EAEE"/>
<line x1="193.16" y1="250.167" x2="193.16" y2="0.166992" stroke="#E7EAEE"/>
<line x1="241.16" y1="250.167" x2="241.16" y2="0.166992" stroke="#E7EAEE"/>
<line x1="289.16" y1="250.167" x2="289.16" y2="0.166992" stroke="#E7EAEE"/>
<line x1="337.16" y1="250.167" x2="337.16" y2="0.166992" stroke="#E7EAEE"/>
<line x1="385.16" y1="250.167" x2="385.16" y2="0.166992" stroke="#E7EAEE"/>
<line x1="433.16" y1="250.167" x2="433.16" y2="0.166992" stroke="#E7EAEE"/>
<path d="M21.25 224.508L69.1992 204.835C70.7304 204.207 72.001 203.074 72.8003 201.625L119.42 117.098C121.503 113.322 126.399 112.184 129.934 114.653L167.68 141.026C171.235 143.51 176.161 142.343 178.223 138.528L225.26 51.5397C225.815 50.5133 226.609 49.6358 227.575 48.9816L272.715 18.4167C275.92 16.2466 280.264 16.9727 282.589 20.0671L326.274 78.2108C326.581 78.6186 326.929 78.993 327.314 79.3278L391.99 135.576C392.566 136.078 393.218 136.485 393.922 136.783L476.84 171.913" stroke="url(#paint0_linear_6487_14240)" stroke-width="3" stroke-linecap="round" stroke-linejoin="round"/>
<g filter="url(#filter0_dd_6487_14240)">
<rect x="271.094" y="10" width="16" height="16" rx="8" fill="#9F8500"/>
<rect x="272.334" y="11.2404" width="13.5192" height="13.5192" rx="6.75962" stroke="white" stroke-width="2.48077"/>
</g>
<g filter="url(#filter1_dd_6487_14240)">
<rect x="317.277" y="67.4746" width="16" height="16" rx="8" fill="#9F8500"/>
<rect x="318.518" y="68.715" width="13.5192" height="13.5192" rx="6.75962" stroke="white" stroke-width="2.48077"/>
</g>
<g filter="url(#filter2_dd_6487_14240)">
<rect x="384.469" y="127.689" width="16" height="16" rx="8" fill="#9F8500"/>
<rect x="385.709" y="128.93" width="13.5192" height="13.5192" rx="6.75962" stroke="white" stroke-width="2.48077"/>
</g>
<g filter="url(#filter3_dd_6487_14240)">
<rect x="466.34" y="163.269" width="16" height="16" rx="8" fill="#9F8500"/>
<rect x="467.58" y="164.509" width="13.5192" height="13.5192" rx="6.75962" stroke="white" stroke-width="2.48077"/>
</g>
<g filter="url(#filter4_dd_6487_14240)">
<rect x="218.617" y="42.8438" width="16" height="16" rx="8" fill="#FFD400"/>
<rect x="219.858" y="44.0841" width="13.5192" height="13.5192" rx="6.75962" stroke="white" stroke-width="2.48077"/>
</g>
<g filter="url(#filter5_dd_6487_14240)">
<rect x="166.113" y="135.9" width="16" height="16" rx="8" fill="#FFD400"/>
<rect x="167.354" y="137.141" width="13.5192" height="13.5192" rx="6.75962" stroke="white" stroke-width="2.48077"/>
</g>
<g filter="url(#filter6_dd_6487_14240)">
<rect x="115.734" y="103.056" width="16" height="16" rx="8" fill="#FFD400"/>
<rect x="116.975" y="104.296" width="13.5192" height="13.5192" rx="6.75962" stroke="white" stroke-width="2.48077"/>
</g>
<g filter="url(#filter7_dd_6487_14240)">
<rect x="63.2461" y="193.371" width="16" height="16" rx="8" fill="#FFD400"/>
<rect x="64.4865" y="194.611" width="13.5192" height="13.5192" rx="6.75962" stroke="white" stroke-width="2.48077"/>
</g>
<g filter="url(#filter8_dd_6487_14240)">
<rect x="8.66016" y="218.008" width="16" height="16" rx="8" fill="#FFD400"/>
<rect x="9.90054" y="219.248" width="13.5192" height="13.5192" rx="6.75962" stroke="white" stroke-width="2.48077"/>
</g>
<path d="M233.22 136L238.46 121.1H241.38L246.62 136H244.1L242.96 132.66H236.9L235.74 136H233.22ZM237.58 130.56H242.24L239.6 122.76H240.26L237.58 130.56ZM252.977 136.24C251.937 136.24 251.004 135.993 250.177 135.5C249.364 134.993 248.717 134.313 248.237 133.46C247.77 132.607 247.537 131.647 247.537 130.58C247.537 129.513 247.777 128.553 248.257 127.7C248.737 126.847 249.384 126.173 250.197 125.68C251.01 125.187 251.93 124.94 252.957 124.94C253.824 124.94 254.59 125.113 255.257 125.46C255.924 125.807 256.45 126.287 256.837 126.9L256.497 127.42V120.86H258.737V136H256.597V133.8L256.857 134.22C256.484 134.873 255.95 135.373 255.257 135.72C254.564 136.067 253.804 136.24 252.977 136.24ZM253.197 134.14C253.824 134.14 254.384 133.987 254.877 133.68C255.384 133.373 255.777 132.953 256.057 132.42C256.35 131.873 256.497 131.26 256.497 130.58C256.497 129.9 256.35 129.293 256.057 128.76C255.777 128.227 255.384 127.807 254.877 127.5C254.384 127.193 253.824 127.04 253.197 127.04C252.57 127.04 252.004 127.193 251.497 127.5C250.99 127.807 250.597 128.227 250.317 128.76C250.037 129.293 249.897 129.9 249.897 130.58C249.897 131.26 250.037 131.873 250.317 132.42C250.597 132.953 250.984 133.373 251.477 133.68C251.984 133.987 252.557 134.14 253.197 134.14ZM265.492 136V121.1H275.192V123.2H267.852V127.68H274.392V129.78H267.852V136H265.492ZM279.883 136.24C279.15 136.24 278.503 136.113 277.943 135.86C277.397 135.593 276.97 135.233 276.663 134.78C276.357 134.313 276.203 133.767 276.203 133.14C276.203 132.553 276.33 132.027 276.583 131.56C276.85 131.093 277.257 130.7 277.803 130.38C278.35 130.06 279.037 129.833 279.863 129.7L283.623 129.08V130.86L280.303 131.44C279.703 131.547 279.263 131.74 278.983 132.02C278.703 132.287 278.563 132.633 278.563 133.06C278.563 133.473 278.717 133.813 279.023 134.08C279.343 134.333 279.75 134.46 280.243 134.46C280.857 134.46 281.39 134.327 281.843 134.06C282.31 133.793 282.67 133.44 282.923 133C283.177 132.547 283.303 132.047 283.303 131.5V128.72C283.303 128.187 283.103 127.753 282.703 127.42C282.317 127.073 281.797 126.9 281.143 126.9C280.543 126.9 280.017 127.06 279.563 127.38C279.123 127.687 278.797 128.087 278.583 128.58L276.703 127.64C276.903 127.107 277.23 126.64 277.683 126.24C278.137 125.827 278.663 125.507 279.263 125.28C279.877 125.053 280.523 124.94 281.203 124.94C282.057 124.94 282.81 125.1 283.463 125.42C284.13 125.74 284.643 126.187 285.003 126.76C285.377 127.32 285.563 127.973 285.563 128.72V136H283.403V134.04L283.863 134.1C283.61 134.54 283.283 134.92 282.883 135.24C282.497 135.56 282.05 135.807 281.543 135.98C281.05 136.153 280.497 136.24 279.883 136.24ZM292.891 136.12C291.757 136.12 290.877 135.8 290.251 135.16C289.624 134.52 289.311 133.62 289.311 132.46V127.22H287.411V125.18H287.711C288.217 125.18 288.611 125.033 288.891 124.74C289.171 124.447 289.311 124.047 289.311 123.54V122.7H291.571V125.18H294.031V127.22H291.571V132.36C291.571 132.733 291.631 133.053 291.751 133.32C291.871 133.573 292.064 133.773 292.331 133.92C292.597 134.053 292.944 134.12 293.371 134.12C293.477 134.12 293.597 134.113 293.731 134.1C293.864 134.087 293.991 134.073 294.111 134.06V136C293.924 136.027 293.717 136.053 293.491 136.08C293.264 136.107 293.064 136.12 292.891 136.12ZM296.516 136V125.18H298.776V136H296.516ZM296.516 123.7V121.1H298.776V123.7H296.516ZM306.838 140.4C306.052 140.4 305.325 140.273 304.658 140.02C303.992 139.767 303.418 139.413 302.938 138.96C302.458 138.52 302.098 138 301.858 137.4L303.938 136.54C304.125 137.047 304.465 137.467 304.958 137.8C305.465 138.133 306.085 138.3 306.818 138.3C307.392 138.3 307.905 138.187 308.358 137.96C308.812 137.747 309.172 137.427 309.438 137C309.705 136.587 309.838 136.087 309.838 135.5V133.06L310.238 133.52C309.865 134.213 309.345 134.74 308.678 135.1C308.025 135.46 307.285 135.64 306.458 135.64C305.458 135.64 304.558 135.407 303.758 134.94C302.958 134.473 302.325 133.833 301.858 133.02C301.405 132.207 301.178 131.293 301.178 130.28C301.178 129.253 301.405 128.34 301.858 127.54C302.325 126.74 302.952 126.107 303.738 125.64C304.525 125.173 305.425 124.94 306.438 124.94C307.265 124.94 307.998 125.12 308.638 125.48C309.292 125.827 309.825 126.333 310.238 127L309.938 127.56V125.18H312.078V135.5C312.078 136.433 311.852 137.267 311.398 138C310.958 138.747 310.345 139.333 309.558 139.76C308.772 140.187 307.865 140.4 306.838 140.4ZM306.718 133.54C307.318 133.54 307.852 133.4 308.318 133.12C308.785 132.827 309.152 132.44 309.418 131.96C309.698 131.467 309.838 130.913 309.838 130.3C309.838 129.687 309.698 129.133 309.418 128.64C309.138 128.147 308.765 127.76 308.298 127.48C307.832 127.187 307.305 127.04 306.718 127.04C306.105 127.04 305.558 127.187 305.078 127.48C304.598 127.76 304.218 128.147 303.938 128.64C303.672 129.12 303.538 129.673 303.538 130.3C303.538 130.9 303.672 131.447 303.938 131.94C304.218 132.433 304.598 132.827 305.078 133.12C305.558 133.4 306.105 133.54 306.718 133.54ZM318.784 136.24C317.971 136.24 317.257 136.06 316.644 135.7C316.031 135.327 315.551 134.813 315.204 134.16C314.871 133.493 314.704 132.727 314.704 131.86V125.18H316.964V131.66C316.964 132.153 317.064 132.587 317.264 132.96C317.464 133.333 317.744 133.627 318.104 133.84C318.464 134.04 318.877 134.14 319.344 134.14C319.824 134.14 320.244 134.033 320.604 133.82C320.964 133.607 321.244 133.307 321.444 132.92C321.657 132.533 321.764 132.08 321.764 131.56V125.18H324.004V136H321.864V133.88L322.104 134.16C321.851 134.827 321.431 135.34 320.844 135.7C320.257 136.06 319.571 136.24 318.784 136.24ZM331.923 136.24C330.843 136.24 329.883 135.993 329.043 135.5C328.216 134.993 327.569 134.313 327.103 133.46C326.636 132.593 326.403 131.627 326.403 130.56C326.403 129.467 326.636 128.5 327.103 127.66C327.583 126.82 328.223 126.16 329.023 125.68C329.823 125.187 330.729 124.94 331.743 124.94C332.556 124.94 333.283 125.08 333.923 125.36C334.563 125.64 335.103 126.027 335.543 126.52C335.983 127 336.316 127.553 336.543 128.18C336.783 128.807 336.903 129.473 336.903 130.18C336.903 130.353 336.896 130.533 336.883 130.72C336.869 130.907 336.843 131.08 336.803 131.24H328.183V129.44H335.523L334.443 130.26C334.576 129.607 334.529 129.027 334.303 128.52C334.089 128 333.756 127.593 333.303 127.3C332.863 126.993 332.343 126.84 331.743 126.84C331.143 126.84 330.609 126.993 330.143 127.3C329.676 127.593 329.316 128.02 329.063 128.58C328.809 129.127 328.709 129.793 328.763 130.58C328.696 131.313 328.796 131.953 329.063 132.5C329.343 133.047 329.729 133.473 330.223 133.78C330.729 134.087 331.303 134.24 331.943 134.24C332.596 134.24 333.149 134.093 333.603 133.8C334.069 133.507 334.436 133.127 334.703 132.66L336.543 133.56C336.329 134.067 335.996 134.527 335.543 134.94C335.103 135.34 334.569 135.66 333.943 135.9C333.329 136.127 332.656 136.24 331.923 136.24Z" fill="#141414"/>
<defs>
<filter id="filter0_dd_6487_14240" x="266.132" y="7.51923" width="25.9231" height="25.9231" filterUnits="userSpaceOnUse" color-interpolation-filters="sRGB">
<feFlood flood-opacity="0" result="BackgroundImageFix"/>
<feColorMatrix in="SourceAlpha" type="matrix" values="0 0 0 0 0 0 0 0 0 0 0 0 0 0 0 0 0 0 127 0" result="hardAlpha"/>
<feOffset dy="2.48077"/>
<feGaussianBlur stdDeviation="2.48077"/>
<feColorMatrix type="matrix" values="0 0 0 0 0.196487 0 0 0 0 0.196487 0 0 0 0 0.279476 0 0 0 0.06 0"/>
<feBlend mode="multiply" in2="BackgroundImageFix" result="effect1_dropShadow_6487_14240"/>
<feColorMatrix in="SourceAlpha" type="matrix" values="0 0 0 0 0 0 0 0 0 0 0 0 0 0 0 0 0 0 127 0" result="hardAlpha"/>
<feOffset dy="2.48077"/>
<feGaussianBlur stdDeviation="1.24038"/>
<feColorMatrix type="matrix" values="0 0 0 0 0.196487 0 0 0 0 0.196487 0 0 0 0 0.279476 0 0 0 0.06 0"/>
<feBlend mode="multiply" in2="effect1_dropShadow_6487_14240" result="effect2_dropShadow_6487_14240"/>
<feBlend mode="normal" in="SourceGraphic" in2="effect2_dropShadow_6487_14240" result="shape"/>
</filter>
<filter id="filter1_dd_6487_14240" x="312.316" y="64.9938" width="25.9231" height="25.9231" filterUnits="userSpaceOnUse" color-interpolation-filters="sRGB">
<feFlood flood-opacity="0" result="BackgroundImageFix"/>
<feColorMatrix in="SourceAlpha" type="matrix" values="0 0 0 0 0 0 0 0 0 0 0 0 0 0 0 0 0 0 127 0" result="hardAlpha"/>
<feOffset dy="2.48077"/>
<feGaussianBlur stdDeviation="2.48077"/>
<feColorMatrix type="matrix" values="0 0 0 0 0.196487 0 0 0 0 0.196487 0 0 0 0 0.279476 0 0 0 0.06 0"/>
<feBlend mode="multiply" in2="BackgroundImageFix" result="effect1_dropShadow_6487_14240"/>
<feColorMatrix in="SourceAlpha" type="matrix" values="0 0 0 0 0 0 0 0 0 0 0 0 0 0 0 0 0 0 127 0" result="hardAlpha"/>
<feOffset dy="2.48077"/>
<feGaussianBlur stdDeviation="1.24038"/>
<feColorMatrix type="matrix" values="0 0 0 0 0.196487 0 0 0 0 0.196487 0 0 0 0 0.279476 0 0 0 0.06 0"/>
<feBlend mode="multiply" in2="effect1_dropShadow_6487_14240" result="effect2_dropShadow_6487_14240"/>
<feBlend mode="normal" in="SourceGraphic" in2="effect2_dropShadow_6487_14240" result="shape"/>
</filter>
<filter id="filter2_dd_6487_14240" x="379.507" y="125.209" width="25.9231" height="25.9231" filterUnits="userSpaceOnUse" color-interpolation-filters="sRGB">
<feFlood flood-opacity="0" result="BackgroundImageFix"/>
<feColorMatrix in="SourceAlpha" type="matrix" values="0 0 0 0 0 0 0 0 0 0 0 0 0 0 0 0 0 0 127 0" result="hardAlpha"/>
<feOffset dy="2.48077"/>
<feGaussianBlur stdDeviation="2.48077"/>
<feColorMatrix type="matrix" values="0 0 0 0 0.196487 0 0 0 0 0.196487 0 0 0 0 0.279476 0 0 0 0.06 0"/>
<feBlend mode="multiply" in2="BackgroundImageFix" result="effect1_dropShadow_6487_14240"/>
<feColorMatrix in="SourceAlpha" type="matrix" values="0 0 0 0 0 0 0 0 0 0 0 0 0 0 0 0 0 0 127 0" result="hardAlpha"/>
<feOffset dy="2.48077"/>
<feGaussianBlur stdDeviation="1.24038"/>
<feColorMatrix type="matrix" values="0 0 0 0 0.196487 0 0 0 0 0.196487 0 0 0 0 0.279476 0 0 0 0.06 0"/>
<feBlend mode="multiply" in2="effect1_dropShadow_6487_14240" result="effect2_dropShadow_6487_14240"/>
<feBlend mode="normal" in="SourceGraphic" in2="effect2_dropShadow_6487_14240" result="shape"/>
</filter>
<filter id="filter3_dd_6487_14240" x="461.378" y="160.788" width="25.9231" height="25.9231" filterUnits="userSpaceOnUse" color-interpolation-filters="sRGB">
<feFlood flood-opacity="0" result="BackgroundImageFix"/>
<feColorMatrix in="SourceAlpha" type="matrix" values="0 0 0 0 0 0 0 0 0 0 0 0 0 0 0 0 0 0 127 0" result="hardAlpha"/>
<feOffset dy="2.48077"/>
<feGaussianBlur stdDeviation="2.48077"/>
<feColorMatrix type="matrix" values="0 0 0 0 0.196487 0 0 0 0 0.196487 0 0 0 0 0.279476 0 0 0 0.06 0"/>
<feBlend mode="multiply" in2="BackgroundImageFix" result="effect1_dropShadow_6487_14240"/>
<feColorMatrix in="SourceAlpha" type="matrix" values="0 0 0 0 0 0 0 0 0 0 0 0 0 0 0 0 0 0 127 0" result="hardAlpha"/>
<feOffset dy="2.48077"/>
<feGaussianBlur stdDeviation="1.24038"/>
<feColorMatrix type="matrix" values="0 0 0 0 0.196487 0 0 0 0 0.196487 0 0 0 0 0.279476 0 0 0 0.06 0"/>
<feBlend mode="multiply" in2="effect1_dropShadow_6487_14240" result="effect2_dropShadow_6487_14240"/>
<feBlend mode="normal" in="SourceGraphic" in2="effect2_dropShadow_6487_14240" result="shape"/>
</filter>
<filter id="filter4_dd_6487_14240" x="213.656" y="40.363" width="25.9231" height="25.9231" filterUnits="userSpaceOnUse" color-interpolation-filters="sRGB">
<feFlood flood-opacity="0" result="BackgroundImageFix"/>
<feColorMatrix in="SourceAlpha" type="matrix" values="0 0 0 0 0 0 0 0 0 0 0 0 0 0 0 0 0 0 127 0" result="hardAlpha"/>
<feOffset dy="2.48077"/>
<feGaussianBlur stdDeviation="2.48077"/>
<feColorMatrix type="matrix" values="0 0 0 0 0.196487 0 0 0 0 0.196487 0 0 0 0 0.279476 0 0 0 0.06 0"/>
<feBlend mode="multiply" in2="BackgroundImageFix" result="effect1_dropShadow_6487_14240"/>
<feColorMatrix in="SourceAlpha" type="matrix" values="0 0 0 0 0 0 0 0 0 0 0 0 0 0 0 0 0 0 127 0" result="hardAlpha"/>
<feOffset dy="2.48077"/>
<feGaussianBlur stdDeviation="1.24038"/>
<feColorMatrix type="matrix" values="0 0 0 0 0.196487 0 0 0 0 0.196487 0 0 0 0 0.279476 0 0 0 0.06 0"/>
<feBlend mode="multiply" in2="effect1_dropShadow_6487_14240" result="effect2_dropShadow_6487_14240"/>
<feBlend mode="normal" in="SourceGraphic" in2="effect2_dropShadow_6487_14240" result="shape"/>
</filter>
<filter id="filter5_dd_6487_14240" x="161.152" y="133.42" width="25.9231" height="25.9231" filterUnits="userSpaceOnUse" color-interpolation-filters="sRGB">
<feFlood flood-opacity="0" result="BackgroundImageFix"/>
<feColorMatrix in="SourceAlpha" type="matrix" values="0 0 0 0 0 0 0 0 0 0 0 0 0 0 0 0 0 0 127 0" result="hardAlpha"/>
<feOffset dy="2.48077"/>
<feGaussianBlur stdDeviation="2.48077"/>
<feColorMatrix type="matrix" values="0 0 0 0 0.196487 0 0 0 0 0.196487 0 0 0 0 0.279476 0 0 0 0.06 0"/>
<feBlend mode="multiply" in2="BackgroundImageFix" result="effect1_dropShadow_6487_14240"/>
<feColorMatrix in="SourceAlpha" type="matrix" values="0 0 0 0 0 0 0 0 0 0 0 0 0 0 0 0 0 0 127 0" result="hardAlpha"/>
<feOffset dy="2.48077"/>
<feGaussianBlur stdDeviation="1.24038"/>
<feColorMatrix type="matrix" values="0 0 0 0 0.196487 0 0 0 0 0.196487 0 0 0 0 0.279476 0 0 0 0.06 0"/>
<feBlend mode="multiply" in2="effect1_dropShadow_6487_14240" result="effect2_dropShadow_6487_14240"/>
<feBlend mode="normal" in="SourceGraphic" in2="effect2_dropShadow_6487_14240" result="shape"/>
</filter>
<filter id="filter6_dd_6487_14240" x="110.773" y="100.575" width="25.9231" height="25.9231" filterUnits="userSpaceOnUse" color-interpolation-filters="sRGB">
<feFlood flood-opacity="0" result="BackgroundImageFix"/>
<feColorMatrix in="SourceAlpha" type="matrix" values="0 0 0 0 0 0 0 0 0 0 0 0 0 0 0 0 0 0 127 0" result="hardAlpha"/>
<feOffset dy="2.48077"/>
<feGaussianBlur stdDeviation="2.48077"/>
<feColorMatrix type="matrix" values="0 0 0 0 0.196487 0 0 0 0 0.196487 0 0 0 0 0.279476 0 0 0 0.06 0"/>
<feBlend mode="multiply" in2="BackgroundImageFix" result="effect1_dropShadow_6487_14240"/>
<feColorMatrix in="SourceAlpha" type="matrix" values="0 0 0 0 0 0 0 0 0 0 0 0 0 0 0 0 0 0 127 0" result="hardAlpha"/>
<feOffset dy="2.48077"/>
<feGaussianBlur stdDeviation="1.24038"/>
<feColorMatrix type="matrix" values="0 0 0 0 0.196487 0 0 0 0 0.196487 0 0 0 0 0.279476 0 0 0 0.06 0"/>
<feBlend mode="multiply" in2="effect1_dropShadow_6487_14240" result="effect2_dropShadow_6487_14240"/>
<feBlend mode="normal" in="SourceGraphic" in2="effect2_dropShadow_6487_14240" result="shape"/>
</filter>
<filter id="filter7_dd_6487_14240" x="58.2846" y="190.89" width="25.9231" height="25.9231" filterUnits="userSpaceOnUse" color-interpolation-filters="sRGB">
<feFlood flood-opacity="0" result="BackgroundImageFix"/>
<feColorMatrix in="SourceAlpha" type="matrix" values="0 0 0 0 0 0 0 0 0 0 0 0 0 0 0 0 0 0 127 0" result="hardAlpha"/>
<feOffset dy="2.48077"/>
<feGaussianBlur stdDeviation="2.48077"/>
<feColorMatrix type="matrix" values="0 0 0 0 0.196487 0 0 0 0 0.196487 0 0 0 0 0.279476 0 0 0 0.06 0"/>
<feBlend mode="multiply" in2="BackgroundImageFix" result="effect1_dropShadow_6487_14240"/>
<feColorMatrix in="SourceAlpha" type="matrix" values="0 0 0 0 0 0 0 0 0 0 0 0 0 0 0 0 0 0 127 0" result="hardAlpha"/>
<feOffset dy="2.48077"/>
<feGaussianBlur stdDeviation="1.24038"/>
<feColorMatrix type="matrix" values="0 0 0 0 0.196487 0 0 0 0 0.196487 0 0 0 0 0.279476 0 0 0 0.06 0"/>
<feBlend mode="multiply" in2="effect1_dropShadow_6487_14240" result="effect2_dropShadow_6487_14240"/>
<feBlend mode="normal" in="SourceGraphic" in2="effect2_dropShadow_6487_14240" result="shape"/>
</filter>
<filter id="filter8_dd_6487_14240" x="3.69862" y="215.527" width="25.9231" height="25.9231" filterUnits="userSpaceOnUse" color-interpolation-filters="sRGB">
<feFlood flood-opacity="0" result="BackgroundImageFix"/>
<feColorMatrix in="SourceAlpha" type="matrix" values="0 0 0 0 0 0 0 0 0 0 0 0 0 0 0 0 0 0 127 0" result="hardAlpha"/>
<feOffset dy="2.48077"/>
<feGaussianBlur stdDeviation="2.48077"/>
<feColorMatrix type="matrix" values="0 0 0 0 0.196487 0 0 0 0 0.196487 0 0 0 0 0.279476 0 0 0 0.06 0"/>
<feBlend mode="multiply" in2="BackgroundImageFix" result="effect1_dropShadow_6487_14240"/>
<feColorMatrix in="SourceAlpha" type="matrix" values="0 0 0 0 0 0 0 0 0 0 0 0 0 0 0 0 0 0 127 0" result="hardAlpha"/>
<feOffset dy="2.48077"/>
<feGaussianBlur stdDeviation="1.24038"/>
<feColorMatrix type="matrix" values="0 0 0 0 0.196487 0 0 0 0 0.196487 0 0 0 0 0.279476 0 0 0 0.06 0"/>
<feBlend mode="multiply" in2="effect1_dropShadow_6487_14240" result="effect2_dropShadow_6487_14240"/>
<feBlend mode="normal" in="SourceGraphic" in2="effect2_dropShadow_6487_14240" result="shape"/>
</filter>
<linearGradient id="paint0_linear_6487_14240" x1="216.32" y1="34.5864" x2="343.68" y2="112.054" gradientUnits="userSpaceOnUse">
<stop stop-color="#FFD400"/>
<stop offset="1" stop-color="#9F8500"/>
</linearGradient>
</defs>
</svg>
