<svg width="508" height="300" viewBox="0 0 508 300" fill="none" xmlns="http://www.w3.org/2000/svg">
<path d="M287.598 179.654C287.98 179.044 288.557 178.582 289.236 178.344C289.919 178.174 289.412 178.186 314.03 183.478C313.375 183.369 310.863 186.099 310.317 186.536C307.233 189.364 303.076 195.063 300.924 198.551C297.265 204.529 295.372 211.421 295.463 218.43C295.446 221.046 295.928 223.642 296.882 226.078C296.779 225.751 276.02 222.691 271.542 222.036C271.382 222.046 271.221 222.022 271.071 221.965C270.921 221.907 270.785 221.819 270.671 221.706C270.557 221.593 270.468 221.456 270.412 221.307C270.355 221.156 270.33 220.996 270.339 220.835C269.819 216.17 270.266 211.448 271.651 206.963C274.975 195.929 279.494 189.561 287.598 179.654Z" fill="#10B981"/>
<path d="M296.668 226.39C295.693 226.045 283.376 224.153 271.49 222.413C271.283 222.417 271.079 222.379 270.889 222.3C270.698 222.221 270.526 222.104 270.382 221.957C270.239 221.808 270.127 221.632 270.055 221.439C269.982 221.245 269.951 221.04 269.962 220.834C269.405 216.131 269.857 211.361 271.291 206.847C274.415 195.91 279.774 188.619 287.309 179.414C287.734 178.745 288.373 178.241 289.122 177.982C289.949 177.775 289.199 177.75 314.118 183.105C314.213 183.129 314.296 183.188 314.348 183.269C314.402 183.352 314.421 183.451 314.403 183.548C314.384 183.645 314.33 183.729 314.25 183.787C314.17 183.844 314.072 183.869 313.975 183.855C313.02 184.487 312.145 185.232 311.37 186.074C309.785 187.484 308.33 189.032 307.023 190.702C300.049 199.146 295.681 207.475 295.851 218.425C295.822 220.987 296.292 223.532 297.236 225.914C297.272 225.99 297.281 226.077 297.264 226.16C297.245 226.242 297.201 226.317 297.136 226.372C297.071 226.425 296.989 226.457 296.904 226.46C296.821 226.463 296.737 226.439 296.668 226.39ZM272.022 207.064C270.618 211.494 270.174 216.172 270.724 220.787C270.709 220.9 270.719 221.016 270.754 221.126C270.789 221.235 270.849 221.335 270.929 221.418C271.008 221.502 271.106 221.565 271.213 221.605C271.321 221.645 271.436 221.661 271.551 221.65C288.748 224.163 294.391 225.103 296.277 225.544C295.47 223.259 295.068 220.851 295.089 218.428C294.915 207.267 299.371 198.764 306.427 190.223C307.755 188.529 309.23 186.957 310.837 185.524C311.496 184.855 312.189 184.221 312.916 183.625C289.401 178.57 289.869 178.581 289.338 178.713C288.75 178.926 288.252 179.332 287.925 179.865C280.494 188.949 275.115 196.24 272.022 207.067V207.064Z" fill="#201B00"/>
<path d="M297.846 203.049C296.832 202.957 295.691 202.496 294.603 202.326C295.506 200.052 295.245 197.429 292.898 197.077C290.613 196.751 288.064 198.468 286.641 200.28C285.696 201.481 284.393 202.35 282.92 202.761C282.24 202.929 281.522 202.839 280.903 202.509C280.285 202.181 279.809 201.634 279.57 200.976C279.378 200.082 279.545 199.149 280.035 198.377C280.523 197.605 281.297 197.055 282.187 196.847C283.088 196.734 283.999 196.941 284.762 197.433C284.844 197.486 284.944 197.504 285.039 197.486C285.135 197.467 285.22 197.412 285.277 197.333C285.334 197.254 285.358 197.156 285.346 197.059C285.332 196.963 285.283 196.874 285.207 196.813C284.28 196.204 283.165 195.949 282.065 196.095C281.461 196.223 280.891 196.484 280.401 196.859C279.909 197.235 279.508 197.715 279.224 198.265C278.031 198.151 276.849 197.939 275.691 197.633C275.594 197.608 275.49 197.622 275.405 197.673C275.318 197.723 275.255 197.806 275.228 197.903C275.202 197.999 275.215 198.103 275.264 198.191C275.313 198.277 275.394 198.343 275.49 198.37C276.616 198.671 277.764 198.883 278.924 199.003C278.71 199.712 278.679 200.464 278.835 201.189C279.132 202.039 279.738 202.748 280.531 203.176C281.324 203.604 282.249 203.721 283.124 203.503C284.756 203.049 286.199 202.087 287.246 200.756C288.499 199.157 290.823 197.552 292.792 197.833C296.512 198.391 292.878 207.629 288.355 204.778C288.269 204.727 288.167 204.713 288.071 204.736C287.974 204.759 287.89 204.819 287.837 204.904C287.785 204.988 287.766 205.089 287.787 205.187C287.807 205.284 287.865 205.369 287.948 205.425C290.419 206.982 292.909 205.661 294.273 203.048C295.981 203.237 298.113 204.356 298.2 203.456C298.206 203.355 298.173 203.256 298.107 203.179C298.04 203.104 297.947 203.056 297.846 203.049Z" fill="#201B00"/>
<path d="M318.403 155.52C325.721 155.083 333.148 153.991 339.919 150.933C346.691 147.875 352.59 142.74 355.318 135.859C357.26 142.632 358.504 149.586 359.033 156.612C359.141 157.152 359.141 157.71 359.033 158.251C358.685 159.289 358.038 160.201 357.172 160.872C350.75 166.8 343.052 171.172 334.671 173.651C326.317 176.121 317.575 177.01 308.895 176.272C309.769 176.272 311.962 164.041 312.172 162.837C312.627 160.218 312.936 157.703 313.264 155.086C314.912 155.298 316.66 155.408 318.403 155.52Z" fill="#10B981"/>
<path d="M359.421 156.578C358.89 149.527 357.642 142.548 355.693 135.75C355.671 135.673 355.625 135.606 355.562 135.557C355.5 135.507 355.424 135.479 355.344 135.475C355.265 135.471 355.186 135.492 355.119 135.535C355.052 135.578 355 135.641 354.97 135.715C352.476 142 347.077 147.279 339.768 150.58C332.868 153.697 321.848 155.836 313.325 154.701C313.274 154.694 313.224 154.697 313.175 154.711C313.127 154.723 313.081 154.746 313.041 154.777C313.002 154.808 312.968 154.846 312.943 154.891C312.918 154.934 312.901 154.983 312.895 155.032C312.482 158.3 310.046 174.319 308.775 175.908C308.693 175.938 308.624 175.995 308.579 176.07C308.534 176.143 308.515 176.231 308.527 176.317C308.538 176.404 308.578 176.483 308.64 176.543C308.703 176.603 308.784 176.64 308.871 176.648C317.6 177.37 326.386 176.477 334.791 174.013C343.21 171.509 350.947 167.118 357.412 161.173C358.35 160.445 359.048 159.451 359.414 158.321C359.531 157.746 359.534 157.154 359.421 156.578ZM358.677 158.129C358.349 159.105 357.738 159.962 356.92 160.588C350.534 166.465 342.891 170.806 334.573 173.282C326.474 175.654 318.015 176.556 309.598 175.946C311.01 172.81 312.871 161.322 313.602 155.509C322.014 156.542 333.031 154.463 340.079 151.28C347.178 148.076 352.525 143.032 355.25 137.005C357.015 143.441 358.157 150.031 358.661 156.686C358.758 157.16 358.763 157.65 358.677 158.127V158.129Z" fill="#201B00"/>
<path d="M339.576 163.101C339.416 162.516 339.082 161.994 338.617 161.605C338.153 161.216 337.58 160.977 336.976 160.922C335.839 160.942 334.709 161.129 333.625 161.476C332.33 161.737 330.731 160.996 331.532 159.395C332.695 156.963 335.858 155.255 338.194 156.714C338.28 156.768 338.384 156.785 338.482 156.763C338.581 156.74 338.667 156.678 338.721 156.592C338.775 156.506 338.792 156.402 338.77 156.304C338.746 156.205 338.685 156.119 338.599 156.065C338.078 155.743 337.495 155.531 336.889 155.445C336.282 155.358 335.663 155.399 335.073 155.563C335.098 154.682 335.176 152.932 335.176 152.911C335.18 152.81 335.144 152.71 335.076 152.636C335.007 152.561 334.912 152.516 334.81 152.512C334.709 152.508 334.61 152.544 334.535 152.612C334.46 152.68 334.415 152.777 334.411 152.878C334.411 152.974 334.317 155.087 334.308 155.819C332.807 156.453 331.582 157.601 330.852 159.058C329.819 161.118 331.663 162.65 333.815 162.216C334.819 161.894 335.862 161.714 336.915 161.68C337.363 161.716 337.789 161.89 338.133 162.176C338.478 162.463 338.726 162.851 338.843 163.284C338.941 164.046 338.841 164.819 338.55 165.53C338.261 166.241 337.792 166.865 337.189 167.34C335.103 168.986 330.98 169.284 329.447 166.888C329.392 166.802 329.305 166.742 329.206 166.72C329.107 166.699 329.003 166.717 328.917 166.773C328.833 166.828 328.773 166.914 328.751 167.013C328.729 167.112 328.748 167.215 328.803 167.301C329.4 168.107 330.215 168.726 331.153 169.085C332.09 169.444 333.11 169.528 334.094 169.327C334.124 170.678 334.053 172.03 333.88 173.372C333.869 173.47 333.896 173.569 333.956 173.648C334.016 173.726 334.104 173.779 334.202 173.794C334.3 173.809 334.4 173.785 334.481 173.728C334.561 173.671 334.617 173.585 334.636 173.487C334.819 172.064 334.893 170.63 334.859 169.196C335.875 168.991 336.833 168.562 337.663 167.941C338.379 167.374 338.934 166.628 339.27 165.778C339.606 164.928 339.711 164.004 339.576 163.101Z" fill="#201B00"/>
<path d="M226.334 100.355C226.079 100.497 225.864 100.702 225.711 100.951C225.559 101.2 225.472 101.483 225.46 101.775C224.586 111.06 220.956 167.418 219.998 181.4C219.972 181.792 220.031 182.185 220.17 182.551C220.31 182.918 220.527 183.25 220.808 183.525C221.088 183.8 221.424 184.011 221.794 184.144C222.163 184.276 222.557 184.328 222.948 184.294H295.802C297.32 184.294 298.641 183.018 298.641 180.963L292.197 102.103C292.133 101.372 291.792 100.693 291.243 100.206C290.694 99.7189 289.98 99.4597 289.247 99.4818C226.408 99.7608 227.33 99.8569 226.334 100.355Z" fill="#FFD400"/>
<path d="M299.021 180.933L292.578 102.079C292.507 101.252 292.124 100.482 291.504 99.9285C290.885 99.375 290.077 99.0796 289.247 99.1028L227.858 99.6485C226.026 99.6485 225.068 100.633 225.075 101.742C224.481 108.047 219.928 176.882 219.612 181.379C219.462 183.641 220.911 187.958 222.944 187.958H295.797C296.33 187.858 296.805 187.556 297.122 187.116C298.471 185.347 299.144 183.154 299.021 180.933ZM220.379 181.427C220.695 176.933 225.248 108.105 225.842 101.775C225.842 100.791 226.875 100.41 227.862 100.41L289.251 99.8635C289.889 99.8422 290.51 100.066 290.987 100.489C291.466 100.912 291.762 101.502 291.819 102.137L298.262 180.967C298.262 182.805 297.125 183.917 295.803 183.917H222.754C222.43 183.924 222.108 183.864 221.809 183.74C221.51 183.617 221.24 183.431 221.016 183.198C220.792 182.963 220.62 182.684 220.51 182.379C220.401 182.075 220.356 181.751 220.379 181.427Z" fill="#201B00"/>
<path d="M287.338 103.178C287.332 103.08 287.29 102.987 287.217 102.92C287.146 102.852 287.051 102.814 286.953 102.813L230.921 103.36C230.456 103.36 230.119 103.397 229.341 122.513C229.32 123.043 225.626 122.952 287.835 122.802C287.939 122.802 288.042 122.649 288.11 122.575C288.283 122.389 288.21 122.565 287.338 103.178Z" fill="#201B00"/>
<path d="M229.716 127.226H272.75L273.514 176.159H227.094L229.716 127.226Z" fill="white"/>
<path d="M277.234 126.897L288.048 127.225L293.071 176.487L279.528 176.158L277.234 126.897Z" fill="white"/>
<path d="M288.427 127.186C288.418 127.093 288.375 127.008 288.307 126.944C288.239 126.881 288.151 126.845 288.058 126.842L277.245 126.515C277.192 126.513 277.14 126.522 277.091 126.542C277.042 126.561 276.998 126.591 276.961 126.628C276.924 126.666 276.896 126.71 276.876 126.759C276.857 126.809 276.849 126.861 276.852 126.914L279.144 176.174C279.149 176.271 279.19 176.362 279.259 176.431C279.328 176.498 279.42 176.537 279.518 176.539C293.349 176.881 293.17 176.941 293.352 176.746C293.534 176.551 293.509 176.724 288.427 127.186ZM289.357 143.881H278.411L278.029 135.689H288.529L289.357 143.881ZM289.435 144.645L290.393 154.039H278.88L278.443 144.645H289.435ZM290.468 154.804L291.438 164.306H279.346L278.905 154.804H290.468ZM287.693 127.596L288.441 134.924H277.99L277.635 127.291L287.693 127.596Z" fill="#201B00"/>
<path d="M273.138 127.22C273.137 127.12 273.096 127.024 273.024 126.953C272.953 126.883 272.857 126.843 272.757 126.843H229.719C229.621 126.843 229.526 126.881 229.455 126.948C229.384 127.015 229.342 127.108 229.336 127.206L226.715 176.138C226.713 176.19 226.721 176.242 226.739 176.29C226.756 176.339 226.784 176.383 226.82 176.422C226.855 176.459 226.898 176.489 226.946 176.509C226.994 176.53 227.045 176.54 227.097 176.54H273.517C273.568 176.54 273.619 176.53 273.665 176.511C273.712 176.491 273.754 176.463 273.79 176.427C273.825 176.391 273.853 176.347 273.872 176.3C273.892 176.253 273.901 176.203 273.9 176.152L273.138 127.22ZM228.624 154.805H238.714L238.331 164.303H228.115L228.624 154.805ZM229.168 144.646H239.125L238.745 154.041H228.664L229.168 144.646ZM229.647 135.69H239.488L239.156 143.883H229.208L229.647 135.69ZM251.528 144.646H262.041L262.125 154.041H251.36L251.528 144.646ZM250.598 154.041H239.511L239.89 144.646H250.763L250.598 154.041ZM262.803 144.646H272.642L272.789 154.041H262.888L262.803 144.646ZM272.63 143.883H262.796L262.723 135.69H272.503L272.63 143.883ZM262.032 143.883H251.538L251.685 135.69H261.956L262.032 143.883ZM251.698 134.926L251.829 127.608H261.881L261.948 134.926H251.698ZM250.932 134.926H240.284L240.579 127.608H251.069L250.932 134.926ZM250.918 135.69L250.772 143.883H239.92L240.252 135.69H250.918ZM239.475 154.81H250.581L250.411 164.303H239.095L239.475 154.81ZM250.402 165.072L250.204 175.775H238.629L239.062 165.07L250.402 165.072ZM251.166 165.072H262.225L262.322 175.777H250.97L251.166 165.072ZM251.181 164.307L251.35 154.805H262.132L262.217 164.307H251.181ZM262.902 154.805H272.807L272.955 164.307H262.987L262.902 154.805ZM272.496 134.926H262.723L262.657 127.608H272.382L272.496 134.926ZM230.08 127.608H239.815L239.519 134.926H229.689L230.08 127.608ZM228.073 165.072H238.305L237.866 175.775H227.5L228.073 165.072ZM263.085 175.775L262.989 165.07H272.962L273.13 175.775H263.085Z" fill="#201B00"/>
<path d="M277.831 115.494C277.537 113.324 275.708 112.285 274.295 111.681C273.438 111.427 272.71 110.86 272.252 110.094C272.165 109.725 272.182 109.341 272.298 108.981C272.416 108.621 272.629 108.301 272.915 108.053C273.22 107.782 273.596 107.602 273.999 107.535C274.403 107.468 274.816 107.516 275.193 107.673C275.57 107.83 275.895 108.091 276.13 108.425C276.366 108.759 276.503 109.152 276.524 109.56C276.531 109.661 276.579 109.755 276.657 109.821C276.733 109.888 276.833 109.92 276.935 109.913C277.036 109.905 277.13 109.857 277.195 109.781C277.261 109.704 277.294 109.604 277.287 109.502C277.239 108.829 276.966 108.192 276.51 107.694C276.054 107.197 275.442 106.869 274.776 106.765V105.053C274.776 104.952 274.735 104.855 274.663 104.783C274.592 104.711 274.494 104.671 274.393 104.671C274.292 104.671 274.195 104.711 274.122 104.783C274.051 104.855 274.011 104.952 274.011 105.053V106.752C273.598 106.799 273.202 106.934 272.847 107.148C272.492 107.362 272.187 107.649 271.952 107.991C271.718 108.333 271.559 108.721 271.488 109.129C271.417 109.537 271.434 109.956 271.539 110.357C272.069 111.335 272.961 112.067 274.024 112.395C275.97 113.229 276.886 114.215 277.073 115.599C277.157 116.211 277.021 116.834 276.691 117.356C276.36 117.878 275.855 118.266 275.265 118.451C273.487 118.985 271.28 117.677 271.28 115.977C271.28 115.876 271.24 115.778 271.168 115.707C271.096 115.635 270.999 115.595 270.898 115.595C270.797 115.595 270.699 115.635 270.627 115.707C270.556 115.778 270.516 115.876 270.516 115.977C270.516 117.857 272.417 119.194 274.037 119.334L274.12 120.913C274.126 121.014 274.171 121.109 274.246 121.177C274.322 121.245 274.421 121.28 274.522 121.275C274.624 121.269 274.719 121.224 274.786 121.149C274.854 121.073 274.889 120.974 274.884 120.873L274.802 119.322C275.255 119.278 275.695 119.143 276.095 118.924C276.495 118.706 276.847 118.409 277.13 118.052C277.412 117.695 277.62 117.284 277.741 116.845C277.861 116.405 277.892 115.946 277.831 115.494Z" fill="white"/>
<path d="M265.668 111.681C264.811 111.427 264.083 110.86 263.625 110.094C263.539 109.725 263.555 109.341 263.673 108.981C263.789 108.621 264.002 108.301 264.289 108.053C264.602 107.781 264.985 107.601 265.395 107.532C265.805 107.464 266.225 107.51 266.611 107.666C266.996 107.822 267.33 108.082 267.577 108.416C267.824 108.75 267.973 109.146 268.009 109.56C268.013 109.61 268.027 109.659 268.049 109.704C268.072 109.749 268.103 109.789 268.141 109.821C268.18 109.854 268.223 109.879 268.272 109.895C268.319 109.91 268.369 109.917 268.419 109.913C268.469 109.909 268.519 109.895 268.563 109.873C268.607 109.85 268.648 109.819 268.681 109.781C268.713 109.742 268.738 109.698 268.754 109.651C268.77 109.603 268.776 109.553 268.772 109.502C268.723 108.831 268.449 108.195 267.992 107.7C267.537 107.204 266.926 106.878 266.26 106.775V105.053C266.26 104.952 266.22 104.855 266.149 104.783C266.076 104.711 265.979 104.671 265.878 104.671C265.777 104.671 265.68 104.711 265.607 104.783C265.536 104.855 265.496 104.952 265.496 105.053V106.748C265.073 106.778 264.662 106.901 264.292 107.108C263.922 107.315 263.601 107.601 263.354 107.945C263.108 108.29 262.94 108.685 262.863 109.102C262.787 109.519 262.803 109.948 262.912 110.358C263.443 111.335 264.335 112.067 265.397 112.395C267.343 113.229 268.258 114.215 268.446 115.599C268.779 118.052 265.978 119.553 263.692 117.851C263.38 117.646 263.122 117.369 262.941 117.042C262.759 116.716 262.66 116.35 262.65 115.977C262.645 115.879 262.603 115.787 262.532 115.72C262.46 115.652 262.366 115.615 262.268 115.615C262.171 115.615 262.076 115.652 262.006 115.72C261.934 115.787 261.892 115.879 261.887 115.977C261.887 117.895 263.85 119.246 265.517 119.341L265.6 120.913C265.602 120.963 265.615 121.012 265.636 121.058C265.658 121.103 265.689 121.144 265.726 121.177C265.763 121.211 265.807 121.237 265.854 121.253C265.902 121.27 265.951 121.277 266.002 121.275C266.052 121.272 266.101 121.26 266.147 121.238C266.192 121.216 266.232 121.186 266.266 121.149C266.3 121.111 266.325 121.068 266.342 121.02C266.359 120.973 266.366 120.923 266.364 120.873L266.282 119.309C266.724 119.252 267.151 119.107 267.538 118.884C267.924 118.661 268.263 118.364 268.534 118.01C268.806 117.655 269.004 117.251 269.119 116.82C269.234 116.388 269.262 115.939 269.202 115.497C268.91 113.328 267.081 112.285 265.668 111.681Z" fill="white"/>
<path d="M257.039 111.681C256.183 111.427 255.453 110.86 254.995 110.094C254.908 109.725 254.925 109.34 255.042 108.98C255.159 108.621 255.373 108.3 255.66 108.053C255.965 107.782 256.341 107.603 256.744 107.536C257.146 107.469 257.56 107.517 257.937 107.674C258.313 107.831 258.638 108.092 258.874 108.426C259.109 108.759 259.246 109.152 259.267 109.56C259.275 109.661 259.323 109.755 259.4 109.821C259.477 109.888 259.577 109.92 259.678 109.913C259.779 109.905 259.873 109.857 259.939 109.781C260.005 109.704 260.038 109.604 260.03 109.502C259.983 108.829 259.709 108.192 259.253 107.695C258.797 107.198 258.185 106.87 257.519 106.766V105.053C257.519 104.952 257.479 104.855 257.407 104.783C257.335 104.711 257.238 104.671 257.136 104.671C257.035 104.671 256.938 104.711 256.866 104.783C256.794 104.855 256.754 104.952 256.754 105.053V106.752C256.343 106.799 255.946 106.934 255.591 107.148C255.236 107.362 254.931 107.649 254.697 107.991C254.463 108.332 254.304 108.72 254.233 109.128C254.162 109.536 254.179 109.955 254.283 110.356C254.813 111.333 255.703 112.063 256.763 112.393C258.71 113.227 259.625 114.213 259.813 115.597C260.146 118.05 257.344 119.551 255.059 117.849C254.748 117.644 254.49 117.366 254.31 117.04C254.129 116.713 254.03 116.348 254.022 115.975C254.016 115.877 253.974 115.785 253.903 115.718C253.832 115.65 253.738 115.612 253.64 115.612C253.542 115.612 253.447 115.65 253.376 115.718C253.305 115.785 253.263 115.877 253.258 115.975C253.258 117.849 255.149 119.191 256.779 119.332L256.863 120.911C256.873 121.008 256.92 121.098 256.995 121.162C257.069 121.226 257.165 121.258 257.263 121.253C257.361 121.248 257.453 121.205 257.52 121.134C257.588 121.063 257.625 120.969 257.625 120.871L257.544 119.32C257.997 119.276 258.436 119.141 258.836 118.923C259.236 118.705 259.587 118.409 259.87 118.052C260.153 117.695 260.361 117.285 260.481 116.846C260.602 116.407 260.633 115.948 260.573 115.497C260.28 113.328 258.451 112.285 257.039 111.681Z" fill="white"/>
<path d="M321.292 133.504C326.902 130.075 329.741 124.499 327.634 121.051C325.526 117.602 319.269 117.587 313.658 121.016C308.049 124.445 305.21 130.021 307.317 133.469C309.425 136.917 315.682 136.933 321.292 133.504Z" fill="#FFD400"/>
<path d="M307.254 127.063C305.854 129.812 306.104 132.29 306.85 133.437C307.319 134.385 307.867 135.292 308.488 136.147C309.585 137.926 311.717 138.916 314.494 138.938C323.175 139.001 333.009 129.609 329.54 123.31C328.869 121.969 327.991 120.743 326.938 119.676C322.203 115.62 310.966 119.773 307.254 127.063ZM313.859 121.343C322.481 116.072 330.833 119.618 327.016 127.113C325.579 129.598 323.543 131.684 321.093 133.181C318.644 134.678 315.859 135.538 312.992 135.684C304.486 135.663 305.331 126.556 313.859 121.343Z" fill="#201B00"/>
<path d="M326.358 123.46L325.485 123.713C325.403 123.218 325.167 122.761 324.81 122.408C324.452 122.055 323.992 121.825 323.496 121.749C321.749 121.46 319.629 122.951 318.311 124.265C315.949 126.619 315.194 129.949 312.214 130.723C311.931 130.852 311.615 130.896 311.307 130.851C310.999 130.805 310.711 130.672 310.478 130.466C310.243 130.261 310.073 129.993 309.988 129.693C309.903 129.394 309.905 129.076 309.996 128.778C310.212 127.793 310.731 126.9 311.478 126.223C311.544 126.153 311.581 126.06 311.582 125.963C311.582 125.866 311.547 125.773 311.481 125.702C311.416 125.631 311.326 125.587 311.229 125.58C311.133 125.572 311.037 125.602 310.961 125.662C310.005 126.52 309.383 127.689 309.204 128.961L308.097 129.342C308.001 129.375 307.923 129.445 307.878 129.537C307.834 129.628 307.828 129.733 307.861 129.829C307.894 129.925 307.964 130.004 308.055 130.048C308.147 130.093 308.251 130.099 308.348 130.066L309.236 129.756C309.306 130.096 309.45 130.417 309.658 130.694C309.867 130.972 310.134 131.201 310.441 131.363C310.748 131.525 311.087 131.616 311.435 131.631C311.782 131.646 312.128 131.584 312.447 131.449C315.754 130.597 316.545 127.109 318.861 124.804C319.823 123.844 321.824 122.244 323.379 122.502C324.752 122.729 325.093 124.328 324.681 125.545C324.242 126.502 323.617 127.363 322.843 128.076C322.777 128.147 322.74 128.24 322.74 128.336C322.739 128.433 322.775 128.526 322.84 128.598C322.906 128.669 322.996 128.712 323.092 128.72C323.189 128.727 323.284 128.698 323.36 128.637C323.78 128.251 324.161 127.823 324.497 127.361C325.207 126.569 325.595 125.54 325.587 124.477C326.659 124.167 326.68 124.188 326.783 124.047C326.828 123.981 326.853 123.904 326.852 123.824C326.852 123.744 326.826 123.667 326.78 123.602C326.733 123.538 326.667 123.489 326.592 123.464C326.516 123.438 326.434 123.437 326.358 123.46Z" fill="#201B00"/>
<path d="M257.182 71.1186C258.734 67.3868 255.07 62.3149 248.999 59.7899C242.928 57.2649 236.748 58.2433 235.196 61.975C233.644 65.7068 237.308 70.7788 243.379 73.3038C249.45 75.8288 255.63 74.8504 257.182 71.1186Z" fill="#FFD400"/>
<path d="M240.349 58.1595C237.301 58.6421 235.444 60.2998 234.954 61.5772C234.463 62.5135 234.051 63.4894 233.723 64.4947C232.928 66.4273 233.379 68.7319 234.995 70.9932C240.045 78.0549 253.423 80.4949 256.483 73.9902C257.172 72.6604 257.648 71.2306 257.893 69.753C258.391 63.5325 248.428 56.88 240.349 58.1595ZM248.858 60.1427C258.189 64.0234 260.226 72.8648 251.92 74.1794C249.065 74.4756 246.183 74.0534 243.533 72.9513C240.883 71.8491 238.552 70.1021 236.749 67.869C231.764 60.9726 239.63 56.3065 248.858 60.1427Z" fill="#201B00"/>
<path d="M254.491 71.4991L253.767 70.9411C254.12 70.5839 254.35 70.1243 254.425 69.6283C254.5 69.1323 254.416 68.6251 254.186 68.1796C253.393 66.5963 250.942 65.7571 249.104 65.4626C245.811 64.9335 242.672 66.2811 240.293 64.3186C240.022 64.165 239.801 63.9366 239.657 63.6606C239.513 63.3847 239.451 63.0731 239.48 62.7631C239.509 62.453 239.626 62.1579 239.818 61.913C240.01 61.6681 240.269 61.4838 240.564 61.3825C241.488 60.9783 242.515 60.8727 243.502 61.0807C243.601 61.1004 243.705 61.0799 243.789 61.0234C243.873 60.967 243.932 60.8795 243.951 60.7799C243.971 60.6804 243.95 60.5772 243.894 60.4928C243.838 60.4086 243.75 60.3501 243.651 60.3304C242.394 60.0607 241.082 60.2438 239.948 60.8471L238.99 60.1754C238.907 60.1212 238.806 60.1014 238.708 60.1203C238.611 60.1392 238.524 60.1952 238.467 60.2764C238.411 60.3578 238.388 60.458 238.403 60.5561C238.419 60.6541 238.472 60.7421 238.552 60.8016L239.321 61.3411C239.087 61.5973 238.912 61.9023 238.81 62.2341C238.708 62.566 238.68 62.9163 238.73 63.2601C238.779 63.6037 238.904 63.9321 239.096 64.2217C239.288 64.5113 239.541 64.7547 239.838 64.9345C242.471 67.1048 245.757 65.7013 248.984 66.2191C250.328 66.4351 252.797 67.1131 253.503 68.5238C254.123 69.7639 253.032 70.9834 251.804 71.3637C250.772 71.5715 249.708 71.5715 248.676 71.3637C248.576 71.3447 248.473 71.3662 248.388 71.4236C248.304 71.4809 248.246 71.5695 248.227 71.6697C248.208 71.7698 248.229 71.8735 248.287 71.9578C248.344 72.0421 248.433 72.1002 248.533 72.1192C249.093 72.2315 249.663 72.2879 250.234 72.2877C251.292 72.3964 252.352 72.1067 253.208 71.4754C254.089 72.1606 254.084 72.1905 254.258 72.1905C254.34 72.1921 254.419 72.1677 254.486 72.1209C254.552 72.0741 254.602 72.0072 254.628 71.9301C254.654 71.853 254.655 71.7697 254.63 71.6922C254.605 71.6147 254.557 71.547 254.491 71.4991Z" fill="#201B00"/>
<path d="M325.528 88.307C330.72 84.2715 332.917 78.4133 330.436 75.2224C327.956 72.0316 321.737 72.7163 316.545 76.7519C311.354 80.7875 309.157 86.6456 311.637 89.8365C314.118 93.0274 320.337 92.3427 325.528 88.307Z" fill="white"/>
<path d="M310.855 83.4753C309.771 86.369 310.298 88.7987 311.165 89.8539C311.736 90.7437 312.382 91.5834 313.095 92.3642C314.384 94.0095 316.609 94.7557 319.375 94.4632C328.009 93.5538 336.731 83.1208 332.578 77.2486C331.76 75.9921 330.748 74.8724 329.581 73.9301C324.429 70.4318 313.729 75.8162 310.855 83.4753ZM316.778 77.0523C324.757 70.8514 333.453 73.4351 330.499 81.3133C329.349 83.9433 327.559 86.2439 325.292 88.0058C323.026 89.7676 320.355 90.9347 317.523 91.401C309.068 92.3312 308.888 83.187 316.778 77.0523Z" fill="#201B00"/>
<path d="M329.437 77.7581L328.596 78.1063C328.459 77.6241 328.173 77.1975 327.779 76.8878C327.384 76.5779 326.903 76.4007 326.401 76.3815C324.633 76.2895 322.693 78.0082 321.531 79.4612C319.446 82.0656 319.07 85.4554 316.19 86.5612C315.923 86.7209 315.615 86.8 315.304 86.7893C314.993 86.7785 314.691 86.6783 314.436 86.5006C314.18 86.323 313.981 86.0754 313.863 85.7875C313.744 85.4996 313.711 85.1838 313.768 84.8777C313.872 83.8746 314.288 82.929 314.956 82.1731C314.989 82.1351 315.013 82.091 315.029 82.0434C315.045 81.9956 315.052 81.9453 315.048 81.8953C315.044 81.8451 315.031 81.7963 315.008 81.7513C314.986 81.7064 314.955 81.6665 314.916 81.6336C314.878 81.6007 314.835 81.5757 314.787 81.5599C314.739 81.5441 314.689 81.5379 314.638 81.5415C314.589 81.5451 314.539 81.5587 314.495 81.5812C314.45 81.6037 314.41 81.6349 314.377 81.6729C313.522 82.6323 313.033 83.8629 312.997 85.1474L311.941 85.6507C311.852 85.6957 311.784 85.7738 311.751 85.8684C311.719 85.9629 311.725 86.0665 311.767 86.1568C311.811 86.247 311.887 86.3169 311.981 86.3514C312.075 86.3858 312.179 86.3821 312.27 86.3411L313.118 85.937C313.226 86.2673 313.404 86.5697 313.643 86.8225C313.881 87.0751 314.172 87.2718 314.496 87.3984C314.819 87.5249 315.166 87.5781 315.513 87.5542C315.859 87.5302 316.196 87.4297 316.499 87.2598C319.689 86.0424 320.085 82.4914 322.128 79.9387C322.977 78.8773 324.786 77.0636 326.365 77.1483C327.754 77.2196 328.272 78.7709 327.998 80.0265C327.669 81.027 327.145 81.952 326.455 82.7477C326.422 82.7857 326.397 82.8298 326.382 82.8775C326.365 82.9251 326.359 82.9755 326.363 83.0256C326.367 83.0757 326.381 83.1246 326.402 83.1694C326.425 83.2143 326.456 83.2543 326.494 83.2871C326.533 83.32 326.577 83.345 326.625 83.3608C326.672 83.3766 326.722 83.3829 326.772 83.3792C326.822 83.3756 326.872 83.3622 326.916 83.3396C326.961 83.317 327.001 83.2859 327.034 83.2479C327.408 82.816 327.738 82.3483 328.02 81.8516C328.636 80.9847 328.907 79.9191 328.78 78.8628C329.814 78.435 329.834 78.4495 329.917 78.3027C329.957 78.2332 329.976 78.1527 329.968 78.0726C329.96 77.9926 329.928 77.9169 329.874 77.8565C329.821 77.7963 329.75 77.7542 329.671 77.7366C329.593 77.7189 329.511 77.7264 329.437 77.7581Z" fill="#201B00"/>
<path d="M340.767 114.796C341.728 110.87 337.331 106.419 330.945 104.855C324.558 103.29 318.601 105.203 317.64 109.129C316.678 113.054 321.075 117.505 327.461 119.07C333.848 120.635 339.805 118.721 340.767 114.796Z" fill="white"/>
<path d="M322.147 104.568C319.21 105.513 317.629 107.436 317.34 108.772C316.998 109.773 316.741 110.801 316.57 111.845C316.08 113.876 316.88 116.082 318.823 118.071C324.896 124.272 338.489 124.637 340.515 117.737C340.993 116.316 341.244 114.829 341.259 113.33C340.8 107.115 329.936 102.067 322.147 104.568ZM330.859 105.225C340.677 107.63 344.043 116.055 336.037 118.626C333.261 119.358 330.346 119.383 327.558 118.7C324.77 118.017 322.196 116.647 320.073 114.716C314.095 108.665 321.152 102.847 330.859 105.226V105.225Z" fill="#201B00"/>
<path d="M338.161 115.588L337.367 115.146C337.659 114.739 337.816 114.25 337.814 113.749C337.812 113.248 337.652 112.76 337.356 112.355C336.331 110.908 333.78 110.459 331.919 110.448C328.582 110.431 325.687 112.243 323.037 110.669C322.745 110.558 322.493 110.366 322.308 110.116C322.123 109.865 322.015 109.566 321.996 109.256C321.976 108.945 322.048 108.636 322.199 108.364C322.351 108.093 322.579 107.871 322.854 107.725C323.704 107.184 324.704 106.923 325.71 106.977C325.809 106.978 325.905 106.941 325.978 106.873C326.05 106.804 326.094 106.711 326.098 106.611C326.102 106.512 326.068 106.415 326.002 106.34C325.935 106.266 325.842 106.22 325.743 106.213C324.461 106.139 323.193 106.519 322.163 107.288L321.112 106.771C321.067 106.749 321.018 106.736 320.968 106.733C320.917 106.73 320.866 106.736 320.819 106.752C320.771 106.769 320.727 106.794 320.69 106.827C320.651 106.861 320.62 106.901 320.599 106.947C320.576 106.992 320.562 107.041 320.559 107.091C320.556 107.142 320.563 107.192 320.579 107.24C320.595 107.288 320.621 107.332 320.654 107.37C320.687 107.407 320.728 107.438 320.773 107.461L321.618 107.874C321.425 108.163 321.299 108.491 321.249 108.835C321.198 109.178 321.225 109.529 321.326 109.861C321.427 110.193 321.602 110.498 321.836 110.755C322.069 111.012 322.357 111.213 322.678 111.346C325.613 113.091 328.643 111.197 331.913 111.214C333.272 111.222 335.818 111.513 336.73 112.8C337.537 113.936 336.642 115.302 335.49 115.866C334.502 116.23 333.452 116.393 332.4 116.345C332.301 116.344 332.205 116.381 332.132 116.45C332.06 116.518 332.016 116.612 332.012 116.711C332.008 116.811 332.042 116.908 332.108 116.982C332.175 117.056 332.268 117.102 332.367 117.109C332.937 117.134 333.509 117.103 334.073 117.016C335.135 116.961 336.139 116.512 336.888 115.757C337.863 116.299 337.863 116.33 338.035 116.303C338.115 116.292 338.189 116.255 338.246 116.199C338.304 116.143 338.343 116.07 338.357 115.991C338.371 115.912 338.36 115.83 338.325 115.758C338.29 115.685 338.233 115.626 338.161 115.588Z" fill="#201B00"/>
<path d="M220.461 213.074C226.385 210.221 229.765 204.955 228.01 201.314C226.256 197.673 220.032 197.034 214.108 199.889C208.185 202.742 204.805 208.008 206.559 211.649C208.313 215.29 214.537 215.928 220.461 213.074Z" fill="white"/>
<path d="M207.134 205.267C205.468 207.864 205.47 210.354 206.1 211.571C206.473 212.561 206.927 213.517 207.46 214.431C208.374 216.309 210.398 217.508 213.158 217.803C221.791 218.733 232.511 210.362 229.686 203.748C229.151 202.347 228.399 201.04 227.457 199.873C223.148 195.368 211.554 198.383 207.134 205.267ZM214.275 200.233C223.379 195.847 231.337 200.206 226.794 207.283C225.116 209.612 222.882 211.484 220.296 212.73C217.709 213.975 214.853 214.554 211.986 214.414C203.525 213.548 205.272 204.57 214.275 200.233Z" fill="#201B00"/>
<path d="M226.502 203.582L225.607 203.748C225.574 203.247 225.385 202.77 225.064 202.385C224.744 201.998 224.31 201.723 223.824 201.599C222.114 201.137 219.857 202.41 218.415 203.585C215.831 205.694 214.747 208.933 211.697 209.405C211.403 209.505 211.085 209.518 210.783 209.442C210.481 209.366 210.208 209.204 209.995 208.977C209.783 208.749 209.64 208.465 209.585 208.159C209.53 207.853 209.564 207.536 209.684 207.249C209.997 206.29 210.602 205.453 211.413 204.855C211.49 204.792 211.54 204.703 211.552 204.603C211.564 204.505 211.538 204.406 211.478 204.326C211.418 204.248 211.33 204.194 211.232 204.18C211.134 204.164 211.033 204.188 210.952 204.245C209.915 205.003 209.179 206.103 208.873 207.351L207.736 207.621C207.642 207.649 207.562 207.711 207.513 207.796C207.463 207.881 207.449 207.981 207.471 208.077C207.494 208.172 207.552 208.255 207.635 208.308C207.717 208.362 207.816 208.382 207.913 208.364L208.828 208.148C208.864 208.493 208.975 208.827 209.154 209.124C209.334 209.421 209.577 209.675 209.867 209.867C210.156 210.058 210.484 210.183 210.828 210.233C211.171 210.282 211.522 210.254 211.853 210.152C215.229 209.635 216.364 206.245 218.897 204.179C219.951 203.319 222.1 201.926 223.623 202.338C224.966 202.7 225.146 204.324 224.614 205.495C224.082 206.404 223.375 207.197 222.533 207.83C222.452 207.891 222.399 207.982 222.385 208.082C222.371 208.182 222.397 208.285 222.458 208.365C222.52 208.447 222.61 208.501 222.711 208.514C222.811 208.529 222.913 208.502 222.994 208.441C223.451 208.098 223.872 207.71 224.251 207.283C225.036 206.566 225.526 205.581 225.623 204.522C226.72 204.32 226.74 204.343 226.856 204.212C226.908 204.152 226.941 204.077 226.949 203.999C226.957 203.92 226.94 203.841 226.901 203.772C226.862 203.703 226.803 203.647 226.732 203.613C226.66 203.58 226.58 203.569 226.502 203.582Z" fill="#201B00"/>
<path d="M251.068 228.664C254.424 226.413 254.177 220.161 250.514 214.7C246.852 209.239 241.162 206.637 237.805 208.889C234.449 211.139 234.696 217.391 238.359 222.852C242.021 228.313 247.711 230.915 251.068 228.664Z" fill="#FFD400"/>
<path d="M244.206 208.554C241.399 207.271 238.935 207.624 237.821 208.419C236.894 208.927 236.011 209.513 235.182 210.17C233.451 211.34 232.551 213.512 232.648 216.287C232.951 224.968 242.748 234.395 248.896 230.663C250.207 229.936 251.395 229.007 252.416 227.91C256.268 223.006 251.645 211.957 244.206 208.554ZM250.2 214.913C255.829 223.306 252.638 231.799 244.991 228.301C242.447 226.97 240.277 225.023 238.678 222.639C237.079 220.255 236.102 217.509 235.835 214.65C235.497 206.151 244.632 206.612 250.198 214.913H250.2Z" fill="#201B00"/>
<path d="M248.606 227.491L248.317 226.629C248.807 226.526 249.253 226.27 249.589 225.899C249.926 225.528 250.137 225.06 250.192 224.562C250.407 222.805 248.828 220.749 247.461 219.489C245.009 217.226 241.649 216.613 240.752 213.663C240.611 213.385 240.553 213.073 240.585 212.763C240.618 212.454 240.739 212.159 240.934 211.917C241.129 211.675 241.39 211.494 241.686 211.395C241.982 211.297 242.299 211.287 242.601 211.366C243.594 211.54 244.508 212.02 245.215 212.739C245.287 212.81 245.385 212.851 245.486 212.851C245.588 212.85 245.685 212.809 245.756 212.737C245.828 212.666 245.868 212.568 245.868 212.466C245.867 212.365 245.827 212.268 245.755 212.196C244.857 211.277 243.664 210.703 242.385 210.578L241.957 209.489C241.916 209.399 241.843 209.329 241.752 209.291C241.662 209.255 241.56 209.254 241.469 209.29C241.377 209.325 241.303 209.396 241.262 209.485C241.22 209.573 241.215 209.675 241.246 209.768L241.59 210.643C241.253 210.727 240.939 210.884 240.67 211.104C240.401 211.324 240.185 211.601 240.036 211.914C239.887 212.228 239.809 212.571 239.809 212.918C239.808 213.265 239.885 213.608 240.032 213.922C241.024 217.19 244.539 217.834 246.942 220.051C247.942 220.972 249.629 222.903 249.432 224.469C249.263 225.85 247.68 226.258 246.446 225.896C245.472 225.498 244.586 224.91 243.841 224.167C243.768 224.099 243.672 224.063 243.573 224.064C243.473 224.066 243.379 224.106 243.309 224.176C243.239 224.247 243.199 224.342 243.197 224.441C243.196 224.54 243.233 224.636 243.301 224.709C243.706 225.112 244.149 225.474 244.625 225.79C245.447 226.466 246.491 226.811 247.553 226.758C247.908 227.815 247.887 227.838 248.033 227.934C248.099 227.979 248.178 228.001 248.258 227.998C248.338 227.995 248.415 227.967 248.479 227.919C248.542 227.87 248.589 227.802 248.611 227.725C248.634 227.649 248.632 227.566 248.606 227.491Z" fill="#201B00"/>
<path d="M184.061 63.2223C193.419 62.8781 202.753 62.0398 212.023 60.7109C215.826 71.0636 216.508 82.3043 213.986 93.0411C211.79 102.542 206.667 113.467 199.349 120.13C190.939 116.525 182.31 113.357 173.572 110.518C187.566 99.4714 189.736 79.6101 184.061 63.2223Z" fill="#10B981"/>
<path d="M199.348 120.511C198.8 120.511 191.193 116.646 173.453 110.881C173.388 110.859 173.329 110.82 173.283 110.768C173.238 110.716 173.208 110.653 173.195 110.584C173.183 110.516 173.19 110.446 173.214 110.382C173.239 110.317 173.28 110.26 173.335 110.217C187.237 99.2417 189.287 79.4816 183.696 63.347C183.677 63.2906 183.671 63.2304 183.678 63.1711C183.686 63.1119 183.708 63.0554 183.742 63.0061C183.776 62.9568 183.821 62.9162 183.873 62.8875C183.925 62.8587 183.984 62.8427 184.044 62.8406C193.388 62.4991 202.709 61.6619 211.965 60.3324C212.052 60.3193 212.14 60.3366 212.216 60.3815C212.291 60.4263 212.348 60.4959 212.378 60.5784C216.21 71.0022 216.899 82.3214 214.358 93.1328C212.411 101.607 207.514 113.218 199.606 120.417C199.535 120.479 199.443 120.513 199.348 120.511ZM174.36 110.372C183.345 113.311 191.503 116.359 199.272 119.681C206.942 112.588 211.705 101.249 213.612 92.955C216.093 82.3926 215.452 71.3368 211.765 61.1323C202.753 62.4166 193.681 63.2355 184.585 63.5858C189.92 79.4868 188.078 99.0691 174.36 110.372Z" fill="#201B00"/>
<path d="M212.659 90.5953C211.381 90.2533 210.08 90.0029 208.766 89.846C208.844 88.8777 208.697 87.9046 208.336 87.0029C207.184 84.0058 203.637 83.3516 200.908 84.8419C197.478 86.7156 198.074 91.3332 195.406 92.6756C194.376 93.0126 193.256 92.9461 192.273 92.4896C191.29 92.033 190.516 91.2205 190.109 90.216C189.489 87.7356 191.526 84.9008 193.692 84.1133C193.784 84.0763 193.859 84.005 193.899 83.9144C193.94 83.8237 193.943 83.7209 193.909 83.6276C193.875 83.5343 193.806 83.4579 193.717 83.4145C193.628 83.3711 193.525 83.364 193.431 83.395C191.783 84.0673 190.464 85.3569 189.754 86.9884C188.824 87.0519 187.889 86.9774 186.981 86.7673C186.883 86.7493 186.783 86.7699 186.7 86.8246C186.618 86.8793 186.56 86.9639 186.538 87.0606C186.517 87.1573 186.534 87.2585 186.586 87.3429C186.637 87.4275 186.72 87.4885 186.815 87.5134C187.683 87.7179 188.575 87.803 189.466 87.7666C189.199 88.6356 189.17 89.5601 189.381 90.4444C189.858 91.6492 190.779 92.6252 191.954 93.1714C193.13 93.7176 194.469 93.7924 195.698 93.3805C198.812 91.8241 198.132 87.2313 201.279 85.5126C203.583 84.2528 206.636 84.7034 207.628 87.283C209.167 91.1316 206.09 93.9809 204.695 95.0268C204.613 95.0878 204.56 95.1785 204.546 95.279C204.531 95.3794 204.558 95.4815 204.619 95.5627C204.68 95.6438 204.77 95.6973 204.871 95.7116C204.971 95.7258 205.073 95.6996 205.154 95.6386C206.91 94.4514 208.165 92.6575 208.679 90.6015C209.961 90.7548 211.23 90.9998 212.478 91.3342C212.571 91.3471 212.667 91.3249 212.745 91.2717C212.823 91.2186 212.879 91.1382 212.901 91.0463C212.924 90.9544 212.912 90.8574 212.867 90.7741C212.822 90.6908 212.748 90.627 212.659 90.5953Z" fill="#201B00"/>
<path d="M190.503 134.981C193.667 144.406 200.362 152.236 209.18 156.827L229.387 137.931C226.04 137.204 222.924 135.662 220.316 133.443C217.707 131.223 215.687 128.394 214.434 125.207C213.181 122.019 212.733 118.572 213.132 115.17C213.53 111.769 214.762 108.518 216.717 105.706C205.956 105.706 191.75 106.381 192.032 105.816C187.008 113.573 187.666 126.571 190.503 134.981Z" fill="#10B981"/>
<path d="M209.005 157.166C200.087 152.546 193.32 144.632 190.141 135.105C187.157 126.261 186.736 113.291 191.712 105.61C191.744 105.562 191.786 105.521 191.836 105.491C191.886 105.461 191.942 105.443 191.999 105.438C192.057 105.433 192.116 105.441 192.17 105.462C192.224 105.483 192.273 105.516 192.312 105.559C193.722 105.869 206.359 105.327 216.718 105.327C216.788 105.327 216.857 105.347 216.917 105.383C216.976 105.42 217.025 105.473 217.057 105.535C217.089 105.597 217.103 105.667 217.098 105.737C217.093 105.807 217.069 105.875 217.028 105.932C215.095 108.688 213.875 111.88 213.478 115.223C213.08 118.566 213.517 121.955 214.749 125.087C215.982 128.22 217.971 130.998 220.54 133.174C223.108 135.35 226.176 136.856 229.469 137.556C229.537 137.571 229.599 137.604 229.65 137.652C229.7 137.7 229.736 137.761 229.755 137.828C229.773 137.895 229.773 137.966 229.754 138.033C229.735 138.1 229.698 138.161 229.648 138.208L209.442 157.106C209.384 157.16 209.311 157.195 209.233 157.205C209.155 157.217 209.075 157.202 209.005 157.166ZM192.175 106.308C187.524 113.817 187.977 126.297 190.865 134.86C193.951 144.111 200.49 151.814 209.118 156.362L228.607 138.138C225.336 137.325 222.308 135.741 219.773 133.52C217.239 131.299 215.273 128.504 214.038 125.368C212.803 122.232 212.336 118.847 212.676 115.494C213.015 112.141 214.151 108.918 215.989 106.093C204.564 106.12 194.061 106.661 192.175 106.308Z" fill="#201B00"/>
<path d="M213.466 126.526C212.519 126.761 211.602 127.106 210.735 127.552C210.456 127.064 210.068 126.646 209.602 126.33C209.136 126.015 208.604 125.811 208.046 125.734C207.489 125.657 206.921 125.709 206.387 125.885C205.852 126.062 205.366 126.359 204.964 126.753C203.852 127.925 204.005 129.679 204.213 131.204C204.474 133.125 204.773 134.217 203.364 135.344C200.36 137.848 196.389 134.813 196.888 131.322C196.994 130.631 197.239 129.968 197.607 129.374C197.976 128.779 198.462 128.265 199.034 127.863C199.116 127.804 199.171 127.714 199.187 127.613C199.203 127.513 199.179 127.41 199.119 127.328C199.059 127.246 198.969 127.191 198.869 127.175C198.768 127.159 198.666 127.184 198.584 127.243C197.517 127.96 196.731 129.022 196.357 130.251C195.983 131.48 196.044 132.801 196.531 133.99C195.489 134.282 194.267 134.68 192.982 135.148C192.898 135.179 192.828 135.239 192.783 135.317C192.738 135.394 192.723 135.485 192.738 135.574C192.754 135.662 192.8 135.742 192.869 135.8C192.937 135.857 193.024 135.889 193.113 135.889C193.312 135.889 194.627 135.304 196.902 134.681C197.234 135.268 197.692 135.774 198.242 136.164C198.792 136.554 199.421 136.818 200.084 136.937C200.747 137.057 201.429 137.029 202.08 136.855C202.732 136.682 203.337 136.367 203.853 135.934C205.459 134.65 205.275 133.316 205.063 131.771C204.857 130.282 204.505 128.409 205.523 127.276C205.801 127.009 206.129 126.799 206.488 126.659C206.847 126.518 207.23 126.451 207.616 126.46C208.001 126.469 208.381 126.555 208.733 126.712C209.086 126.869 209.403 127.094 209.668 127.375C210.812 128.568 211.13 130.966 209.898 132.198C209.83 132.27 209.793 132.366 209.794 132.466C209.796 132.565 209.836 132.66 209.906 132.73C209.977 132.8 210.071 132.84 210.171 132.842C210.27 132.843 210.366 132.806 210.438 132.738C210.965 132.128 211.304 131.379 211.417 130.582C211.531 129.784 211.413 128.97 211.077 128.237C211.89 127.817 212.749 127.493 213.637 127.271C213.734 127.247 213.818 127.185 213.87 127.1C213.923 127.015 213.939 126.912 213.917 126.814C213.894 126.717 213.834 126.632 213.75 126.578C213.666 126.524 213.564 126.505 213.466 126.526Z" fill="#201B00"/>
<path d="M211.689 150.383C211.034 149.619 204.042 141.864 204.481 141.427C198.074 148.386 190.253 153.897 181.543 157.587C175.777 160.09 169.038 161.618 163.262 159.146C163.618 159.559 163.419 159.112 168.764 181.29C174.4 181.39 180.012 180.541 185.366 178.778C198.268 174.858 209.959 167.715 219.335 158.024C216.625 155.643 214.072 153.092 211.689 150.383Z" fill="#10B981"/>
<path d="M211.384 149.455C206.326 143.738 205.023 141.959 204.857 141.503C204.878 141.411 204.865 141.314 204.82 141.231C204.775 141.148 204.701 141.084 204.613 141.051C204.524 141.019 204.426 141.019 204.338 141.054C204.25 141.088 204.177 141.153 204.133 141.237C197.778 148.13 190.023 153.587 181.389 157.241C174.233 160.348 168.16 160.858 163.343 158.771C162.64 158.468 163.231 159.981 163.256 160.085L168.39 181.383C168.41 181.466 168.456 181.539 168.522 181.592C168.588 181.645 168.67 181.675 168.754 181.677C186.167 182.008 206.422 171.939 219.608 158.294C220.235 157.645 218.746 157.784 211.384 149.455ZM169.068 180.916L163.987 159.845C168.844 161.576 174.794 160.939 181.695 157.944C190.265 154.316 197.98 148.933 204.341 142.14C205.453 144 210.67 149.782 211.404 150.635C213.708 153.257 216.172 155.733 218.784 158.049C204.082 173.109 183.925 181.1 169.068 180.916Z" fill="#201B00"/>
<path d="M191.242 163.896C189.589 164.516 187.454 164.413 186.453 162.952C184.821 160.567 188.933 157.992 191.051 159.439C191.135 159.495 191.238 159.517 191.338 159.498C191.438 159.479 191.526 159.422 191.583 159.337C191.64 159.254 191.661 159.15 191.643 159.051C191.624 158.952 191.566 158.863 191.482 158.806C190.922 158.473 190.287 158.285 189.635 158.261C188.984 158.237 188.337 158.376 187.753 158.667L186.802 156.767C186.754 156.681 186.675 156.617 186.581 156.588C186.487 156.559 186.385 156.568 186.297 156.612C186.209 156.655 186.142 156.732 186.109 156.825C186.076 156.917 186.079 157.019 186.119 157.109L187.076 159.025C183.945 160.997 185.392 164.614 188.492 164.961C191.195 165.259 191.752 164.031 193.949 164.305C194.653 164.405 195.289 164.779 195.719 165.345C196.15 165.911 196.339 166.624 196.246 167.329C196.18 167.704 196.053 168.067 195.869 168.401C195.363 169.102 194.654 169.63 193.837 169.914C192.786 170.493 191.563 170.678 190.387 170.439C189.211 170.199 188.158 169.55 187.416 168.607C187.353 168.53 187.262 168.48 187.163 168.469C187.064 168.459 186.965 168.487 186.886 168.548C186.808 168.609 186.756 168.698 186.742 168.797C186.729 168.895 186.754 168.995 186.813 169.076C187.576 170.069 188.646 170.783 189.856 171.108C191.066 171.432 192.349 171.348 193.507 170.87C194.155 171.707 194.704 172.616 195.142 173.58C195.185 173.668 195.261 173.738 195.354 173.772C195.447 173.806 195.55 173.803 195.641 173.763C195.731 173.722 195.803 173.648 195.84 173.556C195.877 173.464 195.877 173.362 195.84 173.27C195.408 172.316 194.872 171.412 194.241 170.576C195.145 170.225 195.929 169.621 196.499 168.836C196.741 168.413 196.91 167.952 196.997 167.473C197.345 164.865 194.9 162.523 191.242 163.896Z" fill="#201B00"/>
<rect x="99" y="8" width="71.1111" height="76.2791" rx="4" fill="#F7F8F9"/>
<path d="M143.989 42.2752C143.195 41.3344 141.998 40.7877 140.339 40.597V39.6308C140.339 37.8891 139.652 36.211 138.443 35.0414C137.222 33.8463 135.634 33.287 133.987 33.4522C131.154 33.7446 128.772 36.6814 128.772 39.8597V40.597C127.112 40.7877 125.915 41.3344 125.121 42.2752C123.972 43.6482 124.007 45.4789 124.138 46.7502L124.967 53.8315C125.216 56.3105 126.152 58.8532 131.249 58.8532H137.862C142.958 58.8532 143.895 56.3105 144.144 53.8442L144.973 46.7375C145.104 45.4789 145.127 43.6482 143.989 42.2752ZM134.152 35.2194C135.338 35.1049 136.464 35.4991 137.341 36.3508C138.206 37.1899 138.692 38.3849 138.692 39.6308V40.5208H130.419V39.8597C130.419 37.5967 132.161 35.4228 134.152 35.2194ZM130.312 47.602H130.301C129.649 47.602 129.115 47.0299 129.115 46.3307C129.115 45.6315 129.649 45.0594 130.301 45.0594C130.964 45.0594 131.498 45.6315 131.498 46.3307C131.498 47.0299 130.964 47.602 130.312 47.602ZM138.609 47.602H138.597C137.945 47.602 137.412 47.0299 137.412 46.3307C137.412 45.6315 137.945 45.0594 138.597 45.0594C139.261 45.0594 139.794 45.6315 139.794 46.3307C139.794 47.0299 139.261 47.602 138.609 47.602Z" fill="#B8C0CC"/>
<path d="M166.556 65.5273C160.842 65.5273 156.186 70.522 156.186 76.6514C156.186 82.7807 160.842 87.7754 166.556 87.7754C172.27 87.7754 176.926 82.7807 176.926 76.6514C176.926 70.522 172.27 65.5273 166.556 65.5273ZM170.04 79.2099C170.341 79.5325 170.341 80.0665 170.04 80.389C169.885 80.5559 169.688 80.6338 169.491 80.6338C169.294 80.6338 169.097 80.5559 168.941 80.389L166.556 77.8305L164.171 80.389C164.015 80.5559 163.818 80.6338 163.621 80.6338C163.424 80.6338 163.227 80.5559 163.071 80.389C162.771 80.0665 162.771 79.5325 163.071 79.2099L165.457 76.6514L163.071 74.0928C162.771 73.7703 162.771 73.2363 163.071 72.9137C163.372 72.5911 163.87 72.5911 164.171 72.9137L166.556 75.4722L168.941 72.9137C169.242 72.5911 169.74 72.5911 170.04 72.9137C170.341 73.2363 170.341 73.7703 170.04 74.0928L167.655 76.6514L170.04 79.2099Z" fill="#E1004B"/>
<rect x="73" y="114" width="40" height="40" rx="4" fill="#F7F8F9"/>
<path d="M97 136.667V138.667C97 139.767 96.1 140.667 95 140.667H91C89.9 140.667 89 139.767 89 138.667V135.994C89 135.627 89.3 135.327 89.6733 135.327L91.5933 135.334C92.0533 135.334 92.5067 135.434 92.9267 135.634C93.3867 135.847 93.8733 136 94.3867 136H96.3333C96.7 136 97 136.3 97 136.667Z" fill="#B8C0CC"/>
<path d="M96.6067 132.273L95.1933 130.86C95.0667 130.733 95 130.566 95 130.393V129.273C95.3867 129.14 95.6667 128.766 95.6667 128.333C95.6667 127.78 95.22 127.333 94.6667 127.333H91.3333C90.78 127.333 90.3333 127.78 90.3333 128.333C90.3333 128.766 90.6133 129.14 91 129.273V130.393C91 130.566 90.9333 130.733 90.8067 130.86L89.3933 132.273C89.18 132.486 89 132.92 89 133.22V133.653C89 134.02 89.2933 134.32 89.66 134.32L91.6 134.333C92.2533 134.333 92.9133 134.493 93.5 134.8C93.78 134.946 94.1 135 94.4133 135H96.3333C96.7 135 97 134.7 97 134.333V133.22C97 132.92 96.82 132.486 96.6067 132.273Z" fill="#B8C0CC"/>
<path d="M110.999 144.167C107.785 144.167 105.166 146.786 105.166 150C105.166 153.214 107.785 155.834 110.999 155.834C114.214 155.834 116.833 153.214 116.833 150C116.833 146.786 114.214 144.167 110.999 144.167ZM112.959 151.342C113.129 151.511 113.129 151.791 112.959 151.96C112.872 152.048 112.761 152.089 112.65 152.089C112.539 152.089 112.429 152.048 112.341 151.96L110.999 150.619L109.658 151.96C109.57 152.048 109.459 152.089 109.349 152.089C109.238 152.089 109.127 152.048 109.039 151.96C108.87 151.791 108.87 151.511 109.039 151.342L110.381 150L109.039 148.659C108.87 148.489 108.87 148.209 109.039 148.04C109.209 147.871 109.489 147.871 109.658 148.04L110.999 149.382L112.341 148.04C112.51 147.871 112.79 147.871 112.959 148.04C113.129 148.209 113.129 148.489 112.959 148.659L111.618 150L112.959 151.342Z" fill="#E1004B"/>
<rect x="94" y="202" width="65.1163" height="65.1163" rx="4" fill="#F7F8F9"/>
<path d="M116.519 241.775C116.074 241.775 115.705 241.406 115.705 240.961V234.775C115.651 231.834 116.747 229.056 118.787 226.972C120.828 224.899 123.562 223.76 126.503 223.76C132.516 223.76 137.41 228.654 137.41 234.667V240.853C137.41 241.298 137.041 241.667 136.597 241.667C136.152 241.667 135.783 241.298 135.783 240.853V234.667C135.783 229.555 131.626 225.388 126.503 225.388C123.997 225.388 121.674 226.354 119.948 228.112C118.212 229.881 117.29 232.236 117.333 234.754V240.95C117.333 241.406 116.975 241.775 116.519 241.775Z" fill="#B8C0CC"/>
<path d="M119.981 235.047H119.84C117.561 235.047 115.705 236.903 115.705 239.182V241.222C115.705 243.501 117.561 245.357 119.84 245.357H119.981C122.26 245.357 124.116 243.501 124.116 241.222V239.182C124.116 236.903 122.26 235.047 119.981 235.047Z" fill="#B8C0CC"/>
<path d="M133.276 235.047H133.135C130.856 235.047 129 236.903 129 239.182V241.222C129 243.501 130.856 245.357 133.135 245.357H133.276C135.555 245.357 137.411 243.501 137.411 241.222V239.182C137.411 236.903 135.555 235.047 133.276 235.047Z" fill="#B8C0CC"/>
<path d="M155.859 251.108C150.627 251.108 146.363 255.372 146.363 260.605C146.363 265.837 150.627 270.101 155.859 270.101C161.092 270.101 165.356 265.837 165.356 260.605C165.356 255.372 161.092 251.108 155.859 251.108ZM159.05 262.789C159.325 263.064 159.325 263.52 159.05 263.795C158.908 263.938 158.727 264.004 158.547 264.004C158.366 264.004 158.186 263.938 158.044 263.795L155.859 261.611L153.675 263.795C153.533 263.938 153.352 264.004 153.172 264.004C152.992 264.004 152.811 263.938 152.669 263.795C152.393 263.52 152.393 263.064 152.669 262.789L154.853 260.605L152.669 258.42C152.393 258.145 152.393 257.689 152.669 257.414C152.944 257.138 153.4 257.138 153.675 257.414L155.859 259.598L158.044 257.414C158.319 257.138 158.775 257.138 159.05 257.414C159.325 257.689 159.325 258.145 159.05 258.42L156.866 260.605L159.05 262.789Z" fill="#E1004B"/>
<rect x="309" y="196" width="72" height="72" rx="4" fill="#F7F8F9"/>
<path d="M341.736 241.971C341.94 242.547 341.316 243.075 340.788 242.763L337.008 240.615C336.324 240.219 335.904 239.271 336.048 238.503L337.176 232.899C337.308 232.239 338.22 232.179 338.448 232.803L341.736 241.971Z" fill="#B8C0CC"/>
<path d="M352.994 240.615L349.202 242.775C348.674 243.075 348.05 242.559 348.254 241.983L351.554 232.731C351.782 232.107 352.694 232.167 352.826 232.827L353.966 238.503C354.098 239.271 353.678 240.219 352.994 240.615Z" fill="#B8C0CC"/>
<path d="M351.098 226.384C351.386 226.744 351.47 227.224 351.314 227.656L345.626 243.556C345.422 244.144 344.594 244.144 344.39 243.556L338.702 227.668C338.546 227.236 338.63 226.756 338.918 226.396L343.502 220.756C344.33 219.76 345.698 219.76 346.538 220.756L351.098 226.384Z" fill="#B8C0CC"/>
<path d="M377.402 250.3C371.617 250.3 366.902 255.014 366.902 260.8C366.902 266.585 371.617 271.3 377.402 271.3C383.188 271.3 387.902 266.585 387.902 260.8C387.902 255.014 383.188 250.3 377.402 250.3ZM380.93 263.215C381.235 263.519 381.235 264.023 380.93 264.328C380.773 264.485 380.573 264.559 380.374 264.559C380.174 264.559 379.975 264.485 379.817 264.328L377.402 261.913L374.987 264.328C374.83 264.485 374.63 264.559 374.431 264.559C374.231 264.559 374.032 264.485 373.874 264.328C373.57 264.023 373.57 263.519 373.874 263.215L376.289 260.8L373.874 258.385C373.57 258.08 373.57 257.576 373.874 257.272C374.179 256.967 374.683 256.967 374.987 257.272L377.402 259.687L379.817 257.272C380.122 256.967 380.626 256.967 380.93 257.272C381.235 257.576 381.235 258.08 380.93 258.385L378.515 260.8L380.93 263.215Z" fill="#E1004B"/>
<rect x="348" y="33" width="79.1111" height="79.1111" rx="4" fill="#F7F8F9"/>
<path d="M398.384 67.0445L388.231 72.9251C387.822 73.1624 387.308 73.1624 386.886 72.9251L376.733 67.0445C376.008 66.6226 375.824 65.6337 376.377 65.014C376.76 64.5789 377.195 64.2229 377.656 63.9724L384.803 60.0168C386.332 59.1598 388.811 59.1598 390.341 60.0168L397.487 63.9724C397.948 64.2229 398.384 64.5921 398.766 65.014C399.293 65.6337 399.109 66.6226 398.384 67.0445Z" fill="#B8C0CC"/>
<path d="M386.806 75.377V84.3693C386.806 85.3713 385.791 86.0306 384.894 85.5955C382.178 84.2638 377.603 81.7718 377.603 81.7718C375.994 80.862 374.676 78.5678 374.676 76.6823V69.8787C374.676 68.8371 375.77 68.1779 376.667 68.6921L386.147 74.1903C386.542 74.4408 386.806 74.8891 386.806 75.377Z" fill="#B8C0CC"/>
<path d="M388.309 75.377V84.3693C388.309 85.3713 389.324 86.0306 390.22 85.5955C392.937 84.2638 397.512 81.7718 397.512 81.7718C399.12 80.862 400.439 78.5678 400.439 76.6823V69.8787C400.439 68.8371 399.345 68.1779 398.448 68.6921L388.968 74.1903C388.572 74.4408 388.309 74.8891 388.309 75.377Z" fill="#B8C0CC"/>
<path d="M423.158 92.6631C416.801 92.6631 411.621 97.8432 411.621 104.2C411.621 110.557 416.801 115.737 423.158 115.737C429.515 115.737 434.695 110.557 434.695 104.2C434.695 97.8432 429.515 92.6631 423.158 92.6631ZM427.035 106.854C427.369 107.188 427.369 107.742 427.035 108.077C426.862 108.25 426.642 108.33 426.423 108.33C426.204 108.33 425.985 108.25 425.812 108.077L423.158 105.423L420.505 108.077C420.332 108.25 420.112 108.33 419.893 108.33C419.674 108.33 419.455 108.25 419.282 108.077C418.947 107.742 418.947 107.188 419.282 106.854L421.935 104.2L419.282 101.547C418.947 101.212 418.947 100.658 419.282 100.324C419.616 99.9891 420.17 99.9891 420.505 100.324L423.158 102.977L425.812 100.324C426.146 99.9891 426.7 99.9891 427.035 100.324C427.369 100.658 427.369 101.212 427.035 101.547L424.381 104.2L427.035 106.854Z" fill="#E1004B"/>
<rect x="261" y="27.1113" width="22.2222" height="22.2222" rx="4" fill="#F7F8F9"/>
<path d="M275.806 40.4446V40.815C275.806 41.4261 275.806 41.9261 274.695 41.9261H269.51C268.398 41.9261 268.398 41.4261 268.398 40.815V40.4446C268.398 40.2409 268.565 40.0742 268.769 40.0742H275.435C275.639 40.0742 275.806 40.2409 275.806 40.4446Z" fill="#B8C0CC"/>
<path d="M273.005 35.6968C273.023 35.6227 273.034 35.5523 273.038 35.4745C273.049 35.0449 272.786 34.6671 272.371 34.556C271.749 34.3856 271.186 34.8523 271.186 35.4449C271.186 35.5338 271.197 35.6153 271.22 35.6968C269.883 35.9819 268.879 37.1708 268.879 38.5931V39.1486C268.879 39.3523 269.046 39.519 269.249 39.519H274.971C275.175 39.519 275.342 39.3523 275.342 39.1486V38.5931C275.342 37.1708 274.342 35.9856 273.005 35.6968ZM273.223 38.1301H271.001C270.849 38.1301 270.723 38.0042 270.723 37.8523C270.723 37.7005 270.849 37.5745 271.001 37.5745H273.223C273.375 37.5745 273.501 37.7005 273.501 37.8523C273.501 38.0042 273.375 38.1301 273.223 38.1301Z" fill="#B8C0CC"/>
<path d="M282.112 43.8711C280.326 43.8711 278.871 45.3262 278.871 47.1118C278.871 48.8975 280.326 50.3526 282.112 50.3526C283.897 50.3526 285.353 48.8975 285.353 47.1118C285.353 45.3262 283.897 43.8711 282.112 43.8711ZM283.201 47.8572C283.295 47.9512 283.295 48.1067 283.201 48.2007C283.152 48.2493 283.091 48.272 283.029 48.272C282.967 48.272 282.906 48.2493 282.857 48.2007L282.112 47.4554L281.366 48.2007C281.318 48.2493 281.256 48.272 281.195 48.272C281.133 48.272 281.072 48.2493 281.023 48.2007C280.929 48.1067 280.929 47.9512 281.023 47.8572L281.768 47.1118L281.023 46.3665C280.929 46.2725 280.929 46.1169 281.023 46.0229C281.117 45.929 281.272 45.929 281.366 46.0229L282.112 46.7683L282.857 46.0229C282.951 45.929 283.107 45.929 283.201 46.0229C283.295 46.1169 283.295 46.2725 283.201 46.3665L282.455 47.1118L283.201 47.8572Z" fill="#E1004B"/>
<rect x="441" y="138" width="22.2222" height="22.2222" rx="4" fill="#F7F8F9"/>
<path d="M455.806 151.333V151.704C455.806 152.315 455.806 152.815 454.695 152.815H449.51C448.398 152.815 448.398 152.315 448.398 151.704V151.333C448.398 151.13 448.565 150.963 448.769 150.963H455.435C455.639 150.963 455.806 151.13 455.806 151.333Z" fill="#B8C0CC"/>
<path d="M453.005 146.585C453.023 146.511 453.034 146.441 453.038 146.363C453.049 145.934 452.786 145.556 452.371 145.445C451.749 145.274 451.186 145.741 451.186 146.334C451.186 146.422 451.197 146.504 451.22 146.585C449.883 146.871 448.879 148.06 448.879 149.482V150.037C448.879 150.241 449.046 150.408 449.249 150.408H454.971C455.175 150.408 455.342 150.241 455.342 150.037V149.482C455.342 148.06 454.342 146.874 453.005 146.585ZM453.223 149.019H451.001C450.849 149.019 450.723 148.893 450.723 148.741C450.723 148.589 450.849 148.463 451.001 148.463H453.223C453.375 148.463 453.501 148.589 453.501 148.741C453.501 148.893 453.375 149.019 453.223 149.019Z" fill="#B8C0CC"/>
<path d="M462.112 154.76C460.326 154.76 458.871 156.215 458.871 158.001C458.871 159.786 460.326 161.241 462.112 161.241C463.897 161.241 465.353 159.786 465.353 158.001C465.353 156.215 463.897 154.76 462.112 154.76ZM463.201 158.746C463.295 158.84 463.295 158.995 463.201 159.089C463.152 159.138 463.091 159.161 463.029 159.161C462.967 159.161 462.906 159.138 462.857 159.089L462.112 158.344L461.366 159.089C461.318 159.138 461.256 159.161 461.195 159.161C461.133 159.161 461.072 159.138 461.023 159.089C460.929 158.995 460.929 158.84 461.023 158.746L461.768 158.001L461.023 157.255C460.929 157.161 460.929 157.006 461.023 156.912C461.117 156.818 461.272 156.818 461.366 156.912L462.112 157.657L462.857 156.912C462.951 156.818 463.107 156.818 463.201 156.912C463.295 157.006 463.295 157.161 463.201 157.255L462.455 158.001L463.201 158.746Z" fill="#E1004B"/>
<rect x="37" y="210" width="22.2222" height="22.2222" rx="4" fill="#F7F8F9"/>
<path d="M51.8039 223.333V223.704C51.8039 224.315 51.8039 224.815 50.6928 224.815H45.5076C44.3965 224.815 44.3965 224.315 44.3965 223.704V223.333C44.3965 223.13 44.5632 222.963 44.7669 222.963H51.4335C51.6372 222.963 51.8039 223.13 51.8039 223.333Z" fill="#B8C0CC"/>
<path d="M49.0029 218.585C49.0214 218.511 49.0325 218.441 49.0362 218.363C49.0473 217.934 48.7844 217.556 48.3695 217.445C47.7473 217.274 47.1844 217.741 47.1844 218.334C47.1844 218.422 47.1955 218.504 47.2177 218.585C45.8807 218.871 44.877 220.06 44.877 221.482V222.037C44.877 222.241 45.0436 222.408 45.2473 222.408H50.9695C51.1732 222.408 51.3399 222.241 51.3399 222.037V221.482C51.3399 220.06 50.3399 218.874 49.0029 218.585ZM49.2214 221.019H46.9992C46.8473 221.019 46.7214 220.893 46.7214 220.741C46.7214 220.589 46.8473 220.463 46.9992 220.463H49.2214C49.3732 220.463 49.4992 220.589 49.4992 220.741C49.4992 220.893 49.3732 221.019 49.2214 221.019Z" fill="#B8C0CC"/>
<path d="M58.1118 226.76C56.3262 226.76 54.8711 228.215 54.8711 230.001C54.8711 231.786 56.3262 233.241 58.1118 233.241C59.8975 233.241 61.3526 231.786 61.3526 230.001C61.3526 228.215 59.8975 226.76 58.1118 226.76ZM59.2007 230.746C59.2947 230.84 59.2947 230.995 59.2007 231.089C59.1521 231.138 59.0905 231.161 59.029 231.161C58.9674 231.161 58.9058 231.138 58.8572 231.089L58.1118 230.344L57.3665 231.089C57.3179 231.138 57.2563 231.161 57.1947 231.161C57.1331 231.161 57.0716 231.138 57.0229 231.089C56.929 230.995 56.929 230.84 57.0229 230.746L57.7683 230.001L57.0229 229.255C56.929 229.161 56.929 229.006 57.0229 228.912C57.1169 228.818 57.2725 228.818 57.3665 228.912L58.1118 229.657L58.8572 228.912C58.9512 228.818 59.1067 228.818 59.2007 228.912C59.2947 229.006 59.2947 229.161 59.2007 229.255L58.4554 230.001L59.2007 230.746Z" fill="#E1004B"/>
<rect x="30" y="37" width="22.2222" height="22.2222" rx="4" fill="#F7F8F9"/>
<path d="M44.8039 50.3333V50.7036C44.8039 51.3147 44.8039 51.8147 43.6928 51.8147H38.5076C37.3965 51.8147 37.3965 51.3147 37.3965 50.7036V50.3333C37.3965 50.1296 37.5632 49.9629 37.7669 49.9629H44.4335C44.6372 49.9629 44.8039 50.1296 44.8039 50.3333Z" fill="#B8C0CC"/>
<path d="M42.0029 45.5854C42.0214 45.5114 42.0325 45.441 42.0362 45.3632C42.0473 44.9336 41.7844 44.5558 41.3695 44.4447C40.7473 44.2743 40.1844 44.741 40.1844 45.3336C40.1844 45.4225 40.1955 45.5039 40.2177 45.5854C38.8807 45.8706 37.877 47.0595 37.877 48.4817V49.0373C37.877 49.241 38.0436 49.4076 38.2473 49.4076H43.9695C44.1732 49.4076 44.3399 49.241 44.3399 49.0373V48.4817C44.3399 47.0595 43.3399 45.8743 42.0029 45.5854ZM42.2214 48.0188H39.9992C39.8473 48.0188 39.7214 47.8928 39.7214 47.741C39.7214 47.5891 39.8473 47.4632 39.9992 47.4632H42.2214C42.3732 47.4632 42.4992 47.5891 42.4992 47.741C42.4992 47.8928 42.3732 48.0188 42.2214 48.0188Z" fill="#B8C0CC"/>
<path d="M51.1118 53.7598C49.3262 53.7598 47.8711 55.2149 47.8711 57.0005C47.8711 58.7862 49.3262 60.2412 51.1118 60.2412C52.8975 60.2412 54.3526 58.7862 54.3526 57.0005C54.3526 55.2149 52.8975 53.7598 51.1118 53.7598ZM52.2007 57.7459C52.2947 57.8399 52.2947 57.9954 52.2007 58.0894C52.1521 58.138 52.0905 58.1607 52.029 58.1607C51.9674 58.1607 51.9058 58.138 51.8572 58.0894L51.1118 57.344L50.3665 58.0894C50.3179 58.138 50.2563 58.1607 50.1947 58.1607C50.1331 58.1607 50.0716 58.138 50.0229 58.0894C49.929 57.9954 49.929 57.8399 50.0229 57.7459L50.7683 57.0005L50.0229 56.2551C49.929 56.1612 49.929 56.0056 50.0229 55.9116C50.1169 55.8176 50.2725 55.8176 50.3665 55.9116L51.1118 56.657L51.8572 55.9116C51.9512 55.8176 52.1067 55.8176 52.2007 55.9116C52.2947 56.0056 52.2947 56.1612 52.2007 56.2551L51.4554 57.0005L52.2007 57.7459Z" fill="#E1004B"/>
</svg>
