<svg width="668" height="440" viewBox="0 0 668 440" fill="none" xmlns="http://www.w3.org/2000/svg">
<circle cx="196" cy="28" r="15.5" fill="#FFD400" stroke="#FFD400"/>
<mask id="path-2-outside-1_6487_14088" maskUnits="userSpaceOnUse" x="188" y="22" width="15" height="14" fill="black">
<rect fill="white" x="188" y="22" width="15" height="14"/>
<path d="M190.176 35L194.368 23.08H196.704L200.896 35H198.88L197.968 32.328H193.12L192.192 35H190.176ZM193.664 30.648H197.392L195.28 24.408H195.808L193.664 30.648Z"/>
</mask>
<path d="M190.176 35L194.368 23.08H196.704L200.896 35H198.88L197.968 32.328H193.12L192.192 35H190.176ZM193.664 30.648H197.392L195.28 24.408H195.808L193.664 30.648Z" fill="#201B00"/>
<path d="M190.176 35L189.233 34.6682L188.764 36H190.176V35ZM194.368 23.08V22.08H193.66L193.425 22.7482L194.368 23.08ZM196.704 23.08L197.647 22.7482L197.412 22.08H196.704V23.08ZM200.896 35V36H202.308L201.839 34.6682L200.896 35ZM198.88 35L197.934 35.323L198.165 36H198.88V35ZM197.968 32.328L198.914 32.005L198.683 31.328H197.968V32.328ZM193.12 32.328V31.328H192.409L192.175 31.9999L193.12 32.328ZM192.192 35V36H192.903L193.137 35.3281L192.192 35ZM193.664 30.648L192.718 30.3231L192.263 31.648H193.664V30.648ZM197.392 30.648V31.648H198.786L198.339 30.3274L197.392 30.648ZM195.28 24.408V23.408H193.886L194.333 24.7286L195.28 24.408ZM195.808 24.408L196.754 24.7329L197.209 23.408H195.808V24.408ZM191.119 35.3318L195.311 23.4118L193.425 22.7482L189.233 34.6682L191.119 35.3318ZM194.368 24.08H196.704V22.08H194.368V24.08ZM195.761 23.4118L199.953 35.3318L201.839 34.6682L197.647 22.7482L195.761 23.4118ZM200.896 34H198.88V36H200.896V34ZM199.826 34.677L198.914 32.005L197.022 32.651L197.934 35.323L199.826 34.677ZM197.968 31.328H193.12V33.328H197.968V31.328ZM192.175 31.9999L191.247 34.6719L193.137 35.3281L194.065 32.6561L192.175 31.9999ZM192.192 34H190.176V36H192.192V34ZM193.664 31.648H197.392V29.648H193.664V31.648ZM198.339 30.3274L196.227 24.0874L194.333 24.7286L196.445 30.9686L198.339 30.3274ZM195.28 25.408H195.808V23.408H195.28V25.408ZM194.862 24.0831L192.718 30.3231L194.61 30.9729L196.754 24.7329L194.862 24.0831Z" fill="#FFD400" mask="url(#path-2-outside-1_6487_14088)"/>
<g filter="url(#filter0_d_6487_14088)">
<rect x="70" y="60" width="252" height="300" rx="8" fill="white" shape-rendering="crispEdges"/>
<circle cx="102" cy="92" r="16" fill="#F7F8F9"/>
<rect x="130" y="82" width="61" height="6" rx="3" fill="#E7EAEE"/>
<rect x="130" y="96" width="32" height="6" rx="3" fill="#E7EAEE"/>
<rect x="86" y="124" width="220" height="220" rx="4" fill="#F7F8F9"/>
<path d="M229.167 221.333C226.375 218.25 222.167 216.458 216.334 215.833V212.666C216.334 206.958 213.917 201.458 209.667 197.625C205.375 193.708 199.792 191.875 194 192.416C184.042 193.375 175.667 203 175.667 213.416V215.833C169.834 216.458 165.625 218.25 162.834 221.333C158.792 225.833 158.917 231.833 159.375 236L162.292 259.208C163.167 267.333 166.459 275.666 184.375 275.666H207.625C225.542 275.666 228.834 267.333 229.709 259.25L232.625 235.958C233.084 231.833 233.167 225.833 229.167 221.333ZM194.584 198.208C198.75 197.833 202.709 199.125 205.792 201.916C208.834 204.666 210.542 208.583 210.542 212.666V215.583H181.459V213.416C181.459 206 187.584 198.875 194.584 198.208ZM181.084 238.791H181.042C178.75 238.791 176.875 236.916 176.875 234.625C176.875 232.333 178.75 230.458 181.042 230.458C183.375 230.458 185.25 232.333 185.25 234.625C185.25 236.916 183.375 238.791 181.084 238.791ZM210.25 238.791H210.209C207.917 238.791 206.042 236.916 206.042 234.625C206.042 232.333 207.917 230.458 210.209 230.458C212.542 230.458 214.417 232.333 214.417 234.625C214.417 236.916 212.542 238.791 210.25 238.791Z" fill="#D0D5DD"/>
</g>
<circle cx="472" cy="28" r="15.5" fill="#FFD400" stroke="#FFD400"/>
<mask id="path-11-outside-2_6487_14088" maskUnits="userSpaceOnUse" x="466" y="22" width="12" height="14" fill="black">
<rect fill="white" x="466" y="22" width="12" height="14"/>
<path d="M467.232 35V23.08H472.256C473.003 23.08 473.648 23.2133 474.192 23.48C474.736 23.736 475.152 24.1093 475.44 24.6C475.728 25.08 475.872 25.6507 475.872 26.312C475.872 26.888 475.723 27.416 475.424 27.896C475.136 28.3653 474.683 28.7387 474.064 29.016V28.216C474.608 28.4293 475.051 28.7013 475.392 29.032C475.733 29.352 475.979 29.7147 476.128 30.12C476.288 30.5253 476.368 30.952 476.368 31.4C476.368 32.52 476 33.4 475.264 34.04C474.539 34.68 473.541 35 472.272 35H467.232ZM469.12 33.32H472.416C473.045 33.32 473.547 33.1493 473.92 32.808C474.293 32.456 474.48 31.992 474.48 31.416C474.48 30.8293 474.293 30.3653 473.92 30.024C473.547 29.672 473.045 29.496 472.416 29.496H469.12V33.32ZM469.12 27.832H472.304C472.816 27.832 473.227 27.688 473.536 27.4C473.845 27.1013 474 26.712 474 26.232C474 25.752 473.845 25.3787 473.536 25.112C473.227 24.8453 472.816 24.712 472.304 24.712H469.12V27.832Z"/>
</mask>
<path d="M467.232 35V23.08H472.256C473.003 23.08 473.648 23.2133 474.192 23.48C474.736 23.736 475.152 24.1093 475.44 24.6C475.728 25.08 475.872 25.6507 475.872 26.312C475.872 26.888 475.723 27.416 475.424 27.896C475.136 28.3653 474.683 28.7387 474.064 29.016V28.216C474.608 28.4293 475.051 28.7013 475.392 29.032C475.733 29.352 475.979 29.7147 476.128 30.12C476.288 30.5253 476.368 30.952 476.368 31.4C476.368 32.52 476 33.4 475.264 34.04C474.539 34.68 473.541 35 472.272 35H467.232ZM469.12 33.32H472.416C473.045 33.32 473.547 33.1493 473.92 32.808C474.293 32.456 474.48 31.992 474.48 31.416C474.48 30.8293 474.293 30.3653 473.92 30.024C473.547 29.672 473.045 29.496 472.416 29.496H469.12V33.32ZM469.12 27.832H472.304C472.816 27.832 473.227 27.688 473.536 27.4C473.845 27.1013 474 26.712 474 26.232C474 25.752 473.845 25.3787 473.536 25.112C473.227 24.8453 472.816 24.712 472.304 24.712H469.12V27.832Z" fill="#201B00"/>
<path d="M467.232 35H466.232V36H467.232V35ZM467.232 23.08V22.08H466.232V23.08H467.232ZM474.192 23.48L473.752 24.3779L473.759 24.3814L473.766 24.3848L474.192 23.48ZM475.44 24.6L474.578 25.1062L474.583 25.1145L475.44 24.6ZM475.424 27.896L474.575 27.3677L474.572 27.373L475.424 27.896ZM474.064 29.016H473.064V30.5602L474.473 29.9285L474.064 29.016ZM474.064 28.216L474.429 27.285L473.064 26.7497V28.216H474.064ZM475.392 29.032L474.696 29.7502L474.702 29.7559L474.708 29.7615L475.392 29.032ZM476.128 30.12L475.19 30.4657L475.194 30.4765L475.198 30.4872L476.128 30.12ZM475.264 34.04L474.608 33.2854L474.602 33.2902L475.264 34.04ZM469.12 33.32H468.12V34.32H469.12V33.32ZM473.92 32.808L474.595 33.546L474.6 33.5409L474.606 33.5356L473.92 32.808ZM473.92 30.024L473.234 30.7516L473.24 30.7569L473.245 30.762L473.92 30.024ZM469.12 29.496V28.496H468.12V29.496H469.12ZM469.12 27.832H468.12V28.832H469.12V27.832ZM473.536 27.4L474.217 28.1319L474.224 28.1257L474.231 28.1194L473.536 27.4ZM469.12 24.712V23.712H468.12V24.712H469.12ZM468.232 35V23.08H466.232V35H468.232ZM467.232 24.08H472.256V22.08H467.232V24.08ZM472.256 24.08C472.885 24.08 473.373 24.1922 473.752 24.3779L474.632 22.5821C473.923 22.2345 473.12 22.08 472.256 22.08V24.08ZM473.766 24.3848C474.139 24.5601 474.398 24.7995 474.578 25.1062L476.302 24.0938C475.906 23.4192 475.333 22.9119 474.618 22.5752L473.766 24.3848ZM474.583 25.1145C474.762 25.4129 474.872 25.7987 474.872 26.312H476.872C476.872 25.5026 476.694 24.7471 476.297 24.0855L474.583 25.1145ZM474.872 26.312C474.872 26.705 474.773 27.0494 474.575 27.3677L476.273 28.4243C476.672 27.7826 476.872 27.071 476.872 26.312H474.872ZM474.572 27.373C474.411 27.6348 474.133 27.8892 473.655 28.1035L474.473 29.9285C475.232 29.5881 475.861 29.0959 476.276 28.419L474.572 27.373ZM475.064 29.016V28.216H473.064V29.016H475.064ZM473.699 29.147C474.147 29.3228 474.469 29.5302 474.696 29.7502L476.088 28.3138C475.632 27.8725 475.069 27.5359 474.429 27.285L473.699 29.147ZM474.708 29.7615C474.946 29.9841 475.098 30.2183 475.19 30.4657L477.066 29.7743C476.859 29.2111 476.521 28.7198 476.076 28.3025L474.708 29.7615ZM475.198 30.4872C475.31 30.7723 475.368 31.0741 475.368 31.4H477.368C477.368 30.8299 477.266 30.2784 477.058 29.7528L475.198 30.4872ZM475.368 31.4C475.368 32.2782 475.092 32.8645 474.608 33.2854L475.92 34.7946C476.908 33.9355 477.368 32.7618 477.368 31.4H475.368ZM474.602 33.2902C474.111 33.7241 473.375 34 472.272 34V36C473.707 36 474.967 35.6359 475.926 34.7898L474.602 33.2902ZM472.272 34H467.232V36H472.272V34ZM469.12 34.32H472.416V32.32H469.12V34.32ZM472.416 34.32C473.231 34.32 473.995 34.0944 474.595 33.546L473.245 32.07C473.098 32.2043 472.859 32.32 472.416 32.32V34.32ZM474.606 33.5356C475.205 32.9705 475.48 32.2302 475.48 31.416H473.48C473.48 31.7538 473.381 31.9415 473.234 32.0804L474.606 33.5356ZM475.48 31.416C475.48 30.5978 475.209 29.8476 474.595 29.286L473.245 30.762C473.378 30.8831 473.48 31.0609 473.48 31.416H475.48ZM474.606 29.2964C474.007 28.7317 473.24 28.496 472.416 28.496V30.496C472.851 30.496 473.086 30.6123 473.234 30.7516L474.606 29.2964ZM472.416 28.496H469.12V30.496H472.416V28.496ZM468.12 29.496V33.32H470.12V29.496H468.12ZM469.12 28.832H472.304V26.832H469.12V28.832ZM472.304 28.832C473.012 28.832 473.685 28.6271 474.217 28.1319L472.855 26.6681C472.768 26.7489 472.62 26.832 472.304 26.832V28.832ZM474.231 28.1194C474.759 27.6095 475 26.9486 475 26.232H473C473 26.4754 472.932 26.5932 472.841 26.6806L474.231 28.1194ZM475 26.232C475 25.5174 474.758 24.8451 474.189 24.3546L472.883 25.8694C472.933 25.9122 473 25.9866 473 26.232H475ZM474.189 24.3546C473.656 23.8948 472.993 23.712 472.304 23.712V25.712C472.639 25.712 472.798 25.7959 472.883 25.8694L474.189 24.3546ZM472.304 23.712H469.12V25.712H472.304V23.712ZM468.12 24.712V27.832H470.12V24.712H468.12Z" fill="#FFD400" mask="url(#path-11-outside-2_6487_14088)"/>
<g filter="url(#filter1_d_6487_14088)">
<rect x="346" y="60" width="252" height="300" rx="8" fill="white" shape-rendering="crispEdges"/>
<circle cx="378" cy="92" r="16" fill="#F7F8F9"/>
<rect x="406" y="82" width="61" height="6" rx="3" fill="#E7EAEE"/>
<rect x="406" y="96" width="32" height="6" rx="3" fill="#E7EAEE"/>
<rect x="362" y="124" width="220" height="220" rx="4" fill="#F7F8F9"/>
<g clip-path="url(#clip0_6487_14088)">
<path d="M497 250.667V263.167C497 270.042 491.375 275.667 484.5 275.667H459.5C452.625 275.667 447 270.042 447 263.167V246.459C447 244.167 448.875 242.292 451.208 242.292L463.208 242.334C466.083 242.334 468.917 242.959 471.542 244.209C474.417 245.542 477.458 246.5 480.667 246.5H492.833C495.125 246.5 497 248.375 497 250.667Z" fill="#D0D5DD"/>
<path d="M494.542 223.208L485.708 214.375C484.917 213.583 484.5 212.541 484.5 211.458V204.458C486.917 203.625 488.667 201.291 488.667 198.583C488.667 195.125 485.875 192.333 482.417 192.333H461.583C458.125 192.333 455.333 195.125 455.333 198.583C455.333 201.291 457.083 203.625 459.5 204.458V211.458C459.5 212.541 459.083 213.583 458.292 214.375L449.458 223.208C448.125 224.541 447 227.25 447 229.125V231.833C447 234.125 448.833 236 451.125 236L463.25 236.083C467.333 236.083 471.458 237.083 475.125 239C476.875 239.916 478.875 240.25 480.833 240.25H492.833C495.125 240.25 497 238.375 497 236.083V229.125C497 227.25 495.875 224.541 494.542 223.208Z" fill="#D0D5DD"/>
</g>
</g>
<defs>
<filter id="filter0_d_6487_14088" x="0" y="0" width="392" height="440" filterUnits="userSpaceOnUse" color-interpolation-filters="sRGB">
<feFlood flood-opacity="0" result="BackgroundImageFix"/>
<feColorMatrix in="SourceAlpha" type="matrix" values="0 0 0 0 0 0 0 0 0 0 0 0 0 0 0 0 0 0 127 0" result="hardAlpha"/>
<feOffset dy="10"/>
<feGaussianBlur stdDeviation="35"/>
<feComposite in2="hardAlpha" operator="out"/>
<feColorMatrix type="matrix" values="0 0 0 0 0.32549 0 0 0 0 0.32549 0 0 0 0 0.32549 0 0 0 0.07 0"/>
<feBlend mode="normal" in2="BackgroundImageFix" result="effect1_dropShadow_6487_14088"/>
<feBlend mode="normal" in="SourceGraphic" in2="effect1_dropShadow_6487_14088" result="shape"/>
</filter>
<filter id="filter1_d_6487_14088" x="276" y="0" width="392" height="440" filterUnits="userSpaceOnUse" color-interpolation-filters="sRGB">
<feFlood flood-opacity="0" result="BackgroundImageFix"/>
<feColorMatrix in="SourceAlpha" type="matrix" values="0 0 0 0 0 0 0 0 0 0 0 0 0 0 0 0 0 0 127 0" result="hardAlpha"/>
<feOffset dy="10"/>
<feGaussianBlur stdDeviation="35"/>
<feComposite in2="hardAlpha" operator="out"/>
<feColorMatrix type="matrix" values="0 0 0 0 0.32549 0 0 0 0 0.32549 0 0 0 0 0.32549 0 0 0 0.07 0"/>
<feBlend mode="normal" in2="BackgroundImageFix" result="effect1_dropShadow_6487_14088"/>
<feBlend mode="normal" in="SourceGraphic" in2="effect1_dropShadow_6487_14088" result="shape"/>
</filter>
<clipPath id="clip0_6487_14088">
<rect width="100" height="100" fill="white" transform="translate(422 184)"/>
</clipPath>
</defs>
</svg>
