<svg width="453" height="291" viewBox="0 0 453 291" fill="none" xmlns="http://www.w3.org/2000/svg">
<path d="M4.41643 180.639C7.7197 164.214 12.8472 148.209 19.7037 132.922L49.4189 146.249C43.5548 159.324 39.1695 173.012 36.3443 187.06L4.41643 180.639Z" fill="#00A26C"/>
<path d="M25.4607 121.033C36.5802 99.692 51.0513 80.2728 68.3225 63.5158L91.0004 86.8895C76.2292 101.221 63.8527 117.829 54.3426 136.082L25.4607 121.033Z" fill="#10B981"/>
<path d="M76.5755 55.899C99.209 36.0329 125.6 20.9127 154.185 11.4344L164.435 42.3465C139.988 50.4529 117.416 63.3846 98.0588 80.3751L76.5755 55.899Z" fill="#10B981"/>
<path d="M167.721 7.4129C193.647 0.588157 220.583 -1.54844 247.26 1.10387L244.038 33.5112C221.222 31.2428 198.185 33.0702 176.012 38.9071L167.721 7.4129Z" fill="#FFD400"/>
<path d="M259.677 2.68821C283.231 6.36223 306.051 13.7561 327.285 24.5933L312.48 53.6007C294.32 44.3322 274.802 38.0085 254.657 34.8663L259.677 2.68821Z" fill="#FFD400"/>
<path d="M337.796 30.3152C357.517 41.7413 375.388 56.0977 390.796 72.8927L366.798 94.9092C353.62 80.5451 338.336 68.2667 321.469 58.4944L337.796 30.3152Z" fill="#E1004B"/>
<path d="M400.614 84.3417C410.932 97.2236 419.801 111.202 427.061 126.024L397.814 140.35C391.605 127.673 384.019 115.718 375.195 104.701L400.614 84.3417Z" fill="#E1004B"/>
<path d="M432.71 138.505C444.23 166.169 450.108 195.855 449.998 225.822L417.432 225.703C417.525 200.074 412.498 174.684 402.646 151.024L432.71 138.505Z" fill="#A30238"/>
<path d="M0 225C1.06933e-06 212.768 0.997431 200.557 2.98237 188.487L35.1178 193.772C33.4202 204.095 32.5671 214.539 32.5671 225L0 225Z" fill="#077853"/>
<path d="M219 201.002L223.78 224.338L371.392 187.508L219 201.002Z" fill="#E1004B"/>
<g filter="url(#filter0_dd_6487_14120)">
<circle cx="219" cy="212.836" r="12" fill="#201B00"/>
<circle cx="219" cy="212.836" r="10" stroke="white" stroke-width="4"/>
</g>
<path d="M1.232 247.5V235.58H3.12V245.82H8.272V247.5H1.232ZM13.537 247.692C12.705 247.692 11.9423 247.495 11.249 247.1C10.5663 246.705 10.0223 246.167 9.617 245.484C9.21167 244.801 9.009 244.028 9.009 243.164C9.009 242.289 9.21167 241.516 9.617 240.844C10.0223 240.161 10.5663 239.628 11.249 239.244C11.9317 238.849 12.6943 238.652 13.537 238.652C14.3903 238.652 15.153 238.849 15.825 239.244C16.5077 239.628 17.0463 240.161 17.441 240.844C17.8463 241.516 18.049 242.289 18.049 243.164C18.049 244.039 17.8463 244.817 17.441 245.5C17.0357 246.183 16.4917 246.721 15.809 247.116C15.1263 247.5 14.369 247.692 13.537 247.692ZM13.537 246.012C14.049 246.012 14.5023 245.889 14.897 245.644C15.2917 245.399 15.601 245.063 15.825 244.636C16.0597 244.199 16.177 243.708 16.177 243.164C16.177 242.62 16.0597 242.135 15.825 241.708C15.601 241.281 15.2917 240.945 14.897 240.7C14.5023 240.455 14.049 240.332 13.537 240.332C13.0357 240.332 12.5823 240.455 12.177 240.7C11.7823 240.945 11.4677 241.281 11.233 241.708C11.009 242.135 10.897 242.62 10.897 243.164C10.897 243.708 11.009 244.199 11.233 244.636C11.4677 245.063 11.7823 245.399 12.177 245.644C12.5823 245.889 13.0357 246.012 13.537 246.012ZM21.4339 247.5L18.4579 238.844H20.3779L22.6499 245.74H21.9779L24.2979 238.844H25.9459L28.2499 245.74H27.5779L29.8659 238.844H31.7859L28.7939 247.5H27.1619L24.8259 240.444H25.4179L23.0819 247.5H21.4339Z" fill="#141414"/>
<path d="M419.232 247.5V235.58H421.12V240.828H426.64V235.58H428.512V247.5H426.64V242.508H421.12V247.5H419.232ZM430.486 247.5V238.844H432.294V247.5H430.486ZM430.486 237.66V235.58H432.294V237.66H430.486ZM438.264 251.02C437.635 251.02 437.053 250.919 436.52 250.716C435.987 250.513 435.528 250.231 435.144 249.868C434.76 249.516 434.472 249.1 434.28 248.62L435.944 247.932C436.093 248.337 436.365 248.673 436.76 248.94C437.165 249.207 437.661 249.34 438.248 249.34C438.707 249.34 439.117 249.249 439.48 249.068C439.843 248.897 440.131 248.641 440.344 248.3C440.557 247.969 440.664 247.569 440.664 247.1V245.148L440.984 245.516C440.685 246.071 440.269 246.492 439.736 246.78C439.213 247.068 438.621 247.212 437.96 247.212C437.16 247.212 436.44 247.025 435.8 246.652C435.16 246.279 434.653 245.767 434.28 245.116C433.917 244.465 433.736 243.735 433.736 242.924C433.736 242.103 433.917 241.372 434.28 240.732C434.653 240.092 435.155 239.585 435.784 239.212C436.413 238.839 437.133 238.652 437.944 238.652C438.605 238.652 439.192 238.796 439.704 239.084C440.227 239.361 440.653 239.767 440.984 240.3L440.744 240.748V238.844H442.456V247.1C442.456 247.847 442.275 248.513 441.912 249.1C441.56 249.697 441.069 250.167 440.44 250.508C439.811 250.849 439.085 251.02 438.264 251.02ZM438.168 245.532C438.648 245.532 439.075 245.42 439.448 245.196C439.821 244.961 440.115 244.652 440.328 244.268C440.552 243.873 440.664 243.431 440.664 242.94C440.664 242.449 440.552 242.007 440.328 241.612C440.104 241.217 439.805 240.908 439.432 240.684C439.059 240.449 438.637 240.332 438.168 240.332C437.677 240.332 437.24 240.449 436.856 240.684C436.472 240.908 436.168 241.217 435.944 241.612C435.731 241.996 435.624 242.439 435.624 242.94C435.624 243.42 435.731 243.857 435.944 244.252C436.168 244.647 436.472 244.961 436.856 245.196C437.24 245.42 437.677 245.532 438.168 245.532ZM444.252 247.5V235.388H446.06V240.54L445.772 240.316C445.986 239.772 446.327 239.361 446.796 239.084C447.266 238.796 447.81 238.652 448.428 238.652C449.068 238.652 449.634 238.791 450.124 239.068C450.615 239.345 450.999 239.729 451.276 240.22C451.554 240.711 451.692 241.271 451.692 241.9V247.5H449.9V242.396C449.9 241.959 449.815 241.591 449.644 241.292C449.484 240.983 449.26 240.748 448.972 240.588C448.684 240.417 448.354 240.332 447.98 240.332C447.618 240.332 447.287 240.417 446.988 240.588C446.7 240.748 446.471 240.983 446.3 241.292C446.14 241.601 446.06 241.969 446.06 242.396V247.5H444.252Z" fill="#141414"/>
<path d="M176.44 137.5V122.6H186.38V125H179.16V129.12H185.48V131.52H179.16V137.5H176.44ZM186.933 137.5V126.62H189.393V129.04L189.193 128.68C189.447 127.867 189.84 127.3 190.373 126.98C190.92 126.66 191.573 126.5 192.333 126.5H192.973V128.82H192.033C191.287 128.82 190.687 129.053 190.233 129.52C189.78 129.973 189.553 130.613 189.553 131.44V137.5H186.933ZM197.894 137.74C197.054 137.74 196.32 137.553 195.694 137.18C195.08 136.807 194.607 136.287 194.274 135.62C193.954 134.953 193.794 134.173 193.794 133.28V126.62H196.414V133.06C196.414 133.513 196.5 133.913 196.674 134.26C196.86 134.593 197.12 134.86 197.454 135.06C197.8 135.247 198.187 135.34 198.614 135.34C199.04 135.34 199.42 135.247 199.754 135.06C200.087 134.86 200.347 134.587 200.534 134.24C200.72 133.893 200.814 133.48 200.814 133V126.62H203.434V137.5H200.954V135.36L201.174 135.74C200.92 136.407 200.5 136.907 199.914 137.24C199.34 137.573 198.667 137.74 197.894 137.74ZM209.609 137.74C208.449 137.74 207.436 137.467 206.569 136.92C205.716 136.36 205.129 135.607 204.809 134.66L206.769 133.72C207.049 134.333 207.436 134.813 207.929 135.16C208.436 135.507 208.996 135.68 209.609 135.68C210.089 135.68 210.469 135.573 210.749 135.36C211.029 135.147 211.169 134.867 211.169 134.52C211.169 134.307 211.109 134.133 210.989 134C210.883 133.853 210.729 133.733 210.529 133.64C210.343 133.533 210.136 133.447 209.909 133.38L208.129 132.88C207.209 132.613 206.509 132.207 206.029 131.66C205.563 131.113 205.329 130.467 205.329 129.72C205.329 129.053 205.496 128.473 205.829 127.98C206.176 127.473 206.649 127.08 207.249 126.8C207.863 126.52 208.563 126.38 209.349 126.38C210.376 126.38 211.283 126.627 212.069 127.12C212.856 127.613 213.416 128.307 213.749 129.2L211.749 130.14C211.563 129.647 211.249 129.253 210.809 128.96C210.369 128.667 209.876 128.52 209.329 128.52C208.889 128.52 208.543 128.62 208.289 128.82C208.036 129.02 207.909 129.28 207.909 129.6C207.909 129.8 207.963 129.973 208.069 130.12C208.176 130.267 208.323 130.387 208.509 130.48C208.709 130.573 208.936 130.66 209.189 130.74L210.929 131.26C211.823 131.527 212.509 131.927 212.989 132.46C213.483 132.993 213.729 133.647 213.729 134.42C213.729 135.073 213.556 135.653 213.209 136.16C212.863 136.653 212.383 137.04 211.769 137.32C211.156 137.6 210.436 137.74 209.609 137.74ZM220.303 137.62C219.076 137.62 218.123 137.287 217.443 136.62C216.776 135.94 216.443 134.987 216.443 133.76V128.96H214.563V126.62H214.763C215.296 126.62 215.709 126.48 216.003 126.2C216.296 125.92 216.443 125.513 216.443 124.98V124.14H219.063V126.62H221.563V128.96H219.063V133.62C219.063 133.98 219.123 134.287 219.243 134.54C219.376 134.793 219.576 134.987 219.843 135.12C220.123 135.253 220.476 135.32 220.903 135.32C220.996 135.32 221.103 135.313 221.223 135.3C221.356 135.287 221.483 135.273 221.603 135.26V137.5C221.416 137.527 221.203 137.553 220.963 137.58C220.723 137.607 220.503 137.62 220.303 137.62ZM223.204 137.5V126.62H225.664V129.04L225.464 128.68C225.718 127.867 226.111 127.3 226.644 126.98C227.191 126.66 227.844 126.5 228.604 126.5H229.244V128.82H228.304C227.558 128.82 226.958 129.053 226.504 129.52C226.051 129.973 225.824 130.613 225.824 131.44V137.5H223.204ZM233.585 137.74C232.825 137.74 232.165 137.613 231.605 137.36C231.045 137.107 230.612 136.747 230.305 136.28C229.998 135.8 229.845 135.247 229.845 134.62C229.845 134.02 229.978 133.487 230.245 133.02C230.512 132.54 230.925 132.14 231.485 131.82C232.045 131.5 232.752 131.273 233.605 131.14L237.165 130.56V132.56L234.105 133.08C233.585 133.173 233.198 133.34 232.945 133.58C232.692 133.82 232.565 134.133 232.565 134.52C232.565 134.893 232.705 135.193 232.985 135.42C233.278 135.633 233.638 135.74 234.065 135.74C234.612 135.74 235.092 135.627 235.505 135.4C235.932 135.16 236.258 134.833 236.485 134.42C236.725 134.007 236.845 133.553 236.845 133.06V130.26C236.845 129.793 236.658 129.407 236.285 129.1C235.925 128.78 235.445 128.62 234.845 128.62C234.285 128.62 233.785 128.773 233.345 129.08C232.918 129.373 232.605 129.767 232.405 130.26L230.265 129.22C230.478 128.647 230.812 128.153 231.265 127.74C231.732 127.313 232.278 126.98 232.905 126.74C233.532 126.5 234.212 126.38 234.945 126.38C235.838 126.38 236.625 126.547 237.305 126.88C237.985 127.2 238.512 127.653 238.885 128.24C239.272 128.813 239.465 129.487 239.465 130.26V137.5H236.985V135.64L237.545 135.6C237.265 136.067 236.932 136.46 236.545 136.78C236.158 137.087 235.718 137.327 235.225 137.5C234.732 137.66 234.185 137.74 233.585 137.74ZM246.251 137.62C245.024 137.62 244.071 137.287 243.391 136.62C242.724 135.94 242.391 134.987 242.391 133.76V128.96H240.511V126.62H240.711C241.244 126.62 241.658 126.48 241.951 126.2C242.244 125.92 242.391 125.513 242.391 124.98V124.14H245.011V126.62H247.511V128.96H245.011V133.62C245.011 133.98 245.071 134.287 245.191 134.54C245.324 134.793 245.524 134.987 245.791 135.12C246.071 135.253 246.424 135.32 246.851 135.32C246.944 135.32 247.051 135.313 247.171 135.3C247.304 135.287 247.431 135.273 247.551 135.26V137.5C247.364 137.527 247.151 137.553 246.911 137.58C246.671 137.607 246.451 137.62 246.251 137.62ZM249.153 137.5V126.62H251.773V137.5H249.153ZM249.153 125.4V122.6H251.773V125.4H249.153ZM259.112 137.74C258.045 137.74 257.072 137.493 256.192 137C255.325 136.507 254.632 135.833 254.112 134.98C253.605 134.127 253.352 133.153 253.352 132.06C253.352 130.967 253.605 129.993 254.112 129.14C254.632 128.287 255.325 127.613 256.192 127.12C257.059 126.627 258.032 126.38 259.112 126.38C260.179 126.38 261.145 126.627 262.012 127.12C262.879 127.613 263.565 128.287 264.072 129.14C264.592 129.98 264.852 130.953 264.852 132.06C264.852 133.153 264.592 134.127 264.072 134.98C263.552 135.833 262.859 136.507 261.992 137C261.125 137.493 260.165 137.74 259.112 137.74ZM259.112 135.34C259.699 135.34 260.212 135.2 260.652 134.92C261.105 134.64 261.459 134.253 261.712 133.76C261.979 133.253 262.112 132.687 262.112 132.06C262.112 131.42 261.979 130.86 261.712 130.38C261.459 129.887 261.105 129.5 260.652 129.22C260.212 128.927 259.699 128.78 259.112 128.78C258.512 128.78 257.985 128.927 257.532 129.22C257.079 129.5 256.719 129.887 256.452 130.38C256.199 130.86 256.072 131.42 256.072 132.06C256.072 132.687 256.199 133.253 256.452 133.76C256.719 134.253 257.079 134.64 257.532 134.92C257.985 135.2 258.512 135.34 259.112 135.34ZM266.439 137.5V126.62H268.899V128.76L268.699 128.38C268.952 127.727 269.365 127.233 269.939 126.9C270.525 126.553 271.205 126.38 271.979 126.38C272.779 126.38 273.485 126.553 274.099 126.9C274.725 127.247 275.212 127.733 275.559 128.36C275.905 128.973 276.079 129.687 276.079 130.5V137.5H273.459V131.12C273.459 130.64 273.365 130.227 273.179 129.88C272.992 129.533 272.732 129.267 272.399 129.08C272.079 128.88 271.699 128.78 271.259 128.78C270.832 128.78 270.452 128.88 270.119 129.08C269.785 129.267 269.525 129.533 269.339 129.88C269.152 130.227 269.059 130.64 269.059 131.12V137.5H266.439Z" fill="#141414"/>
<defs>
<filter id="filter0_dd_6487_14120" x="202.038" y="198.355" width="33.9231" height="33.9231" filterUnits="userSpaceOnUse" color-interpolation-filters="sRGB">
<feFlood flood-opacity="0" result="BackgroundImageFix"/>
<feColorMatrix in="SourceAlpha" type="matrix" values="0 0 0 0 0 0 0 0 0 0 0 0 0 0 0 0 0 0 127 0" result="hardAlpha"/>
<feOffset dy="2.48077"/>
<feGaussianBlur stdDeviation="2.48077"/>
<feColorMatrix type="matrix" values="0 0 0 0 0.196487 0 0 0 0 0.196487 0 0 0 0 0.279476 0 0 0 0.06 0"/>
<feBlend mode="multiply" in2="BackgroundImageFix" result="effect1_dropShadow_6487_14120"/>
<feColorMatrix in="SourceAlpha" type="matrix" values="0 0 0 0 0 0 0 0 0 0 0 0 0 0 0 0 0 0 127 0" result="hardAlpha"/>
<feOffset dy="2.48077"/>
<feGaussianBlur stdDeviation="1.24038"/>
<feColorMatrix type="matrix" values="0 0 0 0 0.196487 0 0 0 0 0.196487 0 0 0 0 0.279476 0 0 0 0.06 0"/>
<feBlend mode="multiply" in2="effect1_dropShadow_6487_14120" result="effect2_dropShadow_6487_14120"/>
<feBlend mode="normal" in="SourceGraphic" in2="effect2_dropShadow_6487_14120" result="shape"/>
</filter>
</defs>
</svg>
